<svg xmlns="http://www.w3.org/2000/svg" width="1400" height="642.75"><rect width="1400" height="642.75" rx="5" ry="5" class="a"/><svg y="0%" x="0%"><circle cx="20" cy="20" r="6" fill="#ff5f58"/><circle cx="40" cy="20" r="6" fill="#ffbd2e"/><circle cx="60" cy="20" r="6" fill="#18c132"/></svg><svg height="542.75" viewBox="0 0 132 54.275" width="1320" x="35" xmlns="http://www.w3.org/2000/svg" y="70"><style>a{cursor:help}a>text{text-decoration:underline dashed}.inserted-lf{fill:#999999;fill-opacity:.75;font-variant-position:sub;font-size:75%}.container{font-family:'JetBrains Mono','Monaco','Consolas','Menlo','Bitstream Vera Sans Mono','Lucida Console','Ubuntu Mono','Meslo for Powerline','Meslo LG M for Powerline','Powerline Symbols','Monospace','monospace'}.container>g{animation-play-state:running}.container_end{fill:whitesmoke;mix-blend-mode:soft-light;opacity:0;transition:opacity .2s ease-in-out}.container:hover>g{animation-play-state:paused}.container{pointer-events:all}.container:hover{cursor:wait}.container:hover>.container_end{opacity:1}.container>g>svg>svg>*{transform: scaleY(.95);}@keyframes m{0%{transform:translateX(0)}.1%{transform:translateX(-132px)}4.6%{transform:translateX(-264px)}11.9%{transform:translateX(-396px)}15.7%{transform:translateX(-528px)}19.3%{transform:translateX(-660px)}19.4%{transform:translateX(-792px)}19.5%{transform:translateX(-1056px)}26.8%{transform:translateX(-1188px)}30.6%{transform:translateX(-1320px)}34.2%{transform:translateX(-1584px)}34.3%{transform:translateX(-1848px)}41.6%{transform:translateX(-1980px)}42%{transform:translateX(-2112px)}45.8%{transform:translateX(-2244px)}49.3%{transform:translateX(-2376px)}49.4%{transform:translateX(-2508px)}49.5%{transform:translateX(-2772px)}56.8%{transform:translateX(-2904px)}57.2%{transform:translateX(-3036px)}61%{transform:translateX(-3168px)}64.5%{transform:translateX(-3300px)}64.6%{transform:translateX(-3432px)}64.7%{transform:translateX(-3696px)}68.2%{transform:translateX(-3828px)}71.7%{transform:translateX(-3960px)}75.3%{transform:translateX(-4092px)}78.8%{transform:translateX(-4224px)}82.3%{transform:translateX(-4356px)}85.9%{transform:translateX(-4620px)}89.4%{transform:translateX(-4752px)}92.9%{transform:translateX(-4884px)}96.5%{transform:translateX(-5016px)}to{transform:translateX(-5148px)}}.a{fill:#2d2d2d}.f,.g,.h,.i,.j{fill:#dcdcdc;white-space:pre}.g,.h,.i,.j{fill:#6e6e6e}.h,.i,.j{fill:#01e6ff}.i,.j{fill:#29abe2}.j{fill:#b0b0b0}</style><g class="container" font-size="1.67"><defs><symbol id="11"><text y="1.67" class="f">❱</text><text x="2.004" y="1.67" class="f">tracr</text><text x="8.016" y="1.67" class="f">-foo</text><text x="13.026" y="1.67" class="f">--bar</text><text x="19.038" y="1.67" class="f">--</text><text x="22.044" y="1.67" class="f">---baz</text></symbol><symbol id="1"><text y="1.67" class="f">❱</text></symbol><symbol id="3"><text y="1.67" class="g">❱</text><text x="2.004" y="1.67" class="g">tracr</text></symbol><symbol id="4"><text x="1.002" y="1.67" class="h">0</text><text x="41.082" y="1.67" class="i">↗</text><a href="https://gist.github.com/egmontkob/eb114294efbcd5adb1944c9f3cb5feda"><title>Displayed as link in selected terminal emulators</title><text x="43.086" y="1.67" class="j">file:///home/john/main#51</text></a></symbol><symbol id="5"><text y="1.67" class="f">❱</text><text x="2.004" y="1.67" class="f">tracr</text><text x="8.016" y="1.67" class="f">foo</text></symbol><symbol id="6"><text y="1.67" class="g">❱</text><text x="2.004" y="1.67" class="g">tracr</text><text x="8.016" y="1.67" class="g">foo</text></symbol><symbol id="7"><text x="1.002" y="1.67" class="h">1</text><text x="3.006" y="1.67" class="h">`</text><text x="4.008" y="1.67" class="j">foo</text><text x="7.014" y="1.67" class="h">`</text><text x="41.082" y="1.67" class="i">↗</text><a href="https://gist.github.com/egmontkob/eb114294efbcd5adb1944c9f3cb5feda"><title>Displayed as link in selected terminal emulators</title><text x="43.086" y="1.67" class="j">file:///home/john/main#51</text></a></symbol><symbol id="8"><text y="1.67" class="f">❱</text><text x="2.004" y="1.67" class="f">tracr</text><text x="8.016" y="1.67" class="f">foo</text><text x="12.024" y="1.67" class="f">bar</text></symbol><symbol id="9"><text y="1.67" class="g">❱</text><text x="2.004" y="1.67" class="g">tracr</text><text x="8.016" y="1.67" class="g">foo</text><text x="12.024" y="1.67" class="g">bar</text></symbol><symbol id="10"><text x="1.002" y="1.67" class="h">2</text><text x="3.006" y="1.67" class="h">`</text><text x="4.008" y="1.67" class="j">foo</text><text x="7.014" y="1.67" class="h">`</text><text x="9.018" y="1.67" class="h">`</text><text x="10.02" y="1.67" class="j">bar</text><text x="13.026" y="1.67" class="h">`</text><text x="41.082" y="1.67" class="i">↗</text><a href="https://gist.github.com/egmontkob/eb114294efbcd5adb1944c9f3cb5feda"><title>Displayed as link in selected terminal emulators</title><text x="43.086" y="1.67" class="j">file:///home/john/main#51</text></a></symbol><symbol id="2"><text y="1.67" class="f">❱</text><text x="2.004" y="1.67" class="f">tracr</text></symbol><symbol id="12"><text y="1.67" class="g">❱</text><text x="2.004" y="1.67" class="g">tracr</text><text x="8.016" y="1.67" class="g">-foo</text><text x="13.026" y="1.67" class="g">--bar</text><text x="19.038" y="1.67" class="g">--</text><text x="22.044" y="1.67" class="g">---baz</text></symbol><symbol id="13"><text x="1.002" y="1.67" class="h">4</text><text x="3.006" y="1.67" class="h">`</text><text x="4.008" y="1.67" class="j">-foo</text><text x="8.016" y="1.67" class="h">`</text><text x="10.02" y="1.67" class="h">`</text><text x="11.022" y="1.67" class="j">--bar</text><text x="16.032" y="1.67" class="h">`</text><text x="18.036" y="1.67" class="h">`</text><text x="19.038" y="1.67" class="j">--</text><text x="21.042" y="1.67" class="h">`</text><text x="23.046" y="1.67" class="h">`</text><text x="24.048" y="1.67" class="j">---baz</text><text x="30.06" y="1.67" class="h">`</text><text x="41.082" y="1.67" class="i">↗</text><a href="https://gist.github.com/egmontkob/eb114294efbcd5adb1944c9f3cb5feda"><title>Displayed as link in selected terminal emulators</title><text x="43.086" y="1.67" class="j">file:///home/john/main#51</text></a></symbol><symbol id="14"><text y="1.67" class="j">5</text></symbol><symbol id="15"><text y="1.67" class="j">4</text></symbol><symbol id="16"><text y="1.67" class="j">3</text></symbol><symbol id="17"><text y="1.67" class="j">2</text></symbol><symbol id="18"><text y="1.67" class="j">1</text></symbol><symbol id="a"><path fill="transparent" d="M0 0h132v26H0z"/></symbol><symbol id="b"><path fill="silver" d="M0 0h1.102v2.171H0z"/></symbol></defs><path class="a" d="M0 0h132v54.275H0z"/><g style="animation-duration:14.230542s;animation-iteration-count:infinite;animation-name:m;animation-timing-function:steps(1,end)"><svg width="5280"><svg><use href="#a"/><use href="#b" x="-.004"/></svg><svg x="132"><use href="#a"/><use href="#b" x="-.004"/></svg><svg x="264"><use href="#a"/><use href="#b" x="1.996"/><use href="#1"/></svg><svg x="396"><use href="#a"/><use href="#b" x="6.996"/><use href="#2"/></svg><svg x="528"><use href="#a"/><use href="#2"/></svg><svg x="660"><use href="#a"/><use href="#3"/></svg><svg x="792"><use href="#a"/><use href="#3"/><use href="#4" y="2.171"/></svg><svg x="924"><use href="#a"/><use href="#3"/><use href="#4" y="2.171"/></svg><svg x="1056"><use href="#a"/><use href="#b" x="1.996" y="6.488"/><use href="#3"/><use href="#4" y="2.171"/><use href="#1" y="6.513"/></svg><svg x="1188"><use href="#a"/><use href="#b" x="10.996" y="6.488"/><use href="#3"/><use href="#4" y="2.171"/><use href="#5" y="6.513"/></svg><svg x="1320"><use href="#a"/><use href="#3"/><use href="#4" y="2.171"/><use href="#5" y="6.513"/></svg><svg x="1452"><use href="#a"/><use href="#3"/><use href="#4" y="2.171"/><use href="#6" y="6.513"/></svg><svg x="1584"><use href="#a"/><use href="#3"/><use href="#4" y="2.171"/><use href="#6" y="6.513"/><use href="#7" y="8.684"/></svg><svg x="1716"><use href="#a"/><use href="#3"/><use href="#4" y="2.171"/><use href="#6" y="6.513"/><use href="#7" y="8.684"/></svg><svg x="1848"><use href="#a"/><use href="#b" x="1.996" y="13.001"/><use href="#3"/><use href="#4" y="2.171"/><use href="#6" y="6.513"/><use href="#7" y="8.684"/><use href="#1" y="13.026"/></svg><svg x="1980"><use href="#a"/><use href="#b" x="12.996" y="13.001"/><use href="#3"/><use href="#4" y="2.171"/><use href="#6" y="6.513"/><use href="#7" y="8.684"/><text y="14.696" class="f">❱</text><text x="2.004" y="14.696" class="f">tracr</text><text x="8.016" y="14.696" class="f">foo</text><text x="12.024" y="14.696" class="f">b</text></svg><svg x="2112"><use href="#a"/><use href="#b" x="14.996" y="13.001"/><use href="#3"/><use href="#4" y="2.171"/><use href="#6" y="6.513"/><use href="#7" y="8.684"/><use href="#8" y="13.026"/></svg><svg x="2244"><use href="#a"/><use href="#3"/><use href="#4" y="2.171"/><use href="#6" y="6.513"/><use href="#7" y="8.684"/><use href="#8" y="13.026"/></svg><svg x="2376"><use href="#a"/><use href="#3"/><use href="#4" y="2.171"/><use href="#6" y="6.513"/><use href="#7" y="8.684"/><use href="#9" y="13.026"/></svg><svg x="2508"><use href="#a"/><use href="#3"/><use href="#4" y="2.171"/><use href="#6" y="6.513"/><use href="#7" y="8.684"/><use href="#9" y="13.026"/><use href="#10" y="15.197"/></svg><svg x="2640"><use href="#a"/><use href="#3"/><use href="#4" y="2.171"/><use href="#6" y="6.513"/><use href="#7" y="8.684"/><use href="#9" y="13.026"/><use href="#10" y="15.197"/></svg><svg x="2772"><use href="#a"/><use href="#b" x="1.996" y="19.514"/><use href="#3"/><use href="#4" y="2.171"/><use href="#6" y="6.513"/><use href="#7" y="8.684"/><use href="#9" y="13.026"/><use href="#10" y="15.197"/><use href="#1" y="19.539"/></svg><svg x="2904"><use href="#a"/><use href="#b" x="15.996" y="19.514"/><use href="#3"/><use href="#4" y="2.171"/><use href="#6" y="6.513"/><use href="#7" y="8.684"/><use href="#9" y="13.026"/><use href="#10" y="15.197"/><text y="21.209" class="f">❱</text><text x="2.004" y="21.209" class="f">tracr</text><text x="8.016" y="21.209" class="f">-foo</text><text x="13.026" y="21.209" class="f">--b</text></svg><svg x="3036"><use href="#a"/><use href="#b" x="27.996" y="19.514"/><use href="#3"/><use href="#4" y="2.171"/><use href="#6" y="6.513"/><use href="#7" y="8.684"/><use href="#9" y="13.026"/><use href="#10" y="15.197"/><use href="#11" y="19.539"/></svg><svg x="3168"><use href="#a"/><use href="#3"/><use href="#4" y="2.171"/><use href="#6" y="6.513"/><use href="#7" y="8.684"/><use href="#9" y="13.026"/><use href="#10" y="15.197"/><use href="#11" y="19.539"/></svg><svg x="3300"><use href="#a"/><use href="#3"/><use href="#4" y="2.171"/><use href="#6" y="6.513"/><use href="#7" y="8.684"/><use href="#9" y="13.026"/><use href="#10" y="15.197"/><use href="#12" y="19.539"/></svg><svg x="3432"><use href="#a"/><use href="#3"/><use href="#4" y="2.171"/><use href="#6" y="6.513"/><use href="#7" y="8.684"/><use href="#9" y="13.026"/><use href="#10" y="15.197"/><use href="#12" y="19.539"/><use href="#13" y="21.71"/></svg><svg x="3564"><use href="#a"/><use href="#3"/><use href="#4" y="2.171"/><use href="#6" y="6.513"/><use href="#7" y="8.684"/><use href="#9" y="13.026"/><use href="#10" y="15.197"/><use href="#12" y="19.539"/><use href="#13" y="21.71"/></svg><svg x="3696"><use href="#a"/><use href="#3"/><use href="#4" y="2.171"/><use href="#6" y="6.513"/><use href="#7" y="8.684"/><use href="#9" y="13.026"/><use href="#10" y="15.197"/><use href="#12" y="19.539"/><use href="#13" y="21.71"/><use href="#14" y="26.052"/></svg><svg x="3828"><use href="#a"/><use href="#b" x="-.004" y="26.027"/><use href="#3"/><use href="#4" y="2.171"/><use href="#6" y="6.513"/><use href="#7" y="8.684"/><use href="#9" y="13.026"/><use href="#10" y="15.197"/><use href="#12" y="19.539"/><use href="#13" y="21.71"/><use href="#14" y="26.052"/></svg><svg x="3960"><use href="#a"/><use href="#3"/><use href="#4" y="2.171"/><use href="#6" y="6.513"/><use href="#7" y="8.684"/><use href="#9" y="13.026"/><use href="#10" y="15.197"/><use href="#12" y="19.539"/><use href="#13" y="21.71"/><use href="#15" y="26.052"/></svg><svg x="4092"><use href="#a"/><use href="#b" x="-.004" y="26.027"/><use href="#3"/><use href="#4" y="2.171"/><use href="#6" y="6.513"/><use href="#7" y="8.684"/><use href="#9" y="13.026"/><use href="#10" y="15.197"/><use href="#12" y="19.539"/><use href="#13" y="21.71"/><use href="#15" y="26.052"/></svg><svg x="4224"><use href="#a"/><use href="#3"/><use href="#4" y="2.171"/><use href="#6" y="6.513"/><use href="#7" y="8.684"/><use href="#9" y="13.026"/><use href="#10" y="15.197"/><use href="#12" y="19.539"/><use href="#13" y="21.71"/><use href="#16" y="26.052"/></svg><svg x="4356"><use href="#a"/><use href="#b" x="-.004" y="26.027"/><use href="#3"/><use href="#4" y="2.171"/><use href="#6" y="6.513"/><use href="#7" y="8.684"/><use href="#9" y="13.026"/><use href="#10" y="15.197"/><use href="#12" y="19.539"/><use href="#13" y="21.71"/><use href="#16" y="26.052"/></svg><svg x="4488"><use href="#a"/><use href="#3"/><use href="#4" y="2.171"/><use href="#6" y="6.513"/><use href="#7" y="8.684"/><use href="#9" y="13.026"/><use href="#10" y="15.197"/><use href="#12" y="19.539"/><use href="#13" y="21.71"/><use href="#16" y="26.052"/></svg><svg x="4620"><use href="#a"/><use href="#3"/><use href="#4" y="2.171"/><use href="#6" y="6.513"/><use href="#7" y="8.684"/><use href="#9" y="13.026"/><use href="#10" y="15.197"/><use href="#12" y="19.539"/><use href="#13" y="21.71"/><use href="#17" y="26.052"/></svg><svg x="4752"><use href="#a"/><use href="#b" x="-.004" y="26.027"/><use href="#3"/><use href="#4" y="2.171"/><use href="#6" y="6.513"/><use href="#7" y="8.684"/><use href="#9" y="13.026"/><use href="#10" y="15.197"/><use href="#12" y="19.539"/><use href="#13" y="21.71"/><use href="#17" y="26.052"/></svg><svg x="4884"><use href="#a"/><use href="#3"/><use href="#4" y="2.171"/><use href="#6" y="6.513"/><use href="#7" y="8.684"/><use href="#9" y="13.026"/><use href="#10" y="15.197"/><use href="#12" y="19.539"/><use href="#13" y="21.71"/><use href="#18" y="26.052"/></svg><svg x="5016"><use href="#a"/><use href="#b" x="-.004" y="26.027"/><use href="#3"/><use href="#4" y="2.171"/><use href="#6" y="6.513"/><use href="#7" y="8.684"/><use href="#9" y="13.026"/><use href="#10" y="15.197"/><use href="#12" y="19.539"/><use href="#13" y="21.71"/><use href="#18" y="26.052"/></svg><svg x="5148"><use href="#a"/><use href="#3"/><use href="#4" y="2.171"/><use href="#6" y="6.513"/><use href="#7" y="8.684"/><use href="#9" y="13.026"/><use href="#10" y="15.197"/><use href="#12" y="19.539"/><use href="#13" y="21.71"/><use href="#18" y="26.052"/></svg></svg></g><svg height="100%" width="100%" viewBox="0 0 100 100" class="container_end"><text text-anchor="middle" alignment-baseline="central"><tspan y="50" x="50" style="font-size: 50px;">❚❚</tspan></text></svg></g></svg></svg>
