<svg xmlns="http://www.w3.org/2000/svg" width="1400" height="642.75"><rect width="1400" height="642.75" rx="5" ry="5" class="a"/><svg y="0%" x="0%"><circle cx="20" cy="20" r="6" fill="#ff5f58"/><circle cx="40" cy="20" r="6" fill="#ffbd2e"/><circle cx="60" cy="20" r="6" fill="#18c132"/></svg><svg height="542.75" viewBox="0 0 132 54.275" width="1320" x="35" xmlns="http://www.w3.org/2000/svg" y="70"><style>a{cursor:help}a>text{text-decoration:underline dashed}.inserted-lf{fill:#999999;fill-opacity:.75;font-variant-position:sub;font-size:75%}.container{font-family:'JetBrains Mono','Monaco','Consolas','Menlo','Bitstream Vera Sans Mono','Lucida Console','Ubuntu Mono','Meslo for Powerline','Meslo LG M for Powerline','Powerline Symbols','Monospace','monospace'}.container>g{animation-play-state:running}.container_end{fill:whitesmoke;mix-blend-mode:soft-light;opacity:0;transition:opacity .2s ease-in-out}.container:hover>g{animation-play-state:paused}.container{pointer-events:all}.container:hover{cursor:wait}.container:hover>.container_end{opacity:1}.container>g>svg>svg>*{transform: scaleY(.95);}@keyframes m{0%{transform:translateX(0)}.1%{transform:translateX(-132px)}4.1%{transform:translateX(-264px)}14%{transform:translateX(-396px)}19.2%{transform:translateX(-528px)}23.9%{transform:translateX(-660px)}24%{transform:translateX(-1056px)}27.9%{transform:translateX(-1320px)}37.9%{transform:translateX(-1452px)}38.3%{transform:translateX(-1584px)}43.5%{transform:translateX(-1716px)}48.2%{transform:translateX(-1848px)}48.3%{transform:translateX(-2244px)}52.2%{transform:translateX(-2508px)}57%{transform:translateX(-2640px)}61.8%{transform:translateX(-2772px)}66.6%{transform:translateX(-2904px)}71.4%{transform:translateX(-3036px)}76.2%{transform:translateX(-3168px)}80.9%{transform:translateX(-3300px)}85.7%{transform:translateX(-3432px)}90.4%{transform:translateX(-3564px)}95.2%{transform:translateX(-3696px)}to{transform:translateX(-3828px)}}.a{fill:#2d2d2d}.f{fill:#dcdcdc;white-space:pre}.g{fill:#6e6e6e}.g,.h,.i,.j{white-space:pre}.h{fill:#c6c6c6;font-weight:700}.i,.j{fill:#69b745}.j{fill:#b0b0b0}</style><g class="container" font-size="1.67"><defs><symbol id="9"><text x="1.002" y="1.67" class="i">✔</text><text x="3.006" y="1.67" class="h">Single</text><text x="10.02" y="1.67" class="h">line</text><text x="15.03" y="1.67" class="h">[Y/n]</text><text x="21.042" y="1.67" class="h">yes</text></symbol><symbol id="1"><text y="1.67" class="f">❱</text></symbol><symbol id="3"><text y="1.67" class="g">❱</text><text x="2.004" y="1.67" class="g">prompt4</text><text x="10.02" y="1.67" class="g">Yn</text></symbol><symbol id="4"><text x="3.006" y="1.67" class="h">Do</text><text x="6.012" y="1.67" class="h">you</text><text x="10.02" y="1.67" class="h">want</text><text x="15.03" y="1.67" class="h">to</text><text x="18.036" y="1.67" class="h">continue?</text><text x="28.056" y="1.67" class="h">[Y/n]</text></symbol><symbol id="5"><text x="1.002" y="1.67" class="i">✔</text><text x="3.006" y="1.67" class="h">Do</text><text x="6.012" y="1.67" class="h">you</text><text x="10.02" y="1.67" class="h">want</text><text x="15.03" y="1.67" class="h">to</text><text x="18.036" y="1.67" class="h">continue?</text><text x="28.056" y="1.67" class="h">[Y/n]</text><text x="34.068" y="1.67" class="h">yes</text></symbol><symbol id="6"><text y="1.67" class="f">❱</text><text x="2.004" y="1.67" class="f">prompt4</text><text x="10.02" y="1.67" class="f">Yn</text><text x="13.026" y="1.67" class="f">Single\</text><text x="21.042" y="1.67" class="f">line</text></symbol><symbol id="7"><text y="1.67" class="g">❱</text><text x="2.004" y="1.67" class="g">prompt4</text><text x="10.02" y="1.67" class="g">Yn</text><text x="13.026" y="1.67" class="g">Single\</text><text x="21.042" y="1.67" class="g">line</text></symbol><symbol id="8"><text x="3.006" y="1.67" class="h">Single</text><text x="10.02" y="1.67" class="h">line</text><text x="15.03" y="1.67" class="h">[Y/n]</text></symbol><symbol id="2"><text y="1.67" class="f">❱</text><text x="2.004" y="1.67" class="f">prompt4</text><text x="10.02" y="1.67" class="f">Yn</text></symbol><symbol id="10"><text y="1.67" class="j">5</text></symbol><symbol id="11"><text y="1.67" class="j">4</text></symbol><symbol id="12"><text y="1.67" class="j">3</text></symbol><symbol id="13"><text y="1.67" class="j">2</text></symbol><symbol id="14"><text y="1.67" class="j">1</text></symbol><symbol id="a"><path fill="transparent" d="M0 0h132v26H0z"/></symbol><symbol id="b"><path fill="silver" d="M0 0h1.102v2.171H0z"/></symbol></defs><path class="a" d="M0 0h132v54.275H0z"/><g style="animation-duration:10.57466s;animation-iteration-count:infinite;animation-name:m;animation-timing-function:steps(1,end)"><svg width="3960"><svg><use href="#a"/><use href="#b" x="-.004"/></svg><svg x="132"><use href="#a"/><use href="#b" x="-.004"/></svg><svg x="264"><use href="#a"/><use href="#b" x="1.996"/><use href="#1"/></svg><svg x="396"><use href="#a"/><use href="#b" x="11.996"/><use href="#2"/></svg><svg x="528"><use href="#a"/><use href="#2"/></svg><svg x="660"><use href="#a"/><use href="#3"/></svg><svg x="792"><use href="#a"/><use href="#3"/><use href="#4" y="2.171"/></svg><svg x="924"><use href="#a"/><use href="#b" x="33.996"/><use href="#4"/></svg><svg x="1056"><use href="#a"/><use href="#5"/></svg><svg x="1188"><use href="#a"/><use href="#5"/></svg><svg x="1320"><use href="#a"/><use href="#b" x="1.996" y="6.488"/><use href="#5"/><use href="#1" y="6.513"/></svg><svg x="1452"><use href="#a"/><use href="#b" x="15.996" y="6.488"/><use href="#5"/><text y="8.183" class="f">❱</text><text x="2.004" y="8.183" class="f">prompt4</text><text x="10.02" y="8.183" class="f">Yn</text><text x="13.026" y="8.183" class="f">Sin</text></svg><svg x="1584"><use href="#a"/><use href="#b" x="24.996" y="6.488"/><use href="#5"/><use href="#6" y="6.513"/></svg><svg x="1716"><use href="#a"/><use href="#5"/><use href="#6" y="6.513"/></svg><svg x="1848"><use href="#a"/><use href="#5"/><use href="#7" y="6.513"/></svg><svg x="1980"><use href="#a"/><use href="#5"/><use href="#7" y="6.513"/><use href="#8" y="8.684"/></svg><svg x="2112"><use href="#a"/><use href="#b" x="20.996" y="6.488"/><use href="#7" y="4.342"/><use href="#8" y="6.513"/></svg><svg x="2244"><use href="#a"/><use href="#7" y="4.342"/><use href="#9" y="6.513"/></svg><svg x="2376"><use href="#a"/><use href="#7" y="4.342"/><use href="#9" y="6.513"/></svg><svg x="2508"><use href="#a"/><use href="#7" y="4.342"/><use href="#9" y="6.513"/><use href="#10" y="13.026"/></svg><svg x="2640"><use href="#a"/><use href="#b" x="-.004" y="13.001"/><use href="#7" y="4.342"/><use href="#9" y="6.513"/><use href="#10" y="13.026"/></svg><svg x="2772"><use href="#a"/><use href="#7" y="4.342"/><use href="#9" y="6.513"/><use href="#11" y="13.026"/></svg><svg x="2904"><use href="#a"/><use href="#b" x="-.004" y="13.001"/><use href="#7" y="4.342"/><use href="#9" y="6.513"/><use href="#11" y="13.026"/></svg><svg x="3036"><use href="#a"/><use href="#7" y="4.342"/><use href="#9" y="6.513"/><use href="#12" y="13.026"/></svg><svg x="3168"><use href="#a"/><use href="#b" x="-.004" y="13.001"/><use href="#7" y="4.342"/><use href="#9" y="6.513"/><use href="#12" y="13.026"/></svg><svg x="3300"><use href="#a"/><use href="#7" y="4.342"/><use href="#9" y="6.513"/><use href="#13" y="13.026"/></svg><svg x="3432"><use href="#a"/><use href="#b" x="-.004" y="13.001"/><use href="#7" y="4.342"/><use href="#9" y="6.513"/><use href="#13" y="13.026"/></svg><svg x="3564"><use href="#a"/><use href="#7" y="4.342"/><use href="#9" y="6.513"/><use href="#14" y="13.026"/></svg><svg x="3696"><use href="#a"/><use href="#b" x="-.004" y="13.001"/><use href="#7" y="4.342"/><use href="#9" y="6.513"/><use href="#14" y="13.026"/></svg><svg x="3828"><use href="#a"/><use href="#b" x="-.004" y="13.001"/><use href="#7" y="4.342"/><use href="#9" y="6.513"/><use href="#14" y="13.026"/></svg></svg></g><svg height="100%" width="100%" viewBox="0 0 100 100" class="container_end"><text text-anchor="middle" alignment-baseline="central"><tspan y="50" x="50" style="font-size: 50px;">❚❚</tspan></text></svg></g></svg></svg>
