<svg xmlns="http://www.w3.org/2000/svg" width="1400" height="642.75"><rect width="1400" height="642.75" rx="5" ry="5" class="a"/><svg y="0%" x="0%"><circle cx="20" cy="20" r="6" fill="#ff5f58"/><circle cx="40" cy="20" r="6" fill="#ffbd2e"/><circle cx="60" cy="20" r="6" fill="#18c132"/></svg><svg height="542.75" viewBox="0 0 132 54.275" width="1320" x="35" xmlns="http://www.w3.org/2000/svg" y="70"><style>a{cursor:help}a>text{text-decoration:underline dashed}.inserted-lf{fill:#999999;fill-opacity:.75;font-variant-position:sub;font-size:75%}.container{font-family:'JetBrains Mono','Monaco','Consolas','Menlo','Bitstream Vera Sans Mono','Lucida Console','Ubuntu Mono','Meslo for Powerline','Meslo LG M for Powerline','Powerline Symbols','Monospace','monospace'}.container>g{animation-play-state:running}.container_end{fill:whitesmoke;mix-blend-mode:soft-light;opacity:0;transition:opacity .2s ease-in-out}.container:hover>g{animation-play-state:paused}.container{pointer-events:all}.container:hover{cursor:wait}.container:hover>.container_end{opacity:1}.container>g>svg>svg>*{transform: scaleY(.95);}@keyframes m{0%{transform:translateX(0)}.07%{transform:translateX(-132px)}2.15%{transform:translateX(-396px)}6.14%{transform:translateX(-528px)}8.23%{transform:translateX(-660px)}10.16%{transform:translateX(-792px)}10.18%{transform:translateX(-924px)}10.2%{transform:translateX(-1056px)}11.75%{transform:translateX(-1188px)}11.76%{transform:translateX(-1320px)}15.74%{transform:translateX(-1452px)}15.92%{transform:translateX(-1584px)}18.01%{transform:translateX(-1716px)}19.92%{transform:translateX(-1848px)}19.95%{transform:translateX(-1980px)}19.97%{transform:translateX(-2112px)}21.54%{transform:translateX(-2376px)}25.54%{transform:translateX(-2508px)}25.7%{transform:translateX(-2640px)}25.86%{transform:translateX(-2772px)}27.86%{transform:translateX(-2904px)}29.77%{transform:translateX(-3036px)}29.8%{transform:translateX(-3168px)}29.81%{transform:translateX(-3300px)}29.82%{transform:translateX(-3432px)}31.38%{transform:translateX(-3696px)}35.37%{transform:translateX(-3828px)}35.55%{transform:translateX(-3960px)}35.72%{transform:translateX(-4092px)}37.8%{transform:translateX(-4224px)}39.72%{transform:translateX(-4356px)}39.75%{transform:translateX(-4488px)}39.76%{transform:translateX(-4620px)}39.78%{transform:translateX(-4752px)}41.34%{transform:translateX(-5016px)}45.33%{transform:translateX(-5148px)}47.42%{transform:translateX(-5280px)}49.33%{transform:translateX(-5412px)}49.36%{transform:translateX(-5544px)}49.37%{transform:translateX(-5676px)}49.39%{transform:translateX(-5808px)}50.98%{transform:translateX(-5940px)}50.99%{transform:translateX(-6072px)}54.98%{transform:translateX(-6204px)}55.15%{transform:translateX(-6336px)}57.24%{transform:translateX(-6468px)}59.17%{transform:translateX(-6600px)}59.2%{transform:translateX(-6864px)}59.23%{transform:translateX(-7128px)}60.8%{transform:translateX(-7392px)}64.79%{transform:translateX(-7524px)}64.95%{transform:translateX(-7656px)}65.12%{transform:translateX(-7788px)}67.22%{transform:translateX(-7920px)}69.15%{transform:translateX(-8052px)}69.18%{transform:translateX(-8316px)}69.2%{transform:translateX(-8448px)}70.77%{transform:translateX(-8712px)}74.76%{transform:translateX(-8844px)}74.94%{transform:translateX(-8976px)}75.11%{transform:translateX(-9108px)}77.21%{transform:translateX(-9240px)}79.12%{transform:translateX(-9372px)}79.17%{transform:translateX(-9504px)}79.2%{transform:translateX(-9636px)}79.21%{transform:translateX(-9768px)}80.78%{transform:translateX(-10032px)}82.69%{transform:translateX(-10164px)}84.62%{transform:translateX(-10296px)}86.53%{transform:translateX(-10428px)}88.45%{transform:translateX(-10560px)}90.37%{transform:translateX(-10692px)}92.31%{transform:translateX(-10824px)}94.22%{transform:translateX(-10956px)}96.14%{transform:translateX(-11220px)}98.07%{transform:translateX(-11352px)}to{transform:translateX(-11616px)}}.a{fill:#282d35}.f{fill:#b9bfca;white-space:pre}.g{fill:#6f7783}.g,.h,.i,.j{white-space:pre}.h{fill:#b9c0cb;font-weight:700}.i,.j{fill:#a8cc8c}.j{fill:#b9c0cb}</style><g class="container" font-size="1.67"><defs><symbol id="14"><text x="3.006" y="1.67" class="h">Multi-</text></symbol><symbol id="1"><text y="1.67" class="f">❱</text></symbol><symbol id="3"><text y="1.67" class="g">❱</text><text x="2.004" y="1.67" class="g">prompt4</text><text x="10.02" y="1.67" class="g">Yn</text></symbol><symbol id="4"><text x="3.006" y="1.67" class="h">Do</text><text x="6.012" y="1.67" class="h">you</text><text x="10.02" y="1.67" class="h">want</text><text x="15.03" y="1.67" class="h">to</text><text x="18.036" y="1.67" class="h">continue?</text><text x="28.056" y="1.67" class="h">[Y/n]</text></symbol><symbol id="5"><text x="1.002" y="1.67" class="i">✔</text><text x="3.006" y="1.67" class="h">Do</text><text x="6.012" y="1.67" class="h">you</text><text x="10.02" y="1.67" class="h">want</text><text x="15.03" y="1.67" class="h">to</text><text x="18.036" y="1.67" class="h">continue?</text><text x="28.056" y="1.67" class="h">[Y/n]</text><text x="34.068" y="1.67" class="h">yes</text></symbol><symbol id="6"><text y="1.67" class="f">❱</text><text x="2.004" y="1.67" class="f">prompt4</text><text x="10.02" y="1.67" class="f">Yn</text><text x="13.026" y="1.67" class="f">Single\</text><text x="21.042" y="1.67" class="f">line</text></symbol><symbol id="7"><text y="1.67" class="g">❱</text><text x="2.004" y="1.67" class="g">prompt4</text><text x="10.02" y="1.67" class="g">Yn</text><text x="13.026" y="1.67" class="g">Single\</text><text x="21.042" y="1.67" class="g">line</text></symbol><symbol id="8"><text x="3.006" y="1.67" class="h">Single</text><text x="10.02" y="1.67" class="h">line</text><text x="15.03" y="1.67" class="h">[Y/n]</text></symbol><symbol id="9"><text x="1.002" y="1.67" class="i">✔</text><text x="3.006" y="1.67" class="h">Single</text><text x="10.02" y="1.67" class="h">line</text><text x="15.03" y="1.67" class="h">[Y/n]</text><text x="21.042" y="1.67" class="h">yes</text></symbol><symbol id="10"><text y="1.67" class="f">❱</text><text x="2.004" y="1.67" class="f">prompt4</text><text x="10.02" y="1.67" class="f">Yn</text><text x="13.026" y="1.67" class="f">%s\</text></symbol><symbol id="11"><text y="1.67" class="f">❱</text><text x="2.004" y="1.67" class="f">prompt4</text><text x="10.02" y="1.67" class="f">Yn</text><text x="13.026" y="1.67" class="f">%s\\n</text><text x="19.038" y="1.67" class="f">Multi-</text></symbol><symbol id="12"><text y="1.67" class="f">❱</text><text x="2.004" y="1.67" class="f">prompt4</text><text x="10.02" y="1.67" class="f">Yn</text><text x="13.026" y="1.67" class="f">%s\\n</text><text x="19.038" y="1.67" class="f">Multi-</text><text x="26.052" y="1.67" class="f">line</text></symbol><symbol id="13"><text y="1.67" class="g">❱</text><text x="2.004" y="1.67" class="g">prompt4</text><text x="10.02" y="1.67" class="g">Yn</text><text x="13.026" y="1.67" class="g">%s\\n</text><text x="19.038" y="1.67" class="g">Multi-</text><text x="26.052" y="1.67" class="g">line</text></symbol><symbol id="2"><text y="1.67" class="f">❱</text><text x="2.004" y="1.67" class="f">prompt4</text><text x="10.02" y="1.67" class="f">Yn</text></symbol><symbol id="15"><text x="3.006" y="1.67" class="h">line</text><text x="8.016" y="1.67" class="h">[Y/n]</text></symbol><symbol id="16"><text x="1.002" y="1.67" class="i">✔</text><text x="3.006" y="1.67" class="h">line</text><text x="8.016" y="1.67" class="h">[Y/n]</text><text x="14.028" y="1.67" class="h">yes</text></symbol><symbol id="17"><text y="1.67" class="f">❱</text><text x="2.004" y="1.67" class="f">prompt4</text><text x="10.02" y="1.67" class="f">Yn</text><text x="13.026" y="1.67" class="f">%s\\n</text><text x="19.038" y="1.67" class="f">Multi-</text><text x="26.052" y="1.67" class="f">line</text><text x="31.062" y="1.67" class="f">-</text></symbol><symbol id="18"><text y="1.67" class="g">❱</text><text x="2.004" y="1.67" class="g">prompt4</text><text x="10.02" y="1.67" class="g">Yn</text><text x="13.026" y="1.67" class="g">%s\\n</text><text x="19.038" y="1.67" class="g">Multi-</text><text x="26.052" y="1.67" class="g">line</text><text x="31.062" y="1.67" class="g">-</text></symbol><symbol id="19"><text x="3.006" y="1.67" class="h">line</text></symbol><symbol id="20"><text y="1.67" class="j">5</text></symbol><symbol id="21"><text y="1.67" class="j">4</text></symbol><symbol id="22"><text y="1.67" class="j">3</text></symbol><symbol id="23"><text y="1.67" class="j">2</text></symbol><symbol id="24"><text y="1.67" class="j">1</text></symbol><symbol id="a"><path fill="transparent" d="M0 0h132v26H0z"/></symbol><symbol id="b"><path fill="#6f7683" d="M0 0h1.102v2.171H0z"/></symbol></defs><path class="a" d="M0 0h132v54.275H0z"/><g style="animation-duration:26.247532s;animation-iteration-count:infinite;animation-name:m;animation-timing-function:steps(1,end)"><svg width="11748"><svg><use href="#a"/><use href="#b" x="-.004"/></svg><svg x="132"><use href="#a"/><use href="#b" x="-.004"/></svg><svg x="264"><use href="#a"/></svg><svg x="396"><use href="#a"/><use href="#b" x="1.996"/><use href="#1"/></svg><svg x="528"><use href="#a"/><use href="#b" x="11.996"/><use href="#2"/></svg><svg x="660"><use href="#a"/><use href="#2"/></svg><svg x="792"><use href="#a"/><use href="#3"/></svg><svg x="924"><use href="#a"/><use href="#b" x="33.996"/><use href="#4"/></svg><svg x="1056"><use href="#a"/><use href="#5"/></svg><svg x="1188"><use href="#a"/><use href="#5"/></svg><svg x="1320"><use href="#a"/><use href="#b" x="1.996" y="6.488"/><use href="#5"/><use href="#1" y="6.513"/></svg><svg x="1452"><use href="#a"/><use href="#b" x="12.996" y="6.488"/><use href="#5"/><use href="#2" y="6.513"/></svg><svg x="1584"><use href="#a"/><use href="#b" x="24.996" y="6.488"/><use href="#5"/><use href="#6" y="6.513"/></svg><svg x="1716"><use href="#a"/><use href="#5"/><use href="#6" y="6.513"/></svg><svg x="1848"><use href="#a"/><use href="#5"/><use href="#7" y="6.513"/></svg><svg x="1980"><use href="#a"/><use href="#b" x="20.996" y="6.488"/><use href="#7" y="4.342"/><use href="#8" y="6.513"/></svg><svg x="2112"><use href="#a"/><use href="#7" y="4.342"/><use href="#9" y="6.513"/></svg><svg x="2244"><use href="#a"/><use href="#7" y="4.342"/><use href="#9" y="6.513"/></svg><svg x="2376"><use href="#a"/><use href="#b" x="1.996" y="13.001"/><use href="#7" y="4.342"/><use href="#9" y="6.513"/><use href="#1" y="13.026"/></svg><svg x="2508"><use href="#a"/><use href="#b" x="15.996" y="13.001"/><use href="#7" y="4.342"/><use href="#9" y="6.513"/><use href="#10" y="13.026"/></svg><svg x="2640"><use href="#a"/><use href="#b" x="25.996" y="13.001"/><use href="#7" y="4.342"/><use href="#9" y="6.513"/><use href="#11" y="13.026"/></svg><svg x="2772"><use href="#a"/><use href="#b" x="29.996" y="13.001"/><use href="#7" y="4.342"/><use href="#9" y="6.513"/><use href="#12" y="13.026"/></svg><svg x="2904"><use href="#a"/><use href="#7" y="4.342"/><use href="#9" y="6.513"/><use href="#12" y="13.026"/></svg><svg x="3036"><use href="#a"/><use href="#7" y="4.342"/><use href="#9" y="6.513"/><use href="#13" y="13.026"/></svg><svg x="3168"><use href="#a"/><use href="#b" x="-.004" y="13.001"/><use href="#7" y="2.171"/><use href="#9" y="4.342"/><use href="#13" y="10.855"/></svg><svg x="3300"><use href="#a"/><use href="#b" x="13.996" y="15.172"/><use href="#7" y="2.171"/><use href="#9" y="4.342"/><use href="#13" y="10.855"/><use href="#14" y="13.026"/><use href="#15" y="15.197"/></svg><svg x="3432"><use href="#a"/><use href="#7" y="2.171"/><use href="#9" y="4.342"/><use href="#13" y="10.855"/><use href="#14" y="13.026"/><use href="#16" y="15.197"/></svg><svg x="3564"><use href="#a"/><use href="#7" y="2.171"/><use href="#9" y="4.342"/><use href="#13" y="10.855"/><use href="#14" y="13.026"/><use href="#16" y="15.197"/></svg><svg x="3696"><use href="#a"/><use href="#b" x="1.996" y="21.685"/><use href="#7" y="2.171"/><use href="#9" y="4.342"/><use href="#13" y="10.855"/><use href="#14" y="13.026"/><use href="#16" y="15.197"/><use href="#1" y="21.71"/></svg><svg x="3828"><use href="#a"/><use href="#b" x="14.996" y="21.685"/><use href="#7" y="2.171"/><use href="#9" y="4.342"/><use href="#13" y="10.855"/><use href="#14" y="13.026"/><use href="#16" y="15.197"/><text y="23.38" class="f">❱</text><text x="2.004" y="23.38" class="f">prompt4</text><text x="10.02" y="23.38" class="f">Yn</text><text x="13.026" y="23.38" class="f">%s</text></svg><svg x="3960"><use href="#a"/><use href="#b" x="25.996" y="21.685"/><use href="#7" y="2.171"/><use href="#9" y="4.342"/><use href="#13" y="10.855"/><use href="#14" y="13.026"/><use href="#16" y="15.197"/><use href="#11" y="21.71"/></svg><svg x="4092"><use href="#a"/><use href="#b" x="31.996" y="21.685"/><use href="#7" y="2.171"/><use href="#9" y="4.342"/><use href="#13" y="10.855"/><use href="#14" y="13.026"/><use href="#16" y="15.197"/><use href="#17" y="21.71"/></svg><svg x="4224"><use href="#a"/><use href="#7" y="2.171"/><use href="#9" y="4.342"/><use href="#13" y="10.855"/><use href="#14" y="13.026"/><use href="#16" y="15.197"/><use href="#17" y="21.71"/></svg><svg x="4356"><use href="#a"/><use href="#7" y="2.171"/><use href="#9" y="4.342"/><use href="#13" y="10.855"/><use href="#14" y="13.026"/><use href="#16" y="15.197"/><use href="#18" y="21.71"/></svg><svg x="4488"><use href="#a"/><use href="#b" x="-.004" y="21.685"/><use href="#7"/><use href="#9" y="2.171"/><use href="#13" y="8.684"/><use href="#14" y="10.855"/><use href="#16" y="13.026"/><use href="#18" y="19.539"/></svg><svg x="4620"><use href="#a"/><use href="#b" x="33.996" y="26.027"/><use href="#7"/><use href="#9" y="2.171"/><use href="#13" y="8.684"/><use href="#14" y="10.855"/><use href="#16" y="13.026"/><use href="#18" y="19.539"/><use href="#14" y="21.71"/><use href="#19" y="23.881"/><use href="#4" y="26.052"/></svg><svg x="4752"><use href="#a"/><use href="#7"/><use href="#9" y="2.171"/><use href="#13" y="8.684"/><use href="#14" y="10.855"/><use href="#16" y="13.026"/><use href="#18" y="19.539"/><use href="#14" y="21.71"/><use href="#19" y="23.881"/><use href="#5" y="26.052"/></svg><svg x="4884"><use href="#a"/><use href="#7"/><use href="#9" y="2.171"/><use href="#13" y="8.684"/><use href="#14" y="10.855"/><use href="#16" y="13.026"/><use href="#18" y="19.539"/><use href="#14" y="21.71"/><use href="#19" y="23.881"/><use href="#5" y="26.052"/></svg><svg x="5016"><use href="#a"/><use href="#b" x="1.996" y="32.54"/><use href="#7"/><use href="#9" y="2.171"/><use href="#13" y="8.684"/><use href="#14" y="10.855"/><use href="#16" y="13.026"/><use href="#18" y="19.539"/><use href="#14" y="21.71"/><use href="#19" y="23.881"/><use href="#5" y="26.052"/><use href="#1" y="32.565"/></svg><svg x="5148"><use href="#a"/><use href="#b" x="11.996" y="32.54"/><use href="#7"/><use href="#9" y="2.171"/><use href="#13" y="8.684"/><use href="#14" y="10.855"/><use href="#16" y="13.026"/><use href="#18" y="19.539"/><use href="#14" y="21.71"/><use href="#19" y="23.881"/><use href="#5" y="26.052"/><use href="#2" y="32.565"/></svg><svg x="5280"><use href="#a"/><use href="#7"/><use href="#9" y="2.171"/><use href="#13" y="8.684"/><use href="#14" y="10.855"/><use href="#16" y="13.026"/><use href="#18" y="19.539"/><use href="#14" y="21.71"/><use href="#19" y="23.881"/><use href="#5" y="26.052"/><use href="#2" y="32.565"/></svg><svg x="5412"><use href="#a"/><use href="#7"/><use href="#9" y="2.171"/><use href="#13" y="8.684"/><use href="#14" y="10.855"/><use href="#16" y="13.026"/><use href="#18" y="19.539"/><use href="#14" y="21.71"/><use href="#19" y="23.881"/><use href="#5" y="26.052"/><use href="#3" y="32.565"/></svg><svg x="5544"><use href="#a"/><use href="#b" x="-.004" y="32.54"/><use href="#9"/><use href="#13" y="6.513"/><use href="#14" y="8.684"/><use href="#16" y="10.855"/><use href="#18" y="17.368"/><use href="#14" y="19.539"/><use href="#19" y="21.71"/><use href="#5" y="23.881"/><use href="#3" y="30.394"/></svg><svg x="5676"><use href="#a"/><use href="#b" x="33.996" y="32.54"/><use href="#9"/><use href="#13" y="6.513"/><use href="#14" y="8.684"/><use href="#16" y="10.855"/><use href="#18" y="17.368"/><use href="#14" y="19.539"/><use href="#19" y="21.71"/><use href="#5" y="23.881"/><use href="#3" y="30.394"/><use href="#4" y="32.565"/></svg><svg x="5808"><use href="#a"/><use href="#9"/><use href="#13" y="6.513"/><use href="#14" y="8.684"/><use href="#16" y="10.855"/><use href="#18" y="17.368"/><use href="#14" y="19.539"/><use href="#19" y="21.71"/><use href="#5" y="23.881"/><use href="#3" y="30.394"/><use href="#5" y="32.565"/></svg><svg x="5940"><use href="#a"/><use href="#9"/><use href="#13" y="6.513"/><use href="#14" y="8.684"/><use href="#16" y="10.855"/><use href="#18" y="17.368"/><use href="#14" y="19.539"/><use href="#19" y="21.71"/><use href="#5" y="23.881"/><use href="#3" y="30.394"/><use href="#5" y="32.565"/></svg><svg x="6072"><use href="#a"/><use href="#b" x="1.996" y="39.053"/><use href="#9"/><use href="#13" y="6.513"/><use href="#14" y="8.684"/><use href="#16" y="10.855"/><use href="#18" y="17.368"/><use href="#14" y="19.539"/><use href="#19" y="21.71"/><use href="#5" y="23.881"/><use href="#3" y="30.394"/><use href="#5" y="32.565"/><use href="#1" y="39.078"/></svg><svg x="6204"><use href="#a"/><use href="#b" x="13.996" y="39.053"/><use href="#9"/><use href="#13" y="6.513"/><use href="#14" y="8.684"/><use href="#16" y="10.855"/><use href="#18" y="17.368"/><use href="#14" y="19.539"/><use href="#19" y="21.71"/><use href="#5" y="23.881"/><use href="#3" y="30.394"/><use href="#5" y="32.565"/><text y="40.748" class="f">❱</text><text x="2.004" y="40.748" class="f">prompt4</text><text x="10.02" y="40.748" class="f">Yn</text><text x="13.026" y="40.748" class="f">S</text></svg><svg x="6336"><use href="#a"/><use href="#b" x="24.996" y="39.053"/><use href="#9"/><use href="#13" y="6.513"/><use href="#14" y="8.684"/><use href="#16" y="10.855"/><use href="#18" y="17.368"/><use href="#14" y="19.539"/><use href="#19" y="21.71"/><use href="#5" y="23.881"/><use href="#3" y="30.394"/><use href="#5" y="32.565"/><use href="#6" y="39.078"/></svg><svg x="6468"><use href="#a"/><use href="#9"/><use href="#13" y="6.513"/><use href="#14" y="8.684"/><use href="#16" y="10.855"/><use href="#18" y="17.368"/><use href="#14" y="19.539"/><use href="#19" y="21.71"/><use href="#5" y="23.881"/><use href="#3" y="30.394"/><use href="#5" y="32.565"/><use href="#6" y="39.078"/></svg><svg x="6600"><use href="#a"/><use href="#9"/><use href="#13" y="6.513"/><use href="#14" y="8.684"/><use href="#16" y="10.855"/><use href="#18" y="17.368"/><use href="#14" y="19.539"/><use href="#19" y="21.71"/><use href="#5" y="23.881"/><use href="#3" y="30.394"/><use href="#5" y="32.565"/><use href="#7" y="39.078"/></svg><svg x="6732"><use href="#a"/><use href="#9"/><use href="#13" y="6.513"/><use href="#14" y="8.684"/><use href="#16" y="10.855"/><use href="#18" y="17.368"/><use href="#14" y="19.539"/><use href="#19" y="21.71"/><use href="#5" y="23.881"/><use href="#3" y="30.394"/><use href="#5" y="32.565"/><use href="#7" y="39.078"/><use href="#8" y="41.249"/></svg><svg x="6864"><use href="#a"/><use href="#b" x="20.996" y="39.053"/><use href="#13" y="4.342"/><use href="#14" y="6.513"/><use href="#16" y="8.684"/><use href="#18" y="15.197"/><use href="#14" y="17.368"/><use href="#19" y="19.539"/><use href="#5" y="21.71"/><use href="#3" y="28.223"/><use href="#5" y="30.394"/><use href="#7" y="36.907"/><use href="#8" y="39.078"/></svg><svg x="6996"><use href="#a"/><use href="#13" y="4.342"/><use href="#14" y="6.513"/><use href="#16" y="8.684"/><use href="#18" y="15.197"/><use href="#14" y="17.368"/><use href="#19" y="19.539"/><use href="#5" y="21.71"/><use href="#3" y="28.223"/><use href="#5" y="30.394"/><use href="#7" y="36.907"/><use href="#9" y="39.078"/></svg><svg x="7128"><use href="#a"/><use href="#13" y="4.342"/><use href="#14" y="6.513"/><use href="#16" y="8.684"/><use href="#18" y="15.197"/><use href="#14" y="17.368"/><use href="#19" y="19.539"/><use href="#5" y="21.71"/><use href="#3" y="28.223"/><use href="#5" y="30.394"/><use href="#7" y="36.907"/><use href="#9" y="39.078"/></svg><svg x="7260"><use href="#a"/><use href="#13" y="4.342"/><use href="#14" y="6.513"/><use href="#16" y="8.684"/><use href="#18" y="15.197"/><use href="#14" y="17.368"/><use href="#19" y="19.539"/><use href="#5" y="21.71"/><use href="#3" y="28.223"/><use href="#5" y="30.394"/><use href="#7" y="36.907"/><use href="#9" y="39.078"/></svg><svg x="7392"><use href="#a"/><use href="#b" x="1.996" y="45.566"/><use href="#13" y="4.342"/><use href="#14" y="6.513"/><use href="#16" y="8.684"/><use href="#18" y="15.197"/><use href="#14" y="17.368"/><use href="#19" y="19.539"/><use href="#5" y="21.71"/><use href="#3" y="28.223"/><use href="#5" y="30.394"/><use href="#7" y="36.907"/><use href="#9" y="39.078"/><use href="#1" y="45.591"/></svg><svg x="7524"><use href="#a"/><use href="#b" x="11.996" y="45.566"/><use href="#13" y="4.342"/><use href="#14" y="6.513"/><use href="#16" y="8.684"/><use href="#18" y="15.197"/><use href="#14" y="17.368"/><use href="#19" y="19.539"/><use href="#5" y="21.71"/><use href="#3" y="28.223"/><use href="#5" y="30.394"/><use href="#7" y="36.907"/><use href="#9" y="39.078"/><use href="#2" y="45.591"/></svg><svg x="7656"><use href="#a"/><use href="#b" x="25.996" y="45.566"/><use href="#13" y="4.342"/><use href="#14" y="6.513"/><use href="#16" y="8.684"/><use href="#18" y="15.197"/><use href="#14" y="17.368"/><use href="#19" y="19.539"/><use href="#5" y="21.71"/><use href="#3" y="28.223"/><use href="#5" y="30.394"/><use href="#7" y="36.907"/><use href="#9" y="39.078"/><use href="#11" y="45.591"/></svg><svg x="7788"><use href="#a"/><use href="#b" x="29.996" y="45.566"/><use href="#13" y="4.342"/><use href="#14" y="6.513"/><use href="#16" y="8.684"/><use href="#18" y="15.197"/><use href="#14" y="17.368"/><use href="#19" y="19.539"/><use href="#5" y="21.71"/><use href="#3" y="28.223"/><use href="#5" y="30.394"/><use href="#7" y="36.907"/><use href="#9" y="39.078"/><use href="#12" y="45.591"/></svg><svg x="7920"><use href="#a"/><use href="#13" y="4.342"/><use href="#14" y="6.513"/><use href="#16" y="8.684"/><use href="#18" y="15.197"/><use href="#14" y="17.368"/><use href="#19" y="19.539"/><use href="#5" y="21.71"/><use href="#3" y="28.223"/><use href="#5" y="30.394"/><use href="#7" y="36.907"/><use href="#9" y="39.078"/><use href="#12" y="45.591"/></svg><svg x="8052"><use href="#a"/><use href="#13" y="4.342"/><use href="#14" y="6.513"/><use href="#16" y="8.684"/><use href="#18" y="15.197"/><use href="#14" y="17.368"/><use href="#19" y="19.539"/><use href="#5" y="21.71"/><use href="#3" y="28.223"/><use href="#5" y="30.394"/><use href="#7" y="36.907"/><use href="#9" y="39.078"/><use href="#13" y="45.591"/></svg><svg x="8184"><use href="#a"/><use href="#13" y="4.342"/><use href="#14" y="6.513"/><use href="#16" y="8.684"/><use href="#18" y="15.197"/><use href="#14" y="17.368"/><use href="#19" y="19.539"/><use href="#5" y="21.71"/><use href="#3" y="28.223"/><use href="#5" y="30.394"/><use href="#7" y="36.907"/><use href="#9" y="39.078"/><use href="#13" y="45.591"/><use href="#14" y="47.762"/><use href="#15" y="49.933"/></svg><svg x="8316"><use href="#a"/><use href="#b" x="13.996" y="47.737"/><use href="#13" y="2.171"/><use href="#14" y="4.342"/><use href="#16" y="6.513"/><use href="#18" y="13.026"/><use href="#14" y="15.197"/><use href="#19" y="17.368"/><use href="#5" y="19.539"/><use href="#3" y="26.052"/><use href="#5" y="28.223"/><use href="#7" y="34.736"/><use href="#9" y="36.907"/><use href="#13" y="43.42"/><use href="#14" y="45.591"/><use href="#15" y="47.762"/></svg><svg x="8448"><use href="#a"/><use href="#13" y="2.171"/><use href="#14" y="4.342"/><use href="#16" y="6.513"/><use href="#18" y="13.026"/><use href="#14" y="15.197"/><use href="#19" y="17.368"/><use href="#5" y="19.539"/><use href="#3" y="26.052"/><use href="#5" y="28.223"/><use href="#7" y="34.736"/><use href="#9" y="36.907"/><use href="#13" y="43.42"/><use href="#14" y="45.591"/><use href="#16" y="47.762"/></svg><svg x="8580"><use href="#a"/><use href="#13" y="2.171"/><use href="#14" y="4.342"/><use href="#16" y="6.513"/><use href="#18" y="13.026"/><use href="#14" y="15.197"/><use href="#19" y="17.368"/><use href="#5" y="19.539"/><use href="#3" y="26.052"/><use href="#5" y="28.223"/><use href="#7" y="34.736"/><use href="#9" y="36.907"/><use href="#13" y="43.42"/><use href="#14" y="45.591"/><use href="#16" y="47.762"/></svg><svg x="8712"><use href="#a"/><use href="#b" x="1.996" y="54.25"/><use href="#13" y="2.171"/><use href="#14" y="4.342"/><use href="#16" y="6.513"/><use href="#18" y="13.026"/><use href="#14" y="15.197"/><use href="#19" y="17.368"/><use href="#5" y="19.539"/><use href="#3" y="26.052"/><use href="#5" y="28.223"/><use href="#7" y="34.736"/><use href="#9" y="36.907"/><use href="#13" y="43.42"/><use href="#14" y="45.591"/><use href="#16" y="47.762"/><use href="#1" y="54.275"/></svg><svg x="8844"><use href="#a"/><use href="#b" x="15.996" y="54.25"/><use href="#13" y="2.171"/><use href="#14" y="4.342"/><use href="#16" y="6.513"/><use href="#18" y="13.026"/><use href="#14" y="15.197"/><use href="#19" y="17.368"/><use href="#5" y="19.539"/><use href="#3" y="26.052"/><use href="#5" y="28.223"/><use href="#7" y="34.736"/><use href="#9" y="36.907"/><use href="#13" y="43.42"/><use href="#14" y="45.591"/><use href="#16" y="47.762"/><use href="#10" y="54.275"/></svg><svg x="8976"><use href="#a"/><use href="#b" x="25.996" y="54.25"/><use href="#13" y="2.171"/><use href="#14" y="4.342"/><use href="#16" y="6.513"/><use href="#18" y="13.026"/><use href="#14" y="15.197"/><use href="#19" y="17.368"/><use href="#5" y="19.539"/><use href="#3" y="26.052"/><use href="#5" y="28.223"/><use href="#7" y="34.736"/><use href="#9" y="36.907"/><use href="#13" y="43.42"/><use href="#14" y="45.591"/><use href="#16" y="47.762"/><use href="#11" y="54.275"/></svg><svg x="9108"><use href="#a"/><use href="#b" x="31.996" y="54.25"/><use href="#13" y="2.171"/><use href="#14" y="4.342"/><use href="#16" y="6.513"/><use href="#18" y="13.026"/><use href="#14" y="15.197"/><use href="#19" y="17.368"/><use href="#5" y="19.539"/><use href="#3" y="26.052"/><use href="#5" y="28.223"/><use href="#7" y="34.736"/><use href="#9" y="36.907"/><use href="#13" y="43.42"/><use href="#14" y="45.591"/><use href="#16" y="47.762"/><use href="#17" y="54.275"/></svg><svg x="9240"><use href="#a"/><use href="#13" y="2.171"/><use href="#14" y="4.342"/><use href="#16" y="6.513"/><use href="#18" y="13.026"/><use href="#14" y="15.197"/><use href="#19" y="17.368"/><use href="#5" y="19.539"/><use href="#3" y="26.052"/><use href="#5" y="28.223"/><use href="#7" y="34.736"/><use href="#9" y="36.907"/><use href="#13" y="43.42"/><use href="#14" y="45.591"/><use href="#16" y="47.762"/><use href="#17" y="54.275"/></svg><svg x="9372"><use href="#a"/><use href="#13"/><use href="#14" y="2.171"/><use href="#16" y="4.342"/><use href="#18" y="10.855"/><use href="#14" y="13.026"/><use href="#19" y="15.197"/><use href="#5" y="17.368"/><use href="#3" y="23.881"/><use href="#5" y="26.052"/><use href="#7" y="32.565"/><use href="#9" y="34.736"/><use href="#13" y="41.249"/><use href="#14" y="43.42"/><use href="#16" y="45.591"/><use href="#18" y="52.104"/></svg><svg x="9504"><use href="#a"/><use href="#b" x="33.996" y="52.079"/><use href="#18" y="4.342"/><use href="#14" y="6.513"/><use href="#19" y="8.684"/><use href="#5" y="10.855"/><use href="#3" y="17.368"/><use href="#5" y="19.539"/><use href="#7" y="26.052"/><use href="#9" y="28.223"/><use href="#13" y="34.736"/><use href="#14" y="36.907"/><use href="#16" y="39.078"/><use href="#18" y="45.591"/><use href="#14" y="47.762"/><use href="#19" y="49.933"/><use href="#4" y="52.104"/></svg><svg x="9636"><use href="#a"/><use href="#18" y="4.342"/><use href="#14" y="6.513"/><use href="#19" y="8.684"/><use href="#5" y="10.855"/><use href="#3" y="17.368"/><use href="#5" y="19.539"/><use href="#7" y="26.052"/><use href="#9" y="28.223"/><use href="#13" y="34.736"/><use href="#14" y="36.907"/><use href="#16" y="39.078"/><use href="#18" y="45.591"/><use href="#14" y="47.762"/><use href="#19" y="49.933"/><use href="#5" y="52.104"/></svg><svg x="9768"><use href="#a"/><use href="#18" y="2.171"/><use href="#14" y="4.342"/><use href="#19" y="6.513"/><use href="#5" y="8.684"/><use href="#3" y="15.197"/><use href="#5" y="17.368"/><use href="#7" y="23.881"/><use href="#9" y="26.052"/><use href="#13" y="32.565"/><use href="#14" y="34.736"/><use href="#16" y="36.907"/><use href="#18" y="43.42"/><use href="#14" y="45.591"/><use href="#19" y="47.762"/><use href="#5" y="49.933"/></svg><svg x="9900"><use href="#a"/><use href="#18"/><use href="#14" y="2.171"/><use href="#19" y="4.342"/><use href="#5" y="6.513"/><use href="#3" y="13.026"/><use href="#5" y="15.197"/><use href="#7" y="21.71"/><use href="#9" y="23.881"/><use href="#13" y="30.394"/><use href="#14" y="32.565"/><use href="#16" y="34.736"/><use href="#18" y="41.249"/><use href="#14" y="43.42"/><use href="#19" y="45.591"/><use href="#5" y="47.762"/></svg><svg x="10032"><use href="#a"/><use href="#18"/><use href="#14" y="2.171"/><use href="#19" y="4.342"/><use href="#5" y="6.513"/><use href="#3" y="13.026"/><use href="#5" y="15.197"/><use href="#7" y="21.71"/><use href="#9" y="23.881"/><use href="#13" y="30.394"/><use href="#14" y="32.565"/><use href="#16" y="34.736"/><use href="#18" y="41.249"/><use href="#14" y="43.42"/><use href="#19" y="45.591"/><use href="#5" y="47.762"/><use href="#20" y="54.275"/></svg><svg x="10164"><use href="#a"/><use href="#b" x="-.004" y="54.25"/><use href="#18"/><use href="#14" y="2.171"/><use href="#19" y="4.342"/><use href="#5" y="6.513"/><use href="#3" y="13.026"/><use href="#5" y="15.197"/><use href="#7" y="21.71"/><use href="#9" y="23.881"/><use href="#13" y="30.394"/><use href="#14" y="32.565"/><use href="#16" y="34.736"/><use href="#18" y="41.249"/><use href="#14" y="43.42"/><use href="#19" y="45.591"/><use href="#5" y="47.762"/><use href="#20" y="54.275"/></svg><svg x="10296"><use href="#a"/><use href="#18"/><use href="#14" y="2.171"/><use href="#19" y="4.342"/><use href="#5" y="6.513"/><use href="#3" y="13.026"/><use href="#5" y="15.197"/><use href="#7" y="21.71"/><use href="#9" y="23.881"/><use href="#13" y="30.394"/><use href="#14" y="32.565"/><use href="#16" y="34.736"/><use href="#18" y="41.249"/><use href="#14" y="43.42"/><use href="#19" y="45.591"/><use href="#5" y="47.762"/><use href="#21" y="54.275"/></svg><svg x="10428"><use href="#a"/><use href="#b" x="-.004" y="54.25"/><use href="#18"/><use href="#14" y="2.171"/><use href="#19" y="4.342"/><use href="#5" y="6.513"/><use href="#3" y="13.026"/><use href="#5" y="15.197"/><use href="#7" y="21.71"/><use href="#9" y="23.881"/><use href="#13" y="30.394"/><use href="#14" y="32.565"/><use href="#16" y="34.736"/><use href="#18" y="41.249"/><use href="#14" y="43.42"/><use href="#19" y="45.591"/><use href="#5" y="47.762"/><use href="#21" y="54.275"/></svg><svg x="10560"><use href="#a"/><use href="#18"/><use href="#14" y="2.171"/><use href="#19" y="4.342"/><use href="#5" y="6.513"/><use href="#3" y="13.026"/><use href="#5" y="15.197"/><use href="#7" y="21.71"/><use href="#9" y="23.881"/><use href="#13" y="30.394"/><use href="#14" y="32.565"/><use href="#16" y="34.736"/><use href="#18" y="41.249"/><use href="#14" y="43.42"/><use href="#19" y="45.591"/><use href="#5" y="47.762"/><use href="#22" y="54.275"/></svg><svg x="10692"><use href="#a"/><use href="#b" x="-.004" y="54.25"/><use href="#18"/><use href="#14" y="2.171"/><use href="#19" y="4.342"/><use href="#5" y="6.513"/><use href="#3" y="13.026"/><use href="#5" y="15.197"/><use href="#7" y="21.71"/><use href="#9" y="23.881"/><use href="#13" y="30.394"/><use href="#14" y="32.565"/><use href="#16" y="34.736"/><use href="#18" y="41.249"/><use href="#14" y="43.42"/><use href="#19" y="45.591"/><use href="#5" y="47.762"/><use href="#22" y="54.275"/></svg><svg x="10824"><use href="#a"/><use href="#18"/><use href="#14" y="2.171"/><use href="#19" y="4.342"/><use href="#5" y="6.513"/><use href="#3" y="13.026"/><use href="#5" y="15.197"/><use href="#7" y="21.71"/><use href="#9" y="23.881"/><use href="#13" y="30.394"/><use href="#14" y="32.565"/><use href="#16" y="34.736"/><use href="#18" y="41.249"/><use href="#14" y="43.42"/><use href="#19" y="45.591"/><use href="#5" y="47.762"/><use href="#23" y="54.275"/></svg><svg x="10956"><use href="#a"/><use href="#b" x="-.004" y="54.25"/><use href="#18"/><use href="#14" y="2.171"/><use href="#19" y="4.342"/><use href="#5" y="6.513"/><use href="#3" y="13.026"/><use href="#5" y="15.197"/><use href="#7" y="21.71"/><use href="#9" y="23.881"/><use href="#13" y="30.394"/><use href="#14" y="32.565"/><use href="#16" y="34.736"/><use href="#18" y="41.249"/><use href="#14" y="43.42"/><use href="#19" y="45.591"/><use href="#5" y="47.762"/><use href="#23" y="54.275"/></svg><svg x="11088"><use href="#a"/><use href="#18"/><use href="#14" y="2.171"/><use href="#19" y="4.342"/><use href="#5" y="6.513"/><use href="#3" y="13.026"/><use href="#5" y="15.197"/><use href="#7" y="21.71"/><use href="#9" y="23.881"/><use href="#13" y="30.394"/><use href="#14" y="32.565"/><use href="#16" y="34.736"/><use href="#18" y="41.249"/><use href="#14" y="43.42"/><use href="#19" y="45.591"/><use href="#5" y="47.762"/><use href="#23" y="54.275"/></svg><svg x="11220"><use href="#a"/><use href="#18"/><use href="#14" y="2.171"/><use href="#19" y="4.342"/><use href="#5" y="6.513"/><use href="#3" y="13.026"/><use href="#5" y="15.197"/><use href="#7" y="21.71"/><use href="#9" y="23.881"/><use href="#13" y="30.394"/><use href="#14" y="32.565"/><use href="#16" y="34.736"/><use href="#18" y="41.249"/><use href="#14" y="43.42"/><use href="#19" y="45.591"/><use href="#5" y="47.762"/><use href="#24" y="54.275"/></svg><svg x="11352"><use href="#a"/><use href="#b" x="-.004" y="54.25"/><use href="#18"/><use href="#14" y="2.171"/><use href="#19" y="4.342"/><use href="#5" y="6.513"/><use href="#3" y="13.026"/><use href="#5" y="15.197"/><use href="#7" y="21.71"/><use href="#9" y="23.881"/><use href="#13" y="30.394"/><use href="#14" y="32.565"/><use href="#16" y="34.736"/><use href="#18" y="41.249"/><use href="#14" y="43.42"/><use href="#19" y="45.591"/><use href="#5" y="47.762"/><use href="#24" y="54.275"/></svg><svg x="11484"><use href="#a"/><use href="#18"/><use href="#14" y="2.171"/><use href="#19" y="4.342"/><use href="#5" y="6.513"/><use href="#3" y="13.026"/><use href="#5" y="15.197"/><use href="#7" y="21.71"/><use href="#9" y="23.881"/><use href="#13" y="30.394"/><use href="#14" y="32.565"/><use href="#16" y="34.736"/><use href="#18" y="41.249"/><use href="#14" y="43.42"/><use href="#19" y="45.591"/><use href="#5" y="47.762"/><use href="#24" y="54.275"/></svg><svg x="11616"><use href="#a"/><use href="#b" x="-.004" y="54.25"/><use href="#18"/><use href="#14" y="2.171"/><use href="#19" y="4.342"/><use href="#5" y="6.513"/><use href="#3" y="13.026"/><use href="#5" y="15.197"/><use href="#7" y="21.71"/><use href="#9" y="23.881"/><use href="#13" y="30.394"/><use href="#14" y="32.565"/><use href="#16" y="34.736"/><use href="#18" y="41.249"/><use href="#14" y="43.42"/><use href="#19" y="45.591"/><use href="#5" y="47.762"/><use href="#24" y="54.275"/></svg></svg></g><svg height="100%" width="100%" viewBox="0 0 100 100" class="container_end"><text text-anchor="middle" alignment-baseline="central"><tspan y="50" x="50" style="font-size: 50px;">❚❚</tspan></text></svg></g></svg></svg>
