<svg xmlns="http://www.w3.org/2000/svg" width="1400" height="642.75"><rect width="1400" height="642.75" rx="5" ry="5" class="a"/><svg y="0%" x="0%"><circle cx="20" cy="20" r="6" fill="#ff5f58"/><circle cx="40" cy="20" r="6" fill="#ffbd2e"/><circle cx="60" cy="20" r="6" fill="#18c132"/></svg><svg height="542.75" viewBox="0 0 132 54.275" width="1320" x="35" xmlns="http://www.w3.org/2000/svg" y="70"><style>a{cursor:help}a>text{text-decoration:underline dashed}.inserted-lf{fill:#999999;fill-opacity:.75;font-variant-position:sub;font-size:75%}.container{font-family:'JetBrains Mono','Monaco','Consolas','Menlo','Bitstream Vera Sans Mono','Lucida Console','Ubuntu Mono','Meslo for Powerline','Meslo LG M for Powerline','Powerline Symbols','Monospace','monospace'}.container>g{animation-play-state:running}.container_end{fill:whitesmoke;mix-blend-mode:soft-light;opacity:0;transition:opacity .2s ease-in-out}.container:hover>g{animation-play-state:paused}.container{pointer-events:all}.container:hover{cursor:wait}.container:hover>.container_end{opacity:1}.container>g>svg>svg>*{transform: scaleY(.95);}@keyframes o{0%{transform:translateX(0)}.08%{transform:translateX(-132px)}2.45%{transform:translateX(-264px)}2.46%{transform:translateX(-396px)}6.57%{transform:translateX(-528px)}8.71%{transform:translateX(-660px)}10.69%{transform:translateX(-792px)}12.09%{transform:translateX(-1056px)}12.1%{transform:translateX(-1188px)}12.11%{transform:translateX(-1320px)}12.14%{transform:translateX(-1584px)}16.28%{transform:translateX(-1716px)}16.46%{transform:translateX(-1848px)}18.62%{transform:translateX(-1980px)}20.6%{transform:translateX(-2112px)}21.67%{transform:translateX(-2376px)}21.68%{transform:translateX(-2508px)}21.71%{transform:translateX(-2772px)}25.83%{transform:translateX(-2904px)}26%{transform:translateX(-3036px)}26.17%{transform:translateX(-3168px)}28.33%{transform:translateX(-3300px)}30.31%{transform:translateX(-3432px)}31.31%{transform:translateX(-3696px)}31.32%{transform:translateX(-3828px)}31.35%{transform:translateX(-4092px)}35.47%{transform:translateX(-4224px)}35.64%{transform:translateX(-4356px)}35.81%{transform:translateX(-4488px)}37.98%{transform:translateX(-4620px)}39.98%{transform:translateX(-5148px)}40.9%{transform:translateX(-5544px)}40.91%{transform:translateX(-5676px)}40.95%{transform:translateX(-5808px)}40.96%{transform:translateX(-5940px)}45.07%{transform:translateX(-6072px)}47.23%{transform:translateX(-6204px)}49.21%{transform:translateX(-6336px)}50.48%{transform:translateX(-6600px)}50.49%{transform:translateX(-6732px)}50.54%{transform:translateX(-6996px)}54.65%{transform:translateX(-7128px)}54.82%{transform:translateX(-7260px)}56.96%{transform:translateX(-7392px)}58.94%{transform:translateX(-7656px)}60.37%{transform:translateX(-7920px)}60.39%{transform:translateX(-8052px)}60.48%{transform:translateX(-8316px)}64.6%{transform:translateX(-8448px)}64.77%{transform:translateX(-8580px)}64.94%{transform:translateX(-8712px)}67.13%{transform:translateX(-8844px)}69.11%{transform:translateX(-8976px)}70.25%{transform:translateX(-9240px)}70.26%{transform:translateX(-9504px)}70.31%{transform:translateX(-10032px)}74.45%{transform:translateX(-10164px)}74.62%{transform:translateX(-10296px)}74.78%{transform:translateX(-10428px)}76.93%{transform:translateX(-10560px)}78.91%{transform:translateX(-10824px)}80.17%{transform:translateX(-10956px)}80.18%{transform:translateX(-11088px)}80.2%{transform:translateX(-11220px)}80.26%{transform:translateX(-11616px)}82.25%{transform:translateX(-11748px)}84.23%{transform:translateX(-12012px)}86.21%{transform:translateX(-12144px)}88.21%{transform:translateX(-12276px)}90.2%{transform:translateX(-12408px)}92.09%{transform:translateX(-12540px)}94.07%{transform:translateX(-12672px)}96.05%{transform:translateX(-12804px)}98.02%{transform:translateX(-12936px)}to{transform:translateX(-13068px)}}.a{fill:#2d2d2d}.f{fill:#dcdcdc;white-space:pre}.g{fill:#6e6e6e}.g,.h,.i{white-space:pre}.h{fill:#c6c6c6;font-weight:700}.i{fill:#69b745}.j{fill:#c21e73}.j,.k,.l{white-space:pre}.k{fill:#c21e73;font-weight:700}.l{fill:#b0b0b0}</style><g class="container" font-size="1.67"><defs><symbol id="15"><text y="1.67" class="f">❱</text><text x="2.004" y="1.67" class="f">prompt4</text><text x="10.02" y="1.67" class="f">Y/n</text><text x="14.028" y="1.67" class="f">%s\\n</text><text x="20.04" y="1.67" class="f">Mult</text></symbol><symbol id="1"><text y="1.67" class="f">❱</text></symbol><symbol id="3"><text y="1.67" class="g">❱</text><text x="2.004" y="1.67" class="g">prompt4</text><text x="10.02" y="1.67" class="g">Y/n</text></symbol><symbol id="4"><text x="3.006" y="1.67" class="h">Do</text><text x="6.012" y="1.67" class="h">you</text><text x="10.02" y="1.67" class="h">want</text><text x="15.03" y="1.67" class="h">to</text><text x="18.036" y="1.67" class="h">continue?</text><text x="28.056" y="1.67" class="h">[Y/n]</text></symbol><symbol id="5"><text x="1.002" y="1.67" class="i">✔</text><text x="3.006" y="1.67" class="h">Do</text><text x="6.012" y="1.67" class="h">you</text><text x="10.02" y="1.67" class="h">want</text><text x="15.03" y="1.67" class="h">to</text><text x="18.036" y="1.67" class="h">continue?</text><text x="28.056" y="1.67" class="h">[Y/n]</text><text x="34.068" y="1.67" class="h">yes</text></symbol><symbol id="6"><text y="1.67" class="f">❱</text><text x="2.004" y="1.67" class="f">prompt4</text><text x="10.02" y="1.67" class="f">Y/n</text><text x="14.028" y="1.67" class="f">Single\</text><text x="22.044" y="1.67" class="f">line</text></symbol><symbol id="7"><text y="1.67" class="g">❱</text><text x="2.004" y="1.67" class="g">prompt4</text><text x="10.02" y="1.67" class="g">Y/n</text><text x="14.028" y="1.67" class="g">Single\</text><text x="22.044" y="1.67" class="g">line</text></symbol><symbol id="8"><text x="3.006" y="1.67" class="h">Single</text><text x="10.02" y="1.67" class="h">line</text><text x="15.03" y="1.67" class="h">[Y/n]</text></symbol><symbol id="9"><text x="1.002" y="1.67" class="i">✔</text><text x="3.006" y="1.67" class="h">Single</text><text x="10.02" y="1.67" class="h">line</text><text x="15.03" y="1.67" class="h">[Y/n]</text><text x="21.042" y="1.67" class="h">yes</text></symbol><symbol id="10"><text y="1.67" class="f">❱</text><text x="2.004" y="1.67" class="f">prompt4</text><text x="10.02" y="1.67" class="f">Y/n</text><text x="14.028" y="1.67" class="f">%s\\n</text><text x="20.04" y="1.67" class="f">Multi-</text><text x="27.054" y="1.67" class="f">line</text></symbol><symbol id="11"><text y="1.67" class="g">❱</text><text x="2.004" y="1.67" class="g">prompt4</text><text x="10.02" y="1.67" class="g">Y/n</text><text x="14.028" y="1.67" class="g">%s\\n</text><text x="20.04" y="1.67" class="g">Multi-</text><text x="27.054" y="1.67" class="g">line</text></symbol><symbol id="12"><text x="3.006" y="1.67" class="h">Multi-</text></symbol><symbol id="13"><text x="3.006" y="1.67" class="h">line</text><text x="8.016" y="1.67" class="h">[Y/n]</text></symbol><symbol id="14"><text x="1.002" y="1.67" class="i">✔</text><text x="3.006" y="1.67" class="h">line</text><text x="8.016" y="1.67" class="h">[Y/n]</text><text x="14.028" y="1.67" class="h">yes</text></symbol><symbol id="2"><text y="1.67" class="f">❱</text><text x="2.004" y="1.67" class="f">prompt4</text><text x="10.02" y="1.67" class="f">Y/n</text></symbol><symbol id="16"><text y="1.67" class="f">❱</text><text x="2.004" y="1.67" class="f">prompt4</text><text x="10.02" y="1.67" class="f">Y/n</text><text x="14.028" y="1.67" class="f">%s\\n</text><text x="20.04" y="1.67" class="f">Multi-</text><text x="27.054" y="1.67" class="f">line</text><text x="32.064" y="1.67" class="f">-</text></symbol><symbol id="17"><text y="1.67" class="g">❱</text><text x="2.004" y="1.67" class="g">prompt4</text><text x="10.02" y="1.67" class="g">Y/n</text><text x="14.028" y="1.67" class="g">%s\\n</text><text x="20.04" y="1.67" class="g">Multi-</text><text x="27.054" y="1.67" class="g">line</text><text x="32.064" y="1.67" class="g">-</text></symbol><symbol id="18"><text x="3.006" y="1.67" class="h">line</text></symbol><symbol id="19"><text x="1.002" y="1.67" class="j">✘</text><text x="3.006" y="1.67" class="h">Do</text><text x="6.012" y="1.67" class="h">you</text><text x="10.02" y="1.67" class="h">want</text><text x="15.03" y="1.67" class="h">to</text><text x="18.036" y="1.67" class="h">continue?</text><text x="28.056" y="1.67" class="h">[Y/n]</text><text x="34.068" y="1.67" class="h">no</text></symbol><symbol id="20"><text x="1.002" y="1.67" class="j">✘</text><text x="3.006" y="1.67" class="h">Do</text><text x="6.012" y="1.67" class="h">you</text><text x="10.02" y="1.67" class="h">want</text><text x="15.03" y="1.67" class="h">to</text><text x="18.036" y="1.67" class="h">continue?</text><text x="28.056" y="1.67" class="h">[Y/n]</text><text x="34.068" y="1.67" class="h">no</text><text x="127.254" y="1.67" class="k">10</text><text x="130.26" y="1.67" class="k">↩</text></symbol><symbol id="21"><text x="1.002" y="1.67" class="j">✘</text><text x="3.006" y="1.67" class="h">Single</text><text x="10.02" y="1.67" class="h">line</text><text x="15.03" y="1.67" class="h">[Y/n]</text><text x="21.042" y="1.67" class="h">no</text><text x="127.254" y="1.67" class="k">10</text><text x="130.26" y="1.67" class="k">↩</text></symbol><symbol id="22"><text x="1.002" y="1.67" class="j">✘</text><text x="3.006" y="1.67" class="h">line</text><text x="8.016" y="1.67" class="h">[Y/n]</text><text x="14.028" y="1.67" class="h">no</text><text x="127.254" y="1.67" class="k">10</text><text x="130.26" y="1.67" class="k">↩</text></symbol><symbol id="23"><text y="1.67" class="l">5</text></symbol><symbol id="24"><text y="1.67" class="l">4</text></symbol><symbol id="25"><text y="1.67" class="l">3</text></symbol><symbol id="26"><text y="1.67" class="l">2</text></symbol><symbol id="27"><text y="1.67" class="l">1</text></symbol><symbol id="a"><path fill="transparent" d="M0 0h132v26H0z"/></symbol><symbol id="b"><path fill="silver" d="M0 0h1.102v2.171H0z"/></symbol></defs><path class="a" d="M0 0h132v54.275H0z"/><g style="animation-duration:25.409613s;animation-iteration-count:infinite;animation-name:o;animation-timing-function:steps(1,end)"><svg width="13200"><svg><use href="#a"/><use href="#b" x="-.004"/></svg><svg x="132"><use href="#a"/><use href="#b" x="-.004"/></svg><svg x="264"><use href="#a"/></svg><svg x="396"><use href="#a"/><use href="#b" x="1.996"/><use href="#1"/></svg><svg x="528"><use href="#a"/><use href="#b" x="12.996"/><use href="#2"/></svg><svg x="660"><use href="#a"/><use href="#2"/></svg><svg x="792"><use href="#a"/><use href="#3"/></svg><svg x="924"><use href="#a"/><use href="#3"/></svg><svg x="1056"><use href="#a"/><use href="#3"/></svg><svg x="1188"><use href="#a"/><use href="#3"/><use href="#4" y="2.171"/></svg><svg x="1320"><use href="#a"/><use href="#3"/><use href="#5" y="2.171"/></svg><svg x="1452"><use href="#a"/><use href="#3"/><use href="#5" y="2.171"/></svg><svg x="1584"><use href="#a"/><use href="#b" x="1.996" y="6.488"/><use href="#3"/><use href="#5" y="2.171"/><use href="#1" y="6.513"/></svg><svg x="1716"><use href="#a"/><use href="#b" x="13.996" y="6.488"/><use href="#3"/><use href="#5" y="2.171"/><use href="#2" y="6.513"/></svg><svg x="1848"><use href="#a"/><use href="#b" x="25.996" y="6.488"/><use href="#3"/><use href="#5" y="2.171"/><use href="#6" y="6.513"/></svg><svg x="1980"><use href="#a"/><use href="#3"/><use href="#5" y="2.171"/><use href="#6" y="6.513"/></svg><svg x="2112"><use href="#a"/><use href="#3"/><use href="#5" y="2.171"/><use href="#7" y="6.513"/></svg><svg x="2244"><use href="#a"/><use href="#3"/><use href="#5" y="2.171"/><use href="#7" y="6.513"/></svg><svg x="2376"><use href="#a"/><use href="#3"/><use href="#5" y="2.171"/><use href="#7" y="6.513"/><use href="#8" y="8.684"/></svg><svg x="2508"><use href="#a"/><use href="#3"/><use href="#5" y="2.171"/><use href="#7" y="6.513"/><use href="#9" y="8.684"/></svg><svg x="2640"><use href="#a"/><use href="#3"/><use href="#5" y="2.171"/><use href="#7" y="6.513"/><use href="#9" y="8.684"/></svg><svg x="2772"><use href="#a"/><use href="#b" x="1.996" y="15.172"/><use href="#3"/><use href="#5" y="2.171"/><use href="#7" y="6.513"/><use href="#9" y="8.684"/><use href="#1" y="15.197"/></svg><svg x="2904"><use href="#a"/><use href="#b" x="12.996" y="15.172"/><use href="#3"/><use href="#5" y="2.171"/><use href="#7" y="6.513"/><use href="#9" y="8.684"/><use href="#2" y="15.197"/></svg><svg x="3036"><use href="#a"/><use href="#b" x="24.996" y="15.172"/><use href="#3"/><use href="#5" y="2.171"/><use href="#7" y="6.513"/><use href="#9" y="8.684"/><text y="16.867" class="f">❱</text><text x="2.004" y="16.867" class="f">prompt4</text><text x="10.02" y="16.867" class="f">Y/n</text><text x="14.028" y="16.867" class="f">%s\\n</text><text x="20.04" y="16.867" class="f">Multi</text></svg><svg x="3168"><use href="#a"/><use href="#b" x="30.996" y="15.172"/><use href="#3"/><use href="#5" y="2.171"/><use href="#7" y="6.513"/><use href="#9" y="8.684"/><use href="#10" y="15.197"/></svg><svg x="3300"><use href="#a"/><use href="#3"/><use href="#5" y="2.171"/><use href="#7" y="6.513"/><use href="#9" y="8.684"/><use href="#10" y="15.197"/></svg><svg x="3432"><use href="#a"/><use href="#3"/><use href="#5" y="2.171"/><use href="#7" y="6.513"/><use href="#9" y="8.684"/><use href="#11" y="15.197"/></svg><svg x="3564"><use href="#a"/><use href="#3"/><use href="#5" y="2.171"/><use href="#7" y="6.513"/><use href="#9" y="8.684"/><use href="#11" y="15.197"/></svg><svg x="3696"><use href="#a"/><use href="#3"/><use href="#5" y="2.171"/><use href="#7" y="6.513"/><use href="#9" y="8.684"/><use href="#11" y="15.197"/><use href="#12" y="17.368"/><use href="#13" y="19.539"/></svg><svg x="3828"><use href="#a"/><use href="#3"/><use href="#5" y="2.171"/><use href="#7" y="6.513"/><use href="#9" y="8.684"/><use href="#11" y="15.197"/><use href="#12" y="17.368"/><use href="#14" y="19.539"/></svg><svg x="3960"><use href="#a"/><use href="#3"/><use href="#5" y="2.171"/><use href="#7" y="6.513"/><use href="#9" y="8.684"/><use href="#11" y="15.197"/><use href="#12" y="17.368"/><use href="#14" y="19.539"/></svg><svg x="4092"><use href="#a"/><use href="#b" x="1.996" y="26.027"/><use href="#3"/><use href="#5" y="2.171"/><use href="#7" y="6.513"/><use href="#9" y="8.684"/><use href="#11" y="15.197"/><use href="#12" y="17.368"/><use href="#14" y="19.539"/><use href="#1" y="26.052"/></svg><svg x="4224"><use href="#a"/><use href="#b" x="13.996" y="26.027"/><use href="#3"/><use href="#5" y="2.171"/><use href="#7" y="6.513"/><use href="#9" y="8.684"/><use href="#11" y="15.197"/><use href="#12" y="17.368"/><use href="#14" y="19.539"/><use href="#2" y="26.052"/></svg><svg x="4356"><use href="#a"/><use href="#b" x="23.996" y="26.027"/><use href="#3"/><use href="#5" y="2.171"/><use href="#7" y="6.513"/><use href="#9" y="8.684"/><use href="#11" y="15.197"/><use href="#12" y="17.368"/><use href="#14" y="19.539"/><use href="#15" y="26.052"/></svg><svg x="4488"><use href="#a"/><use href="#b" x="32.996" y="26.027"/><use href="#3"/><use href="#5" y="2.171"/><use href="#7" y="6.513"/><use href="#9" y="8.684"/><use href="#11" y="15.197"/><use href="#12" y="17.368"/><use href="#14" y="19.539"/><use href="#16" y="26.052"/></svg><svg x="4620"><use href="#a"/><use href="#3"/><use href="#5" y="2.171"/><use href="#7" y="6.513"/><use href="#9" y="8.684"/><use href="#11" y="15.197"/><use href="#12" y="17.368"/><use href="#14" y="19.539"/><use href="#16" y="26.052"/></svg><svg x="4752"><use href="#a"/><use href="#b" x="32.996" y="26.027"/><use href="#3"/><use href="#5" y="2.171"/><use href="#7" y="6.513"/><use href="#9" y="8.684"/><use href="#11" y="15.197"/><use href="#12" y="17.368"/><use href="#14" y="19.539"/><use href="#16" y="26.052"/></svg><svg x="4884"><use href="#a"/><use href="#b" x="32.996" y="26.027"/><use href="#3"/><use href="#5" y="2.171"/><use href="#7" y="6.513"/><use href="#9" y="8.684"/><use href="#11" y="15.197"/><use href="#12" y="17.368"/><use href="#14" y="19.539"/><use href="#17" y="26.052"/></svg><svg x="5016"><use href="#a"/><use href="#b" x="-.004" y="28.198"/><use href="#3"/><use href="#5" y="2.171"/><use href="#7" y="6.513"/><use href="#9" y="8.684"/><use href="#11" y="15.197"/><use href="#12" y="17.368"/><use href="#14" y="19.539"/><use href="#17" y="26.052"/></svg><svg x="5148"><use href="#a"/><use href="#3"/><use href="#5" y="2.171"/><use href="#7" y="6.513"/><use href="#9" y="8.684"/><use href="#11" y="15.197"/><use href="#12" y="17.368"/><use href="#14" y="19.539"/><use href="#17" y="26.052"/></svg><svg x="5280"><use href="#a"/><use href="#3"/><use href="#5" y="2.171"/><use href="#7" y="6.513"/><use href="#9" y="8.684"/><use href="#11" y="15.197"/><use href="#12" y="17.368"/><use href="#14" y="19.539"/><use href="#17" y="26.052"/></svg><svg x="5412"><use href="#a"/><use href="#3"/><use href="#5" y="2.171"/><use href="#7" y="6.513"/><use href="#9" y="8.684"/><use href="#11" y="15.197"/><use href="#12" y="17.368"/><use href="#14" y="19.539"/><use href="#17" y="26.052"/></svg><svg x="5544"><use href="#a"/><use href="#3"/><use href="#5" y="2.171"/><use href="#7" y="6.513"/><use href="#9" y="8.684"/><use href="#11" y="15.197"/><use href="#12" y="17.368"/><use href="#14" y="19.539"/><use href="#17" y="26.052"/><use href="#12" y="28.223"/><use href="#18" y="30.394"/><use href="#4" y="32.565"/></svg><svg x="5676"><use href="#a"/><use href="#3"/><use href="#5" y="2.171"/><use href="#7" y="6.513"/><use href="#9" y="8.684"/><use href="#11" y="15.197"/><use href="#12" y="17.368"/><use href="#14" y="19.539"/><use href="#17" y="26.052"/><use href="#12" y="28.223"/><use href="#18" y="30.394"/><use href="#5" y="32.565"/></svg><svg x="5808"><use href="#a"/><use href="#3"/><use href="#5" y="2.171"/><use href="#7" y="6.513"/><use href="#9" y="8.684"/><use href="#11" y="15.197"/><use href="#12" y="17.368"/><use href="#14" y="19.539"/><use href="#17" y="26.052"/><use href="#12" y="28.223"/><use href="#18" y="30.394"/><use href="#5" y="32.565"/></svg><svg x="5940"><use href="#a"/><use href="#b" x="1.996" y="39.053"/><use href="#3"/><use href="#5" y="2.171"/><use href="#7" y="6.513"/><use href="#9" y="8.684"/><use href="#11" y="15.197"/><use href="#12" y="17.368"/><use href="#14" y="19.539"/><use href="#17" y="26.052"/><use href="#12" y="28.223"/><use href="#18" y="30.394"/><use href="#5" y="32.565"/><use href="#1" y="39.078"/></svg><svg x="6072"><use href="#a"/><use href="#b" x="12.996" y="39.053"/><use href="#3"/><use href="#5" y="2.171"/><use href="#7" y="6.513"/><use href="#9" y="8.684"/><use href="#11" y="15.197"/><use href="#12" y="17.368"/><use href="#14" y="19.539"/><use href="#17" y="26.052"/><use href="#12" y="28.223"/><use href="#18" y="30.394"/><use href="#5" y="32.565"/><use href="#2" y="39.078"/></svg><svg x="6204"><use href="#a"/><use href="#3"/><use href="#5" y="2.171"/><use href="#7" y="6.513"/><use href="#9" y="8.684"/><use href="#11" y="15.197"/><use href="#12" y="17.368"/><use href="#14" y="19.539"/><use href="#17" y="26.052"/><use href="#12" y="28.223"/><use href="#18" y="30.394"/><use href="#5" y="32.565"/><use href="#2" y="39.078"/></svg><svg x="6336"><use href="#a"/><use href="#3"/><use href="#5" y="2.171"/><use href="#7" y="6.513"/><use href="#9" y="8.684"/><use href="#11" y="15.197"/><use href="#12" y="17.368"/><use href="#14" y="19.539"/><use href="#17" y="26.052"/><use href="#12" y="28.223"/><use href="#18" y="30.394"/><use href="#5" y="32.565"/><use href="#3" y="39.078"/></svg><svg x="6468"><use href="#a"/><use href="#3"/><use href="#5" y="2.171"/><use href="#7" y="6.513"/><use href="#9" y="8.684"/><use href="#11" y="15.197"/><use href="#12" y="17.368"/><use href="#14" y="19.539"/><use href="#17" y="26.052"/><use href="#12" y="28.223"/><use href="#18" y="30.394"/><use href="#5" y="32.565"/><use href="#3" y="39.078"/></svg><svg x="6600"><use href="#a"/><use href="#3"/><use href="#5" y="2.171"/><use href="#7" y="6.513"/><use href="#9" y="8.684"/><use href="#11" y="15.197"/><use href="#12" y="17.368"/><use href="#14" y="19.539"/><use href="#17" y="26.052"/><use href="#12" y="28.223"/><use href="#18" y="30.394"/><use href="#5" y="32.565"/><use href="#3" y="39.078"/><use href="#4" y="41.249"/></svg><svg x="6732"><use href="#a"/><use href="#3"/><use href="#5" y="2.171"/><use href="#7" y="6.513"/><use href="#9" y="8.684"/><use href="#11" y="15.197"/><use href="#12" y="17.368"/><use href="#14" y="19.539"/><use href="#17" y="26.052"/><use href="#12" y="28.223"/><use href="#18" y="30.394"/><use href="#5" y="32.565"/><use href="#3" y="39.078"/><use href="#19" y="41.249"/></svg><svg x="6864"><use href="#a"/><use href="#3"/><use href="#5" y="2.171"/><use href="#7" y="6.513"/><use href="#9" y="8.684"/><use href="#11" y="15.197"/><use href="#12" y="17.368"/><use href="#14" y="19.539"/><use href="#17" y="26.052"/><use href="#12" y="28.223"/><use href="#18" y="30.394"/><use href="#5" y="32.565"/><use href="#3" y="39.078"/><use href="#20" y="41.249"/></svg><svg x="6996"><use href="#a"/><use href="#b" x="1.996" y="45.566"/><use href="#3"/><use href="#5" y="2.171"/><use href="#7" y="6.513"/><use href="#9" y="8.684"/><use href="#11" y="15.197"/><use href="#12" y="17.368"/><use href="#14" y="19.539"/><use href="#17" y="26.052"/><use href="#12" y="28.223"/><use href="#18" y="30.394"/><use href="#5" y="32.565"/><use href="#3" y="39.078"/><use href="#20" y="41.249"/><use href="#1" y="45.591"/></svg><svg x="7128"><use href="#a"/><use href="#b" x="12.996" y="45.566"/><use href="#3"/><use href="#5" y="2.171"/><use href="#7" y="6.513"/><use href="#9" y="8.684"/><use href="#11" y="15.197"/><use href="#12" y="17.368"/><use href="#14" y="19.539"/><use href="#17" y="26.052"/><use href="#12" y="28.223"/><use href="#18" y="30.394"/><use href="#5" y="32.565"/><use href="#3" y="39.078"/><use href="#20" y="41.249"/><use href="#2" y="45.591"/></svg><svg x="7260"><use href="#a"/><use href="#b" x="25.996" y="45.566"/><use href="#3"/><use href="#5" y="2.171"/><use href="#7" y="6.513"/><use href="#9" y="8.684"/><use href="#11" y="15.197"/><use href="#12" y="17.368"/><use href="#14" y="19.539"/><use href="#17" y="26.052"/><use href="#12" y="28.223"/><use href="#18" y="30.394"/><use href="#5" y="32.565"/><use href="#3" y="39.078"/><use href="#20" y="41.249"/><use href="#6" y="45.591"/></svg><svg x="7392"><use href="#a"/><use href="#3"/><use href="#5" y="2.171"/><use href="#7" y="6.513"/><use href="#9" y="8.684"/><use href="#11" y="15.197"/><use href="#12" y="17.368"/><use href="#14" y="19.539"/><use href="#17" y="26.052"/><use href="#12" y="28.223"/><use href="#18" y="30.394"/><use href="#5" y="32.565"/><use href="#3" y="39.078"/><use href="#20" y="41.249"/><use href="#6" y="45.591"/></svg><svg x="7524"><use href="#a"/><use href="#b" x="25.996" y="45.566"/><use href="#3"/><use href="#5" y="2.171"/><use href="#7" y="6.513"/><use href="#9" y="8.684"/><use href="#11" y="15.197"/><use href="#12" y="17.368"/><use href="#14" y="19.539"/><use href="#17" y="26.052"/><use href="#12" y="28.223"/><use href="#18" y="30.394"/><use href="#5" y="32.565"/><use href="#3" y="39.078"/><use href="#20" y="41.249"/><use href="#6" y="45.591"/></svg><svg x="7656"><use href="#a"/><use href="#3"/><use href="#5" y="2.171"/><use href="#7" y="6.513"/><use href="#9" y="8.684"/><use href="#11" y="15.197"/><use href="#12" y="17.368"/><use href="#14" y="19.539"/><use href="#17" y="26.052"/><use href="#12" y="28.223"/><use href="#18" y="30.394"/><use href="#5" y="32.565"/><use href="#3" y="39.078"/><use href="#20" y="41.249"/><use href="#7" y="45.591"/></svg><svg x="7788"><use href="#a"/><use href="#3"/><use href="#5" y="2.171"/><use href="#7" y="6.513"/><use href="#9" y="8.684"/><use href="#11" y="15.197"/><use href="#12" y="17.368"/><use href="#14" y="19.539"/><use href="#17" y="26.052"/><use href="#12" y="28.223"/><use href="#18" y="30.394"/><use href="#5" y="32.565"/><use href="#3" y="39.078"/><use href="#20" y="41.249"/><use href="#7" y="45.591"/></svg><svg x="7920"><use href="#a"/><use href="#3"/><use href="#5" y="2.171"/><use href="#7" y="6.513"/><use href="#9" y="8.684"/><use href="#11" y="15.197"/><use href="#12" y="17.368"/><use href="#14" y="19.539"/><use href="#17" y="26.052"/><use href="#12" y="28.223"/><use href="#18" y="30.394"/><use href="#5" y="32.565"/><use href="#3" y="39.078"/><use href="#20" y="41.249"/><use href="#7" y="45.591"/><use href="#8" y="47.762"/></svg><svg x="8052"><use href="#a"/><use href="#3"/><use href="#5" y="2.171"/><use href="#7" y="6.513"/><use href="#9" y="8.684"/><use href="#11" y="15.197"/><use href="#12" y="17.368"/><use href="#14" y="19.539"/><use href="#17" y="26.052"/><use href="#12" y="28.223"/><use href="#18" y="30.394"/><use href="#5" y="32.565"/><use href="#3" y="39.078"/><use href="#20" y="41.249"/><use href="#7" y="45.591"/><text x="1.002" y="49.432" class="j">✘</text><text x="3.006" y="49.432" class="h">Single</text><text x="10.02" y="49.432" class="h">line</text><text x="15.03" y="49.432" class="h">[Y/n]</text><text x="21.042" y="49.432" class="h">no</text></svg><svg x="8184"><use href="#a"/><use href="#3"/><use href="#5" y="2.171"/><use href="#7" y="6.513"/><use href="#9" y="8.684"/><use href="#11" y="15.197"/><use href="#12" y="17.368"/><use href="#14" y="19.539"/><use href="#17" y="26.052"/><use href="#12" y="28.223"/><use href="#18" y="30.394"/><use href="#5" y="32.565"/><use href="#3" y="39.078"/><use href="#20" y="41.249"/><use href="#7" y="45.591"/><use href="#21" y="47.762"/></svg><svg x="8316"><use href="#a"/><use href="#b" x="1.996" y="52.079"/><use href="#3"/><use href="#5" y="2.171"/><use href="#7" y="6.513"/><use href="#9" y="8.684"/><use href="#11" y="15.197"/><use href="#12" y="17.368"/><use href="#14" y="19.539"/><use href="#17" y="26.052"/><use href="#12" y="28.223"/><use href="#18" y="30.394"/><use href="#5" y="32.565"/><use href="#3" y="39.078"/><use href="#20" y="41.249"/><use href="#7" y="45.591"/><use href="#21" y="47.762"/><use href="#1" y="52.104"/></svg><svg x="8448"><use href="#a"/><use href="#b" x="12.996" y="52.079"/><use href="#3"/><use href="#5" y="2.171"/><use href="#7" y="6.513"/><use href="#9" y="8.684"/><use href="#11" y="15.197"/><use href="#12" y="17.368"/><use href="#14" y="19.539"/><use href="#17" y="26.052"/><use href="#12" y="28.223"/><use href="#18" y="30.394"/><use href="#5" y="32.565"/><use href="#3" y="39.078"/><use href="#20" y="41.249"/><use href="#7" y="45.591"/><use href="#21" y="47.762"/><use href="#2" y="52.104"/></svg><svg x="8580"><use href="#a"/><use href="#b" x="23.996" y="52.079"/><use href="#3"/><use href="#5" y="2.171"/><use href="#7" y="6.513"/><use href="#9" y="8.684"/><use href="#11" y="15.197"/><use href="#12" y="17.368"/><use href="#14" y="19.539"/><use href="#17" y="26.052"/><use href="#12" y="28.223"/><use href="#18" y="30.394"/><use href="#5" y="32.565"/><use href="#3" y="39.078"/><use href="#20" y="41.249"/><use href="#7" y="45.591"/><use href="#21" y="47.762"/><use href="#15" y="52.104"/></svg><svg x="8712"><use href="#a"/><use href="#b" x="30.996" y="52.079"/><use href="#3"/><use href="#5" y="2.171"/><use href="#7" y="6.513"/><use href="#9" y="8.684"/><use href="#11" y="15.197"/><use href="#12" y="17.368"/><use href="#14" y="19.539"/><use href="#17" y="26.052"/><use href="#12" y="28.223"/><use href="#18" y="30.394"/><use href="#5" y="32.565"/><use href="#3" y="39.078"/><use href="#20" y="41.249"/><use href="#7" y="45.591"/><use href="#21" y="47.762"/><use href="#10" y="52.104"/></svg><svg x="8844"><use href="#a"/><use href="#3"/><use href="#5" y="2.171"/><use href="#7" y="6.513"/><use href="#9" y="8.684"/><use href="#11" y="15.197"/><use href="#12" y="17.368"/><use href="#14" y="19.539"/><use href="#17" y="26.052"/><use href="#12" y="28.223"/><use href="#18" y="30.394"/><use href="#5" y="32.565"/><use href="#3" y="39.078"/><use href="#20" y="41.249"/><use href="#7" y="45.591"/><use href="#21" y="47.762"/><use href="#10" y="52.104"/></svg><svg x="8976"><use href="#a"/><use href="#3"/><use href="#5" y="2.171"/><use href="#7" y="6.513"/><use href="#9" y="8.684"/><use href="#11" y="15.197"/><use href="#12" y="17.368"/><use href="#14" y="19.539"/><use href="#17" y="26.052"/><use href="#12" y="28.223"/><use href="#18" y="30.394"/><use href="#5" y="32.565"/><use href="#3" y="39.078"/><use href="#20" y="41.249"/><use href="#7" y="45.591"/><use href="#21" y="47.762"/><use href="#11" y="52.104"/></svg><svg x="9108"><use href="#a"/><use href="#3"/><use href="#5" y="2.171"/><use href="#7" y="6.513"/><use href="#9" y="8.684"/><use href="#11" y="15.197"/><use href="#12" y="17.368"/><use href="#14" y="19.539"/><use href="#17" y="26.052"/><use href="#12" y="28.223"/><use href="#18" y="30.394"/><use href="#5" y="32.565"/><use href="#3" y="39.078"/><use href="#20" y="41.249"/><use href="#7" y="45.591"/><use href="#21" y="47.762"/><use href="#11" y="52.104"/></svg><svg x="9240"><use href="#a"/><use href="#5"/><use href="#7" y="4.342"/><use href="#9" y="6.513"/><use href="#11" y="13.026"/><use href="#12" y="15.197"/><use href="#14" y="17.368"/><use href="#17" y="23.881"/><use href="#12" y="26.052"/><use href="#18" y="28.223"/><use href="#5" y="30.394"/><use href="#3" y="36.907"/><use href="#20" y="39.078"/><use href="#7" y="43.42"/><use href="#21" y="45.591"/><use href="#11" y="49.933"/></svg><svg x="9372"><use href="#a"/><use href="#5"/><use href="#7" y="4.342"/><use href="#9" y="6.513"/><use href="#11" y="13.026"/><use href="#12" y="15.197"/><use href="#14" y="17.368"/><use href="#17" y="23.881"/><use href="#12" y="26.052"/><use href="#18" y="28.223"/><use href="#5" y="30.394"/><use href="#3" y="36.907"/><use href="#20" y="39.078"/><use href="#7" y="43.42"/><use href="#21" y="45.591"/><use href="#11" y="49.933"/><use href="#12" y="52.104"/><use href="#13" y="54.275"/></svg><svg x="9504"><use href="#a"/><use href="#7" y="2.171"/><use href="#9" y="4.342"/><use href="#11" y="10.855"/><use href="#12" y="13.026"/><use href="#14" y="15.197"/><use href="#17" y="21.71"/><use href="#12" y="23.881"/><use href="#18" y="26.052"/><use href="#5" y="28.223"/><use href="#3" y="34.736"/><use href="#20" y="36.907"/><use href="#7" y="41.249"/><use href="#21" y="43.42"/><use href="#11" y="47.762"/><use href="#12" y="49.933"/><text x="1.002" y="53.774" class="j">✘</text><text x="3.006" y="53.774" class="h">line</text><text x="8.016" y="53.774" class="h">[Y/n]</text><text x="14.028" y="53.774" class="h">no</text></svg><svg x="9636"><use href="#a"/><use href="#7" y="2.171"/><use href="#9" y="4.342"/><use href="#11" y="10.855"/><use href="#12" y="13.026"/><use href="#14" y="15.197"/><use href="#17" y="21.71"/><use href="#12" y="23.881"/><use href="#18" y="26.052"/><use href="#5" y="28.223"/><use href="#3" y="34.736"/><use href="#20" y="36.907"/><use href="#7" y="41.249"/><use href="#21" y="43.42"/><use href="#11" y="47.762"/><use href="#12" y="49.933"/><use href="#22" y="52.104"/></svg><svg x="9768"><use href="#a"/><use href="#7" y="2.171"/><use href="#9" y="4.342"/><use href="#11" y="10.855"/><use href="#12" y="13.026"/><use href="#14" y="15.197"/><use href="#17" y="21.71"/><use href="#12" y="23.881"/><use href="#18" y="26.052"/><use href="#5" y="28.223"/><use href="#3" y="34.736"/><use href="#20" y="36.907"/><use href="#7" y="41.249"/><use href="#21" y="43.42"/><use href="#11" y="47.762"/><use href="#12" y="49.933"/><use href="#22" y="52.104"/></svg><svg x="9900"><use href="#a"/><use href="#7"/><use href="#9" y="2.171"/><use href="#11" y="8.684"/><use href="#12" y="10.855"/><use href="#14" y="13.026"/><use href="#17" y="19.539"/><use href="#12" y="21.71"/><use href="#18" y="23.881"/><use href="#5" y="26.052"/><use href="#3" y="32.565"/><use href="#20" y="34.736"/><use href="#7" y="39.078"/><use href="#21" y="41.249"/><use href="#11" y="45.591"/><use href="#12" y="47.762"/><use href="#22" y="49.933"/></svg><svg x="10032"><use href="#a"/><use href="#b" x="1.996" y="54.25"/><use href="#7"/><use href="#9" y="2.171"/><use href="#11" y="8.684"/><use href="#12" y="10.855"/><use href="#14" y="13.026"/><use href="#17" y="19.539"/><use href="#12" y="21.71"/><use href="#18" y="23.881"/><use href="#5" y="26.052"/><use href="#3" y="32.565"/><use href="#20" y="34.736"/><use href="#7" y="39.078"/><use href="#21" y="41.249"/><use href="#11" y="45.591"/><use href="#12" y="47.762"/><use href="#22" y="49.933"/><use href="#1" y="54.275"/></svg><svg x="10164"><use href="#a"/><use href="#b" x="13.996" y="54.25"/><use href="#7"/><use href="#9" y="2.171"/><use href="#11" y="8.684"/><use href="#12" y="10.855"/><use href="#14" y="13.026"/><use href="#17" y="19.539"/><use href="#12" y="21.71"/><use href="#18" y="23.881"/><use href="#5" y="26.052"/><use href="#3" y="32.565"/><use href="#20" y="34.736"/><use href="#7" y="39.078"/><use href="#21" y="41.249"/><use href="#11" y="45.591"/><use href="#12" y="47.762"/><use href="#22" y="49.933"/><use href="#2" y="54.275"/></svg><svg x="10296"><use href="#a"/><use href="#b" x="26.996" y="54.25"/><use href="#7"/><use href="#9" y="2.171"/><use href="#11" y="8.684"/><use href="#12" y="10.855"/><use href="#14" y="13.026"/><use href="#17" y="19.539"/><use href="#12" y="21.71"/><use href="#18" y="23.881"/><use href="#5" y="26.052"/><use href="#3" y="32.565"/><use href="#20" y="34.736"/><use href="#7" y="39.078"/><use href="#21" y="41.249"/><use href="#11" y="45.591"/><use href="#12" y="47.762"/><use href="#22" y="49.933"/><text y="55.945" class="f">❱</text><text x="2.004" y="55.945" class="f">prompt4</text><text x="10.02" y="55.945" class="f">Y/n</text><text x="14.028" y="55.945" class="f">%s\\n</text><text x="20.04" y="55.945" class="f">Multi-</text></svg><svg x="10428"><use href="#a"/><use href="#b" x="32.996" y="54.25"/><use href="#7"/><use href="#9" y="2.171"/><use href="#11" y="8.684"/><use href="#12" y="10.855"/><use href="#14" y="13.026"/><use href="#17" y="19.539"/><use href="#12" y="21.71"/><use href="#18" y="23.881"/><use href="#5" y="26.052"/><use href="#3" y="32.565"/><use href="#20" y="34.736"/><use href="#7" y="39.078"/><use href="#21" y="41.249"/><use href="#11" y="45.591"/><use href="#12" y="47.762"/><use href="#22" y="49.933"/><use href="#16" y="54.275"/></svg><svg x="10560"><use href="#a"/><use href="#7"/><use href="#9" y="2.171"/><use href="#11" y="8.684"/><use href="#12" y="10.855"/><use href="#14" y="13.026"/><use href="#17" y="19.539"/><use href="#12" y="21.71"/><use href="#18" y="23.881"/><use href="#5" y="26.052"/><use href="#3" y="32.565"/><use href="#20" y="34.736"/><use href="#7" y="39.078"/><use href="#21" y="41.249"/><use href="#11" y="45.591"/><use href="#12" y="47.762"/><use href="#22" y="49.933"/><use href="#16" y="54.275"/></svg><svg x="10692"><use href="#a"/><use href="#b" x="32.996" y="54.25"/><use href="#7"/><use href="#9" y="2.171"/><use href="#11" y="8.684"/><use href="#12" y="10.855"/><use href="#14" y="13.026"/><use href="#17" y="19.539"/><use href="#12" y="21.71"/><use href="#18" y="23.881"/><use href="#5" y="26.052"/><use href="#3" y="32.565"/><use href="#20" y="34.736"/><use href="#7" y="39.078"/><use href="#21" y="41.249"/><use href="#11" y="45.591"/><use href="#12" y="47.762"/><use href="#22" y="49.933"/><use href="#16" y="54.275"/></svg><svg x="10824"><use href="#a"/><use href="#9"/><use href="#11" y="6.513"/><use href="#12" y="8.684"/><use href="#14" y="10.855"/><use href="#17" y="17.368"/><use href="#12" y="19.539"/><use href="#18" y="21.71"/><use href="#5" y="23.881"/><use href="#3" y="30.394"/><use href="#20" y="32.565"/><use href="#7" y="36.907"/><use href="#21" y="39.078"/><use href="#11" y="43.42"/><use href="#12" y="45.591"/><use href="#22" y="47.762"/><use href="#17" y="52.104"/></svg><svg x="10956"><use href="#a"/><use href="#9"/><use href="#11" y="6.513"/><use href="#12" y="8.684"/><use href="#14" y="10.855"/><use href="#17" y="17.368"/><use href="#12" y="19.539"/><use href="#18" y="21.71"/><use href="#5" y="23.881"/><use href="#3" y="30.394"/><use href="#20" y="32.565"/><use href="#7" y="36.907"/><use href="#21" y="39.078"/><use href="#11" y="43.42"/><use href="#12" y="45.591"/><use href="#22" y="47.762"/><use href="#17" y="52.104"/></svg><svg x="11088"><use href="#a"/><use href="#11" y="2.171"/><use href="#12" y="4.342"/><use href="#14" y="6.513"/><use href="#17" y="13.026"/><use href="#12" y="15.197"/><use href="#18" y="17.368"/><use href="#5" y="19.539"/><use href="#3" y="26.052"/><use href="#20" y="28.223"/><use href="#7" y="32.565"/><use href="#21" y="34.736"/><use href="#11" y="39.078"/><use href="#12" y="41.249"/><use href="#22" y="43.42"/><use href="#17" y="47.762"/><use href="#12" y="49.933"/><use href="#18" y="52.104"/><use href="#4" y="54.275"/></svg><svg x="11220"><use href="#a"/><use href="#11"/><use href="#12" y="2.171"/><use href="#14" y="4.342"/><use href="#17" y="10.855"/><use href="#12" y="13.026"/><use href="#18" y="15.197"/><use href="#5" y="17.368"/><use href="#3" y="23.881"/><use href="#20" y="26.052"/><use href="#7" y="30.394"/><use href="#21" y="32.565"/><use href="#11" y="36.907"/><use href="#12" y="39.078"/><use href="#22" y="41.249"/><use href="#17" y="45.591"/><use href="#12" y="47.762"/><use href="#18" y="49.933"/><use href="#19" y="52.104"/></svg><svg x="11352"><use href="#a"/><use href="#12"/><use href="#14" y="2.171"/><use href="#17" y="8.684"/><use href="#12" y="10.855"/><use href="#18" y="13.026"/><use href="#5" y="15.197"/><use href="#3" y="21.71"/><use href="#20" y="23.881"/><use href="#7" y="28.223"/><use href="#21" y="30.394"/><use href="#11" y="34.736"/><use href="#12" y="36.907"/><use href="#22" y="39.078"/><use href="#17" y="43.42"/><use href="#12" y="45.591"/><use href="#18" y="47.762"/><use href="#20" y="49.933"/></svg><svg x="11484"><use href="#a"/><use href="#12"/><use href="#14" y="2.171"/><use href="#17" y="8.684"/><use href="#12" y="10.855"/><use href="#18" y="13.026"/><use href="#5" y="15.197"/><use href="#3" y="21.71"/><use href="#20" y="23.881"/><use href="#7" y="28.223"/><use href="#21" y="30.394"/><use href="#11" y="34.736"/><use href="#12" y="36.907"/><use href="#22" y="39.078"/><use href="#17" y="43.42"/><use href="#12" y="45.591"/><use href="#18" y="47.762"/><use href="#20" y="49.933"/></svg><svg x="11616"><use href="#a"/><use href="#12"/><use href="#14" y="2.171"/><use href="#17" y="8.684"/><use href="#12" y="10.855"/><use href="#18" y="13.026"/><use href="#5" y="15.197"/><use href="#3" y="21.71"/><use href="#20" y="23.881"/><use href="#7" y="28.223"/><use href="#21" y="30.394"/><use href="#11" y="34.736"/><use href="#12" y="36.907"/><use href="#22" y="39.078"/><use href="#17" y="43.42"/><use href="#12" y="45.591"/><use href="#18" y="47.762"/><use href="#20" y="49.933"/><use href="#23" y="54.275"/></svg><svg x="11748"><use href="#a"/><use href="#b" x="-.004" y="54.25"/><use href="#12"/><use href="#14" y="2.171"/><use href="#17" y="8.684"/><use href="#12" y="10.855"/><use href="#18" y="13.026"/><use href="#5" y="15.197"/><use href="#3" y="21.71"/><use href="#20" y="23.881"/><use href="#7" y="28.223"/><use href="#21" y="30.394"/><use href="#11" y="34.736"/><use href="#12" y="36.907"/><use href="#22" y="39.078"/><use href="#17" y="43.42"/><use href="#12" y="45.591"/><use href="#18" y="47.762"/><use href="#20" y="49.933"/><use href="#23" y="54.275"/></svg><svg x="11880"><use href="#a"/><use href="#12"/><use href="#14" y="2.171"/><use href="#17" y="8.684"/><use href="#12" y="10.855"/><use href="#18" y="13.026"/><use href="#5" y="15.197"/><use href="#3" y="21.71"/><use href="#20" y="23.881"/><use href="#7" y="28.223"/><use href="#21" y="30.394"/><use href="#11" y="34.736"/><use href="#12" y="36.907"/><use href="#22" y="39.078"/><use href="#17" y="43.42"/><use href="#12" y="45.591"/><use href="#18" y="47.762"/><use href="#20" y="49.933"/><use href="#23" y="54.275"/></svg><svg x="12012"><use href="#a"/><use href="#12"/><use href="#14" y="2.171"/><use href="#17" y="8.684"/><use href="#12" y="10.855"/><use href="#18" y="13.026"/><use href="#5" y="15.197"/><use href="#3" y="21.71"/><use href="#20" y="23.881"/><use href="#7" y="28.223"/><use href="#21" y="30.394"/><use href="#11" y="34.736"/><use href="#12" y="36.907"/><use href="#22" y="39.078"/><use href="#17" y="43.42"/><use href="#12" y="45.591"/><use href="#18" y="47.762"/><use href="#20" y="49.933"/><use href="#24" y="54.275"/></svg><svg x="12144"><use href="#a"/><use href="#b" x="-.004" y="54.25"/><use href="#12"/><use href="#14" y="2.171"/><use href="#17" y="8.684"/><use href="#12" y="10.855"/><use href="#18" y="13.026"/><use href="#5" y="15.197"/><use href="#3" y="21.71"/><use href="#20" y="23.881"/><use href="#7" y="28.223"/><use href="#21" y="30.394"/><use href="#11" y="34.736"/><use href="#12" y="36.907"/><use href="#22" y="39.078"/><use href="#17" y="43.42"/><use href="#12" y="45.591"/><use href="#18" y="47.762"/><use href="#20" y="49.933"/><use href="#24" y="54.275"/></svg><svg x="12276"><use href="#a"/><use href="#12"/><use href="#14" y="2.171"/><use href="#17" y="8.684"/><use href="#12" y="10.855"/><use href="#18" y="13.026"/><use href="#5" y="15.197"/><use href="#3" y="21.71"/><use href="#20" y="23.881"/><use href="#7" y="28.223"/><use href="#21" y="30.394"/><use href="#11" y="34.736"/><use href="#12" y="36.907"/><use href="#22" y="39.078"/><use href="#17" y="43.42"/><use href="#12" y="45.591"/><use href="#18" y="47.762"/><use href="#20" y="49.933"/><use href="#25" y="54.275"/></svg><svg x="12408"><use href="#a"/><use href="#b" x="-.004" y="54.25"/><use href="#12"/><use href="#14" y="2.171"/><use href="#17" y="8.684"/><use href="#12" y="10.855"/><use href="#18" y="13.026"/><use href="#5" y="15.197"/><use href="#3" y="21.71"/><use href="#20" y="23.881"/><use href="#7" y="28.223"/><use href="#21" y="30.394"/><use href="#11" y="34.736"/><use href="#12" y="36.907"/><use href="#22" y="39.078"/><use href="#17" y="43.42"/><use href="#12" y="45.591"/><use href="#18" y="47.762"/><use href="#20" y="49.933"/><use href="#25" y="54.275"/></svg><svg x="12540"><use href="#a"/><use href="#12"/><use href="#14" y="2.171"/><use href="#17" y="8.684"/><use href="#12" y="10.855"/><use href="#18" y="13.026"/><use href="#5" y="15.197"/><use href="#3" y="21.71"/><use href="#20" y="23.881"/><use href="#7" y="28.223"/><use href="#21" y="30.394"/><use href="#11" y="34.736"/><use href="#12" y="36.907"/><use href="#22" y="39.078"/><use href="#17" y="43.42"/><use href="#12" y="45.591"/><use href="#18" y="47.762"/><use href="#20" y="49.933"/><use href="#26" y="54.275"/></svg><svg x="12672"><use href="#a"/><use href="#b" x="-.004" y="54.25"/><use href="#12"/><use href="#14" y="2.171"/><use href="#17" y="8.684"/><use href="#12" y="10.855"/><use href="#18" y="13.026"/><use href="#5" y="15.197"/><use href="#3" y="21.71"/><use href="#20" y="23.881"/><use href="#7" y="28.223"/><use href="#21" y="30.394"/><use href="#11" y="34.736"/><use href="#12" y="36.907"/><use href="#22" y="39.078"/><use href="#17" y="43.42"/><use href="#12" y="45.591"/><use href="#18" y="47.762"/><use href="#20" y="49.933"/><use href="#26" y="54.275"/></svg><svg x="12804"><use href="#a"/><use href="#12"/><use href="#14" y="2.171"/><use href="#17" y="8.684"/><use href="#12" y="10.855"/><use href="#18" y="13.026"/><use href="#5" y="15.197"/><use href="#3" y="21.71"/><use href="#20" y="23.881"/><use href="#7" y="28.223"/><use href="#21" y="30.394"/><use href="#11" y="34.736"/><use href="#12" y="36.907"/><use href="#22" y="39.078"/><use href="#17" y="43.42"/><use href="#12" y="45.591"/><use href="#18" y="47.762"/><use href="#20" y="49.933"/><use href="#27" y="54.275"/></svg><svg x="12936"><use href="#a"/><use href="#b" x="-.004" y="54.25"/><use href="#12"/><use href="#14" y="2.171"/><use href="#17" y="8.684"/><use href="#12" y="10.855"/><use href="#18" y="13.026"/><use href="#5" y="15.197"/><use href="#3" y="21.71"/><use href="#20" y="23.881"/><use href="#7" y="28.223"/><use href="#21" y="30.394"/><use href="#11" y="34.736"/><use href="#12" y="36.907"/><use href="#22" y="39.078"/><use href="#17" y="43.42"/><use href="#12" y="45.591"/><use href="#18" y="47.762"/><use href="#20" y="49.933"/><use href="#27" y="54.275"/></svg><svg x="13068"><use href="#a"/><use href="#12"/><use href="#14" y="2.171"/><use href="#17" y="8.684"/><use href="#12" y="10.855"/><use href="#18" y="13.026"/><use href="#5" y="15.197"/><use href="#3" y="21.71"/><use href="#20" y="23.881"/><use href="#7" y="28.223"/><use href="#21" y="30.394"/><use href="#11" y="34.736"/><use href="#12" y="36.907"/><use href="#22" y="39.078"/><use href="#17" y="43.42"/><use href="#12" y="45.591"/><use href="#18" y="47.762"/><use href="#20" y="49.933"/><use href="#27" y="54.275"/></svg></svg></g><svg height="100%" width="100%" viewBox="0 0 100 100" class="container_end"><text text-anchor="middle" alignment-baseline="central"><tspan y="50" x="50" style="font-size: 50px;">❚❚</tspan></text></svg></g></svg></svg>
