<svg xmlns="http://www.w3.org/2000/svg" xmlns:xlink="http://www.w3.org/1999/xlink" width="1380" height="622.75"><rect width="1380" height="622.75" rx="5" ry="5" class="a"/><svg y="0%" x="0%"><circle cx="20" cy="20" r="6" fill="#ff5f58"/><circle cx="40" cy="20" r="6" fill="#ffbd2e"/><circle cx="60" cy="20" r="6" fill="#18c132"/></svg><svg height="542.75" viewBox="0 0 132 54.275" width="1320" x="25" xmlns="http://www.w3.org/2000/svg" xmlns:xlink="http://www.w3.org/1999/xlink" y="60"><style>@keyframes r{0%{transform:translateX(0)}.1%{transform:translateX(-132px)}2.7%{transform:translateX(-396px)}2.8%{transform:translateX(-528px)}2.9%{transform:translateX(-660px)}3%{transform:translateX(-792px)}6.6%{transform:translateX(-924px)}10.3%{transform:translateX(-1056px)}10.4%{transform:translateX(-1188px)}10.5%{transform:translateX(-1320px)}10.6%{transform:translateX(-1584px)}10.8%{transform:translateX(-1980px)}10.9%{transform:translateX(-2112px)}11%{transform:translateX(-2376px)}11.1%{transform:translateX(-2772px)}11.2%{transform:translateX(-3168px)}11.4%{transform:translateX(-3564px)}11.5%{transform:translateX(-3960px)}11.6%{transform:translateX(-4092px)}11.7%{transform:translateX(-4356px)}11.8%{transform:translateX(-4752px)}11.9%{transform:translateX(-5148px)}12.1%{transform:translateX(-5544px)}12.2%{transform:translateX(-5940px)}12.3%{transform:translateX(-6072px)}12.4%{transform:translateX(-6336px)}12.5%{transform:translateX(-6732px)}12.6%{transform:translateX(-7128px)}12.8%{transform:translateX(-8316px)}12.9%{transform:translateX(-8448px)}13.1%{transform:translateX(-9108px)}13%{transform:translateX(-8712px)}13.2%{transform:translateX(-9504px)}13.3%{transform:translateX(-9636px)}13.4%{transform:translateX(-9900px)}13.5%{transform:translateX(-10296px)}13.6%{transform:translateX(-10692px)}13.8%{transform:translateX(-11088px)}13.9%{transform:translateX(-11484px)}14%{transform:translateX(-11880px)}14.2%{transform:translateX(-12144px)}14.3%{transform:translateX(-12408px)}14.4%{transform:translateX(-12540px)}14.5%{transform:translateX(-12804px)}14.6%{transform:translateX(-13200px)}14.7%{transform:translateX(-13596px)}14.9%{transform:translateX(-13992px)}15%{transform:translateX(-14124px)}15.1%{transform:translateX(-14256px)}24%{transform:translateX(-14520px)}27.6%{transform:translateX(-14652px)}31.3%{transform:translateX(-14784px)}35%{transform:translateX(-14916px)}38.6%{transform:translateX(-15048px)}38.7%{transform:translateX(-15180px)}38.8%{transform:translateX(-15312px)}38.9%{transform:translateX(-15444px)}39%{transform:translateX(-15576px)}42.7%{transform:translateX(-15708px)}46.4%{transform:translateX(-15840px)}48.6%{transform:translateX(-16368px)}52.3%{transform:translateX(-16500px)}56%{transform:translateX(-16632px)}59.6%{transform:translateX(-16764px)}63.3%{transform:translateX(-16896px)}67%{transform:translateX(-17028px)}70.6%{transform:translateX(-17160px)}74.3%{transform:translateX(-17292px)}78%{transform:translateX(-17424px)}81.6%{transform:translateX(-17556px)}85.3%{transform:translateX(-17688px)}89%{transform:translateX(-17820px)}92.7%{transform:translateX(-17952px)}96.3%{transform:translateX(-18084px)}to{transform:translateX(-18216px)}}.a{fill:#2d2d2d}.f,.g,.h{fill:gray;white-space:pre}.g,.h{fill:#c9c9c9}.h{fill:#01e6ff}.i,.j,.k,.l,.m,.n{fill:#01818f;white-space:pre}.j,.k,.l,.m,.n{fill:#e927ff}.k,.l,.m,.n{fill:#ff2797}.l,.m,.n{fill:#fffc67}.m,.n{fill:#92ff60}.n{fill:#2ec1ff}</style><g font-family="Monaco,Consolas,Menlo,'Bitstream Vera Sans Mono','Powerline Symbols',monospace" font-size="1.67"><defs><symbol id="21"><text x="3.006" y="1.67" class="g">▉▊▋▌▍▎▏</text><text x="11.022" y="1.67" class="h">FOO</text><text x="15.03" y="1.67" class="i">BAR</text><text x="19.038" y="1.67" class="j">BAZ</text></symbol><symbol id="1"><text y="1.67" class="f">$</text><text x="2.004" y="1.67" class="g">HEADR</text><text x="8.016" y="1.67" class="g">fooBar</text><text x="15.03" y="1.67" class="g">baz</text></symbol><symbol id="3"><text x="11.022" y="1.67" class="h">FOO</text><text x="15.03" y="1.67" class="i">BAR</text><text x="19.038" y="1.67" class="j">BAZ</text></symbol><symbol id="4"><text x="3.006" y="1.67" class="g">▁</text><text x="11.022" y="1.67" class="h">FOO</text><text x="15.03" y="1.67" class="i">BAR</text><text x="19.038" y="1.67" class="j">BAZ</text></symbol><symbol id="5"><text x="3.006" y="1.67" class="g">▁▂</text><text x="11.022" y="1.67" class="h">FOO</text><text x="15.03" y="1.67" class="i">BAR</text><text x="19.038" y="1.67" class="j">BAZ</text></symbol><symbol id="6"><text x="3.006" y="1.67" class="g">▁▂▃</text><text x="11.022" y="1.67" class="h">FOO</text><text x="15.03" y="1.67" class="i">BAR</text><text x="19.038" y="1.67" class="j">BAZ</text></symbol><symbol id="7"><text x="3.006" y="1.67" class="g">▁▂▃▄</text><text x="11.022" y="1.67" class="h">FOO</text><text x="15.03" y="1.67" class="i">BAR</text><text x="19.038" y="1.67" class="j">BAZ</text></symbol><symbol id="8"><text x="3.006" y="1.67" class="g">▁▂▃▄▅</text><text x="11.022" y="1.67" class="h">FOO</text><text x="15.03" y="1.67" class="i">BAR</text><text x="19.038" y="1.67" class="j">BAZ</text></symbol><symbol id="9"><text x="3.006" y="1.67" class="g">▁▂▃▄▅▆</text><text x="11.022" y="1.67" class="h">FOO</text><text x="15.03" y="1.67" class="i">BAR</text><text x="19.038" y="1.67" class="j">BAZ</text></symbol><symbol id="10"><text x="3.006" y="1.67" class="g">▁▂▃▄▅▆▇</text><text x="11.022" y="1.67" class="h">FOO</text><text x="15.03" y="1.67" class="i">BAR</text><text x="19.038" y="1.67" class="j">BAZ</text></symbol><symbol id="11"><text x="3.006" y="1.67" class="g">▂▃▄▅▆▇█</text><text x="11.022" y="1.67" class="h">FOO</text><text x="15.03" y="1.67" class="i">BAR</text><text x="19.038" y="1.67" class="j">BAZ</text></symbol><symbol id="12"><text x="3.006" y="1.67" class="g">▃▄▅▆▇██</text><text x="11.022" y="1.67" class="h">FOO</text><text x="15.03" y="1.67" class="i">BAR</text><text x="19.038" y="1.67" class="j">BAZ</text></symbol><symbol id="13"><text x="3.006" y="1.67" class="g">▄▅▆▇███</text><text x="11.022" y="1.67" class="h">FOO</text><text x="15.03" y="1.67" class="i">BAR</text><text x="19.038" y="1.67" class="j">BAZ</text></symbol><symbol id="14"><text x="3.006" y="1.67" class="g">▅▆▇████</text><text x="11.022" y="1.67" class="h">FOO</text><text x="15.03" y="1.67" class="i">BAR</text><text x="19.038" y="1.67" class="j">BAZ</text></symbol><symbol id="15"><text x="3.006" y="1.67" class="g">▆▇████▉</text><text x="11.022" y="1.67" class="h">FOO</text><text x="15.03" y="1.67" class="i">BAR</text><text x="19.038" y="1.67" class="j">BAZ</text></symbol><symbol id="16"><text x="3.006" y="1.67" class="g">▇████▉▊</text><text x="11.022" y="1.67" class="h">FOO</text><text x="15.03" y="1.67" class="i">BAR</text><text x="19.038" y="1.67" class="j">BAZ</text></symbol><symbol id="17"><text x="3.006" y="1.67" class="g">████▉▊▋</text><text x="11.022" y="1.67" class="h">FOO</text><text x="15.03" y="1.67" class="i">BAR</text><text x="19.038" y="1.67" class="j">BAZ</text></symbol><symbol id="18"><text x="3.006" y="1.67" class="g">███▉▊▋▌</text><text x="11.022" y="1.67" class="h">FOO</text><text x="15.03" y="1.67" class="i">BAR</text><text x="19.038" y="1.67" class="j">BAZ</text></symbol><symbol id="19"><text x="3.006" y="1.67" class="g">██▉▊▋▌▍</text><text x="11.022" y="1.67" class="h">FOO</text><text x="15.03" y="1.67" class="i">BAR</text><text x="19.038" y="1.67" class="j">BAZ</text></symbol><symbol id="20"><text x="3.006" y="1.67" class="g">█▉▊▋▌▍▎</text><text x="11.022" y="1.67" class="h">FOO</text><text x="15.03" y="1.67" class="i">BAR</text><text x="19.038" y="1.67" class="j">BAZ</text></symbol><symbol id="2"><text y="1.67" class="f">$</text><text x="2.004" y="1.67" class="f">HEADR</text><text x="8.016" y="1.67" class="f">fooBar</text><text x="15.03" y="1.67" class="f">baz</text></symbol><symbol id="22"><text x="3.006" y="1.67" class="g">▊▋▌▍▎▏</text><text x="11.022" y="1.67" class="h">FOO</text><text x="15.03" y="1.67" class="i">BAR</text><text x="19.038" y="1.67" class="j">BAZ</text></symbol><symbol id="23"><text x="3.006" y="1.67" class="g">▋▌▍▎▏</text><text x="9.018" y="1.67" class="k">▏</text><text x="11.022" y="1.67" class="h">FOO</text><text x="15.03" y="1.67" class="i">BAR</text><text x="19.038" y="1.67" class="j">BAZ</text></symbol><symbol id="24"><text x="3.006" y="1.67" class="g">▌▍▎▏</text><text x="8.016" y="1.67" class="j">▏</text><text x="9.018" y="1.67" class="k">▎</text><text x="11.022" y="1.67" class="h">FOO</text><text x="15.03" y="1.67" class="i">BAR</text><text x="19.038" y="1.67" class="j">BAZ</text></symbol><symbol id="25"><text x="3.006" y="1.67" class="g">▍▎▏</text><text x="7.014" y="1.67" class="l">▏</text><text x="8.016" y="1.67" class="j">▎</text><text x="9.018" y="1.67" class="k">▍</text><text x="11.022" y="1.67" class="h">FOO</text><text x="15.03" y="1.67" class="i">BAR</text><text x="19.038" y="1.67" class="j">BAZ</text></symbol><symbol id="26"><text x="3.006" y="1.67" class="g">▎▏</text><text x="6.012" y="1.67" class="m">▏</text><text x="7.014" y="1.67" class="l">▎</text><text x="8.016" y="1.67" class="j">▍</text><text x="9.018" y="1.67" class="k">▌</text><text x="11.022" y="1.67" class="h">FOO</text><text x="15.03" y="1.67" class="i">BAR</text><text x="19.038" y="1.67" class="j">BAZ</text></symbol><symbol id="27"><text x="3.006" y="1.67" class="g">▏</text><text x="5.01" y="1.67" class="n">▏</text><text x="6.012" y="1.67" class="m">▎</text><text x="7.014" y="1.67" class="l">▍</text><text x="8.016" y="1.67" class="j">▌</text><text x="9.018" y="1.67" class="k">▋</text><text x="11.022" y="1.67" class="h">FOO</text><text x="15.03" y="1.67" class="i">BAR</text><text x="19.038" y="1.67" class="j">BAZ</text></symbol><symbol id="28"><text x="4.008" y="1.67" class="h">▏</text><text x="5.01" y="1.67" class="n">▎</text><text x="6.012" y="1.67" class="m">▍</text><text x="7.014" y="1.67" class="l">▌</text><text x="8.016" y="1.67" class="j">▋</text><text x="9.018" y="1.67" class="k">▊</text><text x="11.022" y="1.67" class="h">FOO</text><text x="15.03" y="1.67" class="i">BAR</text><text x="19.038" y="1.67" class="j">BAZ</text></symbol><symbol id="29"><text x="3.006" y="1.67" class="f">▏</text><text x="4.008" y="1.67" class="h">▎</text><text x="5.01" y="1.67" class="n">▍</text><text x="6.012" y="1.67" class="m">▌</text><text x="7.014" y="1.67" class="l">▋</text><text x="8.016" y="1.67" class="j">▊</text><text x="9.018" y="1.67" class="k">▉</text><text x="11.022" y="1.67" class="h">FOO</text><text x="15.03" y="1.67" class="i">BAR</text><text x="19.038" y="1.67" class="j">BAZ</text></symbol><symbol id="30"><text x="3.006" y="1.67" class="f">▎</text><text x="4.008" y="1.67" class="h">▍</text><text x="5.01" y="1.67" class="n">▌</text><text x="6.012" y="1.67" class="m">▋</text><text x="7.014" y="1.67" class="l">▊</text><text x="8.016" y="1.67" class="j">▉</text><text x="9.018" y="1.67" class="k">█</text><text x="11.022" y="1.67" class="h">FOO</text><text x="15.03" y="1.67" class="i">BAR</text><text x="19.038" y="1.67" class="j">BAZ</text></symbol><symbol id="31"><text x="3.006" y="1.67" class="f">▍</text><text x="4.008" y="1.67" class="h">▌</text><text x="5.01" y="1.67" class="n">▋</text><text x="6.012" y="1.67" class="m">▊</text><text x="7.014" y="1.67" class="l">▉</text><text x="8.016" y="1.67" class="j">█</text><text x="9.018" y="1.67" class="k">█</text><text x="11.022" y="1.67" class="h">FOO</text><text x="15.03" y="1.67" class="i">BAR</text><text x="19.038" y="1.67" class="j">BAZ</text></symbol><symbol id="32"><text x="3.006" y="1.67" class="f">▌</text><text x="4.008" y="1.67" class="h">▋</text><text x="5.01" y="1.67" class="n">▊</text><text x="6.012" y="1.67" class="m">▉</text><text x="7.014" y="1.67" class="l">█</text><text x="8.016" y="1.67" class="j">█</text><text x="9.018" y="1.67" class="k">█</text><text x="11.022" y="1.67" class="h">FOO</text><text x="15.03" y="1.67" class="i">BAR</text><text x="19.038" y="1.67" class="j">BAZ</text></symbol><symbol id="33"><text x="3.006" y="1.67" class="f">▋</text><text x="4.008" y="1.67" class="h">▊</text><text x="5.01" y="1.67" class="n">▉</text><text x="6.012" y="1.67" class="m">█</text><text x="7.014" y="1.67" class="l">█</text><text x="8.016" y="1.67" class="j">█</text><text x="9.018" y="1.67" class="k">█</text><text x="11.022" y="1.67" class="h">FOO</text><text x="15.03" y="1.67" class="i">BAR</text><text x="19.038" y="1.67" class="j">BAZ</text></symbol><symbol id="34"><text x="3.006" y="1.67" class="f">▊</text><text x="4.008" y="1.67" class="h">▉</text><text x="5.01" y="1.67" class="n">█</text><text x="6.012" y="1.67" class="m">█</text><text x="7.014" y="1.67" class="l">█</text><text x="8.016" y="1.67" class="j">█</text><text x="9.018" y="1.67" class="k">█</text><text x="11.022" y="1.67" class="h">FOO</text><text x="15.03" y="1.67" class="i">BAR</text><text x="19.038" y="1.67" class="j">BAZ</text></symbol><symbol id="35"><text x="3.006" y="1.67" class="f">▉</text><text x="4.008" y="1.67" class="h">█</text><text x="5.01" y="1.67" class="n">█</text><text x="6.012" y="1.67" class="m">█</text><text x="7.014" y="1.67" class="l">█</text><text x="8.016" y="1.67" class="j">█</text><text x="9.018" y="1.67" class="k">█</text><text x="11.022" y="1.67" class="h">FOO</text><text x="15.03" y="1.67" class="i">BAR</text><text x="19.038" y="1.67" class="j">BAZ</text></symbol><symbol id="36"><text x="3.006" y="1.67" class="f">█</text><text x="4.008" y="1.67" class="h">█</text><text x="5.01" y="1.67" class="n">█</text><text x="6.012" y="1.67" class="m">█</text><text x="7.014" y="1.67" class="l">█</text><text x="8.016" y="1.67" class="j">█</text><text x="9.018" y="1.67" class="k">█</text><text x="11.022" y="1.67" class="h">FOO</text><text x="15.03" y="1.67" class="i">BAR</text><text x="19.038" y="1.67" class="j">BAZ</text></symbol><symbol id="37"><text x="1.002" y="1.67" class="g">tracr</text><text x="7.014" y="1.67" class="g">-foo</text><text x="12.024" y="1.67" class="g">--bar</text><text x="18.036" y="1.67" class="g">--</text><text x="21.042" y="1.67" class="g">---baz</text></symbol><symbol id="38"><text y="1.67" class="f">#</text><text x="2.004" y="1.67" class="f">tracr</text><text x="8.016" y="1.67" class="f">-foo</text><text x="13.026" y="1.67" class="f">--bar</text><text x="19.038" y="1.67" class="f">--</text><text x="22.044" y="1.67" class="f">---baz</text></symbol><symbol id="39"><text x="1.002" y="1.67" class="h">4</text><text x="3.006" y="1.67" class="h">`</text><text x="4.008" y="1.67" class="g">-foo</text><text x="8.016" y="1.67" class="h">`</text><text x="10.02" y="1.67" class="h">`</text><text x="11.022" y="1.67" class="g">--bar</text><text x="16.032" y="1.67" class="h">`</text><text x="18.036" y="1.67" class="h">`</text><text x="19.038" y="1.67" class="g">--</text><text x="21.042" y="1.67" class="h">`</text><text x="23.046" y="1.67" class="h">`</text><text x="24.048" y="1.67" class="g">---baz</text><text x="30.06" y="1.67" class="h">`</text><text x="67.134" y="1.67" style="white-space:pre" fill="#29abe2">↗</text><text x="69.138" y="1.67" class="g">file:///home/john/main#9</text></symbol><symbol id="a"><path fill="transparent" d="M0 0h132v26H0z"/></symbol><symbol id="b"><path fill="#c7c7c7" d="M0 0h1.102v2.171H0z"/></symbol></defs><path class="a" d="M0 0h132v54.275H0z"/><g style="animation-duration:13.711693s;animation-iteration-count:infinite;animation-name:r;animation-timing-function:steps(1,end)"><svg width="18348"><svg><use xlink:href="#a"/><use xlink:href="#b" x="-.004"/></svg><svg x="132"><use xlink:href="#a"/><use xlink:href="#b" x="-.004"/></svg><svg x="264"><use xlink:href="#a"/></svg><svg x="396"><use xlink:href="#a"/><use xlink:href="#b" x=".996"/><text y="1.67" class="f">$</text></svg><svg x="528"><use xlink:href="#a"/><use xlink:href="#b" x="12.996"/><text y="1.67" class="f">$</text><text x="2.004" y="1.67" class="g">HEADR</text><text x="8.016" y="1.67" class="g">fooBa</text></svg><svg x="660"><use xlink:href="#a"/><use xlink:href="#b" x="17.996"/><use xlink:href="#1"/></svg><svg x="792"><use xlink:href="#a"/><use xlink:href="#1"/></svg><svg x="924"><use xlink:href="#a"/><use xlink:href="#b" x="17.996"/><use xlink:href="#1"/></svg><svg x="1056"><use xlink:href="#a"/><use xlink:href="#2"/></svg><svg x="1188"><use xlink:href="#a"/><use xlink:href="#2"/></svg><svg x="1320"><use xlink:href="#a"/><use xlink:href="#2"/></svg><svg x="1452"><use xlink:href="#a"/><use xlink:href="#2"/><use xlink:href="#3" y="4.342"/></svg><svg x="1584"><use xlink:href="#a"/><use xlink:href="#2"/><use xlink:href="#3" y="4.342"/></svg><svg x="1716"><use xlink:href="#a"/><use xlink:href="#2"/><use xlink:href="#3" y="4.342"/></svg><svg x="1848"><use xlink:href="#a"/><use xlink:href="#2"/><use xlink:href="#4" y="4.342"/></svg><svg x="1980"><use xlink:href="#a"/><use xlink:href="#2"/><use xlink:href="#4" y="4.342"/></svg><svg x="2112"><use xlink:href="#a"/><use xlink:href="#2"/><use xlink:href="#4" y="4.342"/></svg><svg x="2244"><use xlink:href="#a"/><use xlink:href="#2"/><use xlink:href="#5" y="4.342"/></svg><svg x="2376"><use xlink:href="#a"/><use xlink:href="#2"/><use xlink:href="#5" y="4.342"/></svg><svg x="2508"><use xlink:href="#a"/><use xlink:href="#2"/><use xlink:href="#5" y="4.342"/></svg><svg x="2640"><use xlink:href="#a"/><use xlink:href="#2"/><use xlink:href="#6" y="4.342"/></svg><svg x="2772"><use xlink:href="#a"/><use xlink:href="#2"/><use xlink:href="#6" y="4.342"/></svg><svg x="2904"><use xlink:href="#a"/><use xlink:href="#2"/><use xlink:href="#6" y="4.342"/></svg><svg x="3036"><use xlink:href="#a"/><use xlink:href="#2"/><use xlink:href="#7" y="4.342"/></svg><svg x="3168"><use xlink:href="#a"/><use xlink:href="#2"/><use xlink:href="#7" y="4.342"/></svg><svg x="3300"><use xlink:href="#a"/><use xlink:href="#2"/><use xlink:href="#7" y="4.342"/></svg><svg x="3432"><use xlink:href="#a"/><use xlink:href="#2"/><use xlink:href="#8" y="4.342"/></svg><svg x="3564"><use xlink:href="#a"/><use xlink:href="#2"/><use xlink:href="#8" y="4.342"/></svg><svg x="3696"><use xlink:href="#a"/><use xlink:href="#2"/><use xlink:href="#8" y="4.342"/></svg><svg x="3828"><use xlink:href="#a"/><use xlink:href="#2"/><use xlink:href="#9" y="4.342"/></svg><svg x="3960"><use xlink:href="#a"/><use xlink:href="#2"/><use xlink:href="#9" y="4.342"/></svg><svg x="4092"><use xlink:href="#a"/><use xlink:href="#2"/><use xlink:href="#9" y="4.342"/></svg><svg x="4224"><use xlink:href="#a"/><use xlink:href="#2"/><use xlink:href="#10" y="4.342"/></svg><svg x="4356"><use xlink:href="#a"/><use xlink:href="#2"/><use xlink:href="#10" y="4.342"/></svg><svg x="4488"><use xlink:href="#a"/><use xlink:href="#2"/><use xlink:href="#10" y="4.342"/></svg><svg x="4620"><use xlink:href="#a"/><use xlink:href="#2"/><use xlink:href="#11" y="4.342"/></svg><svg x="4752"><use xlink:href="#a"/><use xlink:href="#2"/><use xlink:href="#11" y="4.342"/></svg><svg x="4884"><use xlink:href="#a"/><use xlink:href="#2"/><use xlink:href="#11" y="4.342"/></svg><svg x="5016"><use xlink:href="#a"/><use xlink:href="#2"/><use xlink:href="#12" y="4.342"/></svg><svg x="5148"><use xlink:href="#a"/><use xlink:href="#2"/><use xlink:href="#12" y="4.342"/></svg><svg x="5280"><use xlink:href="#a"/><use xlink:href="#2"/><use xlink:href="#12" y="4.342"/></svg><svg x="5412"><use xlink:href="#a"/><use xlink:href="#2"/><use xlink:href="#13" y="4.342"/></svg><svg x="5544"><use xlink:href="#a"/><use xlink:href="#2"/><use xlink:href="#13" y="4.342"/></svg><svg x="5676"><use xlink:href="#a"/><use xlink:href="#2"/><use xlink:href="#13" y="4.342"/></svg><svg x="5808"><use xlink:href="#a"/><use xlink:href="#2"/><use xlink:href="#14" y="4.342"/></svg><svg x="5940"><use xlink:href="#a"/><use xlink:href="#2"/><use xlink:href="#14" y="4.342"/></svg><svg x="6072"><use xlink:href="#a"/><use xlink:href="#2"/><use xlink:href="#14" y="4.342"/></svg><svg x="6204"><use xlink:href="#a"/><use xlink:href="#2"/><use xlink:href="#15" y="4.342"/></svg><svg x="6336"><use xlink:href="#a"/><use xlink:href="#2"/><use xlink:href="#15" y="4.342"/></svg><svg x="6468"><use xlink:href="#a"/><use xlink:href="#2"/><use xlink:href="#15" y="4.342"/></svg><svg x="6600"><use xlink:href="#a"/><use xlink:href="#2"/><use xlink:href="#16" y="4.342"/></svg><svg x="6732"><use xlink:href="#a"/><use xlink:href="#2"/><use xlink:href="#16" y="4.342"/></svg><svg x="6864"><use xlink:href="#a"/><use xlink:href="#2"/><use xlink:href="#16" y="4.342"/></svg><svg x="6996"><use xlink:href="#a"/><use xlink:href="#2"/><use xlink:href="#17" y="4.342"/></svg><svg x="7128"><use xlink:href="#a"/><use xlink:href="#2"/><use xlink:href="#17" y="4.342"/></svg><svg x="7260"><use xlink:href="#a"/><use xlink:href="#2"/><use xlink:href="#17" y="4.342"/></svg><svg x="7392"><use xlink:href="#a"/><use xlink:href="#2"/><use xlink:href="#18" y="4.342"/></svg><svg x="7524"><use xlink:href="#a"/><use xlink:href="#2"/><use xlink:href="#18" y="4.342"/></svg><svg x="7656"><use xlink:href="#a"/><use xlink:href="#2"/><use xlink:href="#18" y="4.342"/></svg><svg x="7788"><use xlink:href="#a"/><use xlink:href="#2"/><use xlink:href="#19" y="4.342"/></svg><svg x="7920"><use xlink:href="#a"/><use xlink:href="#2"/><use xlink:href="#19" y="4.342"/></svg><svg x="8052"><use xlink:href="#a"/><use xlink:href="#2"/><use xlink:href="#19" y="4.342"/></svg><svg x="8184"><use xlink:href="#a"/><use xlink:href="#2"/><use xlink:href="#20" y="4.342"/></svg><svg x="8316"><use xlink:href="#a"/><use xlink:href="#2"/><use xlink:href="#20" y="4.342"/></svg><svg x="8448"><use xlink:href="#a"/><use xlink:href="#2"/><use xlink:href="#20" y="4.342"/></svg><svg x="8580"><use xlink:href="#a"/><use xlink:href="#2"/><use xlink:href="#21" y="4.342"/></svg><svg x="8712"><use xlink:href="#a"/><use xlink:href="#2"/><use xlink:href="#21" y="4.342"/></svg><svg x="8844"><use xlink:href="#a"/><use xlink:href="#2"/><use xlink:href="#21" y="4.342"/></svg><svg x="8976"><use xlink:href="#a"/><use xlink:href="#2"/><use xlink:href="#22" y="4.342"/></svg><svg x="9108"><use xlink:href="#a"/><use xlink:href="#2"/><use xlink:href="#22" y="4.342"/></svg><svg x="9240"><use xlink:href="#a"/><use xlink:href="#2"/><use xlink:href="#22" y="4.342"/></svg><svg x="9372"><use xlink:href="#a"/><use xlink:href="#2"/><use xlink:href="#23" y="4.342"/></svg><svg x="9504"><use xlink:href="#a"/><use xlink:href="#2"/><use xlink:href="#23" y="4.342"/></svg><svg x="9636"><use xlink:href="#a"/><use xlink:href="#2"/><use xlink:href="#23" y="4.342"/></svg><svg x="9768"><use xlink:href="#a"/><use xlink:href="#2"/><use xlink:href="#24" y="4.342"/></svg><svg x="9900"><use xlink:href="#a"/><use xlink:href="#2"/><use xlink:href="#24" y="4.342"/></svg><svg x="10032"><use xlink:href="#a"/><use xlink:href="#2"/><use xlink:href="#24" y="4.342"/></svg><svg x="10164"><use xlink:href="#a"/><use xlink:href="#2"/><use xlink:href="#25" y="4.342"/></svg><svg x="10296"><use xlink:href="#a"/><use xlink:href="#2"/><use xlink:href="#25" y="4.342"/></svg><svg x="10428"><use xlink:href="#a"/><use xlink:href="#2"/><use xlink:href="#25" y="4.342"/></svg><svg x="10560"><use xlink:href="#a"/><use xlink:href="#2"/><use xlink:href="#26" y="4.342"/></svg><svg x="10692"><use xlink:href="#a"/><use xlink:href="#2"/><use xlink:href="#26" y="4.342"/></svg><svg x="10824"><use xlink:href="#a"/><use xlink:href="#2"/><use xlink:href="#26" y="4.342"/></svg><svg x="10956"><use xlink:href="#a"/><use xlink:href="#2"/><use xlink:href="#27" y="4.342"/></svg><svg x="11088"><use xlink:href="#a"/><use xlink:href="#2"/><use xlink:href="#27" y="4.342"/></svg><svg x="11220"><use xlink:href="#a"/><use xlink:href="#2"/><use xlink:href="#27" y="4.342"/></svg><svg x="11352"><use xlink:href="#a"/><use xlink:href="#2"/><use xlink:href="#28" y="4.342"/></svg><svg x="11484"><use xlink:href="#a"/><use xlink:href="#2"/><use xlink:href="#28" y="4.342"/></svg><svg x="11616"><use xlink:href="#a"/><use xlink:href="#2"/><use xlink:href="#28" y="4.342"/></svg><svg x="11748"><use xlink:href="#a"/><use xlink:href="#2"/><use xlink:href="#29" y="4.342"/></svg><svg x="11880"><use xlink:href="#a"/><use xlink:href="#2"/><use xlink:href="#29" y="4.342"/></svg><svg x="12012"><use xlink:href="#a"/><use xlink:href="#2"/><use xlink:href="#29" y="4.342"/></svg><svg x="12144"><use xlink:href="#a"/><use xlink:href="#2"/><use xlink:href="#30" y="4.342"/></svg><svg x="12276"><use xlink:href="#a"/><use xlink:href="#2"/><use xlink:href="#30" y="4.342"/></svg><svg x="12408"><use xlink:href="#a"/><use xlink:href="#2"/><use xlink:href="#31" y="4.342"/></svg><svg x="12540"><use xlink:href="#a"/><use xlink:href="#2"/><use xlink:href="#31" y="4.342"/></svg><svg x="12672"><use xlink:href="#a"/><use xlink:href="#2"/><use xlink:href="#32" y="4.342"/></svg><svg x="12804"><use xlink:href="#a"/><use xlink:href="#2"/><use xlink:href="#32" y="4.342"/></svg><svg x="12936"><use xlink:href="#a"/><use xlink:href="#2"/><use xlink:href="#32" y="4.342"/></svg><svg x="13068"><use xlink:href="#a"/><use xlink:href="#2"/><use xlink:href="#33" y="4.342"/></svg><svg x="13200"><use xlink:href="#a"/><use xlink:href="#2"/><use xlink:href="#33" y="4.342"/></svg><svg x="13332"><use xlink:href="#a"/><use xlink:href="#2"/><use xlink:href="#33" y="4.342"/></svg><svg x="13464"><use xlink:href="#a"/><use xlink:href="#2"/><use xlink:href="#34" y="4.342"/></svg><svg x="13596"><use xlink:href="#a"/><use xlink:href="#2"/><use xlink:href="#34" y="4.342"/></svg><svg x="13728"><use xlink:href="#a"/><use xlink:href="#2"/><use xlink:href="#34" y="4.342"/></svg><svg x="13860"><use xlink:href="#a"/><use xlink:href="#2"/><use xlink:href="#35" y="4.342"/></svg><svg x="13992"><use xlink:href="#a"/><use xlink:href="#2"/><use xlink:href="#35" y="4.342"/></svg><svg x="14124"><use xlink:href="#a"/><use xlink:href="#2"/><use xlink:href="#35" y="4.342"/></svg><svg x="14256"><use xlink:href="#a"/><use xlink:href="#2"/><use xlink:href="#36" y="4.342"/></svg><svg x="14388"><use xlink:href="#a"/><use xlink:href="#2"/><use xlink:href="#36" y="4.342"/></svg><svg x="14520"><use xlink:href="#a"/><use xlink:href="#2"/><use xlink:href="#36" y="4.342"/></svg><svg x="14652"><use xlink:href="#a"/><use xlink:href="#b" x="-.004" y="10.83"/><use xlink:href="#2"/><use xlink:href="#36" y="4.342"/></svg><svg x="14784"><use xlink:href="#a"/><use xlink:href="#2"/><use xlink:href="#36" y="4.342"/></svg><svg x="14916"><use xlink:href="#a"/><use xlink:href="#b" x="-.004" y="10.83"/><use xlink:href="#2"/><use xlink:href="#36" y="4.342"/></svg><svg x="15048"><use xlink:href="#a"/><use xlink:href="#b" x="-.004" y="10.83"/><use xlink:href="#2"/><use xlink:href="#36" y="4.342"/></svg><svg x="15180"><use xlink:href="#a"/><use xlink:href="#b" x="12.996" y="10.83"/><use xlink:href="#2"/><use xlink:href="#36" y="4.342"/><text x="1.002" y="12.525" class="g">tracr</text><text x="7.014" y="12.525" class="g">-foo</text><text x="12.024" y="12.525" class="g">-</text></svg><svg x="15312"><use xlink:href="#a"/><use xlink:href="#b" x="25.996" y="10.83"/><use xlink:href="#2"/><use xlink:href="#36" y="4.342"/><text x="1.002" y="12.525" class="g">tracr</text><text x="7.014" y="12.525" class="g">-foo</text><text x="12.024" y="12.525" class="g">--bar</text><text x="18.036" y="12.525" class="g">--</text><text x="21.042" y="12.525" class="g">---ba</text></svg><svg x="15444"><use xlink:href="#a"/><use xlink:href="#b" x="26.996" y="10.83"/><use xlink:href="#2"/><use xlink:href="#36" y="4.342"/><use xlink:href="#37" y="10.855"/></svg><svg x="15576"><use xlink:href="#a"/><use xlink:href="#2"/><use xlink:href="#36" y="4.342"/><use xlink:href="#37" y="10.855"/></svg><svg x="15708"><use xlink:href="#a"/><use xlink:href="#b" x="26.996" y="10.83"/><use xlink:href="#2"/><use xlink:href="#36" y="4.342"/><use xlink:href="#37" y="10.855"/></svg><svg x="15840"><use xlink:href="#a"/><use xlink:href="#b" x="-.004" y="10.83"/><use xlink:href="#2"/><use xlink:href="#36" y="4.342"/><use xlink:href="#38" y="10.855"/></svg><svg x="15972"><use xlink:href="#a"/><use xlink:href="#b" x="-.004" y="13.001"/><use xlink:href="#2"/><use xlink:href="#36" y="4.342"/><use xlink:href="#38" y="10.855"/></svg><svg x="16104"><use xlink:href="#a"/><use xlink:href="#b" x="-.004" y="15.172"/><use xlink:href="#2"/><use xlink:href="#36" y="4.342"/><use xlink:href="#38" y="10.855"/><use xlink:href="#39" y="13.026"/></svg><svg x="16236"><use xlink:href="#a"/><use xlink:href="#b" x="-.004" y="17.343"/><use xlink:href="#2"/><use xlink:href="#36" y="4.342"/><use xlink:href="#38" y="10.855"/><use xlink:href="#39" y="13.026"/></svg><svg x="16368"><use xlink:href="#a"/><use xlink:href="#2"/><use xlink:href="#36" y="4.342"/><use xlink:href="#38" y="10.855"/><use xlink:href="#39" y="13.026"/></svg><svg x="16500"><use xlink:href="#a"/><use xlink:href="#b" x="-.004" y="17.343"/><use xlink:href="#2"/><use xlink:href="#36" y="4.342"/><use xlink:href="#38" y="10.855"/><use xlink:href="#39" y="13.026"/></svg><svg x="16632"><use xlink:href="#a"/><use xlink:href="#2"/><use xlink:href="#36" y="4.342"/><use xlink:href="#38" y="10.855"/><use xlink:href="#39" y="13.026"/></svg><svg x="16764"><use xlink:href="#a"/><use xlink:href="#b" x="-.004" y="17.343"/><use xlink:href="#2"/><use xlink:href="#36" y="4.342"/><use xlink:href="#38" y="10.855"/><use xlink:href="#39" y="13.026"/></svg><svg x="16896"><use xlink:href="#a"/><use xlink:href="#2"/><use xlink:href="#36" y="4.342"/><use xlink:href="#38" y="10.855"/><use xlink:href="#39" y="13.026"/></svg><svg x="17028"><use xlink:href="#a"/><use xlink:href="#b" x="-.004" y="17.343"/><use xlink:href="#2"/><use xlink:href="#36" y="4.342"/><use xlink:href="#38" y="10.855"/><use xlink:href="#39" y="13.026"/></svg><svg x="17160"><use xlink:href="#a"/><use xlink:href="#2"/><use xlink:href="#36" y="4.342"/><use xlink:href="#38" y="10.855"/><use xlink:href="#39" y="13.026"/></svg><svg x="17292"><use xlink:href="#a"/><use xlink:href="#b" x="-.004" y="17.343"/><use xlink:href="#2"/><use xlink:href="#36" y="4.342"/><use xlink:href="#38" y="10.855"/><use xlink:href="#39" y="13.026"/></svg><svg x="17424"><use xlink:href="#a"/><use xlink:href="#2"/><use xlink:href="#36" y="4.342"/><use xlink:href="#38" y="10.855"/><use xlink:href="#39" y="13.026"/></svg><svg x="17556"><use xlink:href="#a"/><use xlink:href="#b" x="-.004" y="17.343"/><use xlink:href="#2"/><use xlink:href="#36" y="4.342"/><use xlink:href="#38" y="10.855"/><use xlink:href="#39" y="13.026"/></svg><svg x="17688"><use xlink:href="#a"/><use xlink:href="#2"/><use xlink:href="#36" y="4.342"/><use xlink:href="#38" y="10.855"/><use xlink:href="#39" y="13.026"/></svg><svg x="17820"><use xlink:href="#a"/><use xlink:href="#b" x="-.004" y="17.343"/><use xlink:href="#2"/><use xlink:href="#36" y="4.342"/><use xlink:href="#38" y="10.855"/><use xlink:href="#39" y="13.026"/></svg><svg x="17952"><use xlink:href="#a"/><use xlink:href="#2"/><use xlink:href="#36" y="4.342"/><use xlink:href="#38" y="10.855"/><use xlink:href="#39" y="13.026"/></svg><svg x="18084"><use xlink:href="#a"/><use xlink:href="#b" x="-.004" y="17.343"/><use xlink:href="#2"/><use xlink:href="#36" y="4.342"/><use xlink:href="#38" y="10.855"/><use xlink:href="#39" y="13.026"/></svg><svg x="18216"><use xlink:href="#a"/><use xlink:href="#b" x="-.004" y="17.343"/><use xlink:href="#2"/><use xlink:href="#36" y="4.342"/><use xlink:href="#38" y="10.855"/><use xlink:href="#39" y="13.026"/></svg></svg></g></g></svg></svg>
