<svg xmlns="http://www.w3.org/2000/svg" xmlns:xlink="http://www.w3.org/1999/xlink" width="900" height="662.75"><rect width="900" height="662.75" rx="5" ry="5" class="a"/><svg y="0%" x="0%"><circle cx="20" cy="20" r="6" fill="#ff5f58"/><circle cx="40" cy="20" r="6" fill="#ffbd2e"/><circle cx="60" cy="20" r="6" fill="#18c132"/></svg><svg height="542.75" viewBox="0 0 80 54.275" width="800" x="45" xmlns="http://www.w3.org/2000/svg" xmlns:xlink="http://www.w3.org/1999/xlink" y="80"><style>@keyframes r{0%{transform:translateX(0)}.1%{transform:translateX(-80px)}.2%{transform:translateX(-160px)}.3%{transform:translateX(-560px)}.5%{transform:translateX(-640px)}4.2%{transform:translateX(-800px)}4.3%{transform:translateX(-880px)}4.5%{transform:translateX(-960px)}16.2%{transform:translateX(-1040px)}16.3%{transform:translateX(-1120px)}16.5%{transform:translateX(-1200px)}16.6%{transform:translateX(-1360px)}16.8%{transform:translateX(-1440px)}16.9%{transform:translateX(-1600px)}17.1%{transform:translateX(-1840px)}17.3%{transform:translateX(-2080px)}17.5%{transform:translateX(-2160px)}17.6%{transform:translateX(-2320px)}17.7%{transform:translateX(-2400px)}17.8%{transform:translateX(-2560px)}18%{transform:translateX(-2800px)}18.2%{transform:translateX(-3040px)}18.4%{transform:translateX(-3280px)}18.6%{transform:translateX(-3520px)}18.8%{transform:translateX(-3600px)}18.9%{transform:translateX(-3760px)}19%{transform:translateX(-3840px)}19.1%{transform:translateX(-4000px)}19.3%{transform:translateX(-4240px)}19.5%{transform:translateX(-4480px)}19.7%{transform:translateX(-4720px)}19.9%{transform:translateX(-4960px)}20.1%{transform:translateX(-5200px)}20.3%{transform:translateX(-5280px)}20.4%{transform:translateX(-5440px)}20.5%{transform:translateX(-5520px)}20.6%{transform:translateX(-5680px)}20.8%{transform:translateX(-5920px)}21%{transform:translateX(-6160px)}21.2%{transform:translateX(-6240px)}21.3%{transform:translateX(-6400px)}21.4%{transform:translateX(-6480px)}21.5%{transform:translateX(-6720px)}21.7%{transform:translateX(-7040px)}21.9%{transform:translateX(-7120px)}22%{transform:translateX(-7280px)}22.1%{transform:translateX(-7360px)}22.2%{transform:translateX(-7520px)}22.4%{transform:translateX(-7760px)}22.6%{transform:translateX(-8000px)}22.8%{transform:translateX(-8240px)}23%{transform:translateX(-8320px)}23.1%{transform:translateX(-8480px)}23.2%{transform:translateX(-8560px)}23.3%{transform:translateX(-8720px)}23.4%{transform:translateX(-8800px)}23.5%{transform:translateX(-8960px)}23.7%{transform:translateX(-9200px)}23.9%{transform:translateX(-9280px)}24%{transform:translateX(-9440px)}38%{transform:translateX(-9520px)}38.1%{transform:translateX(-9600px)}61.2%{transform:translateX(-9680px)}61.3%{transform:translateX(-9760px)}61.5%{transform:translateX(-9840px)}61.6%{transform:translateX(-9920px)}73.4%{transform:translateX(-10000px)}76.8%{transform:translateX(-10080px)}76.9%{transform:translateX(-10240px)}to{transform:translateX(-10320px)}}.a{fill:#2d2d2d}.f,.g,.h{fill:#c9c9c9;white-space:pre}.g,.h{fill:gray}.h{fill:#01e6ff}.i,.j,.k,.l,.m,.n{fill:#01818f;white-space:pre}.j,.k,.l,.m,.n{fill:#e927ff}.k,.l,.m,.n{fill:#ff2797}.l,.m,.n{fill:#fffc67}.m,.n{fill:#92ff60}.n{fill:#2ec1ff}</style><g font-family="Monaco,Consolas,Menlo,'Bitstream Vera Sans Mono','Powerline Symbols',monospace" font-size="1.67"><defs><symbol id="21"><text x="3.006" y="1.67" class="f">▉▊▋▌▍▎▏</text><text x="11.022" y="1.67" class="h">FOO</text><text x="15.03" y="1.67" class="i">BAR</text><text x="19.038" y="1.67" class="j">BAZ</text></symbol><symbol id="1"><text y="1.67" class="f">stty:</text><text x="6.012" y="1.67" class="f">&apos;standard</text><text x="16.032" y="1.67" class="f">input&apos;:</text><text x="24.048" y="1.67" class="f">Inappropriate</text><text x="38.076" y="1.67" class="f">ioctl</text><text x="44.088" y="1.67" class="f">for</text><text x="48.096" y="1.67" class="f">device</text></symbol><symbol id="3"><text x="11.022" y="1.67" class="h">FOO</text><text x="15.03" y="1.67" class="i">BAR</text><text x="19.038" y="1.67" class="j">BAZ</text></symbol><symbol id="4"><text x="3.006" y="1.67" class="f">▁</text><text x="11.022" y="1.67" class="h">FOO</text><text x="15.03" y="1.67" class="i">BAR</text><text x="19.038" y="1.67" class="j">BAZ</text></symbol><symbol id="5"><text x="3.006" y="1.67" class="f">▁▂</text><text x="11.022" y="1.67" class="h">FOO</text><text x="15.03" y="1.67" class="i">BAR</text><text x="19.038" y="1.67" class="j">BAZ</text></symbol><symbol id="6"><text x="3.006" y="1.67" class="f">▁▂▃</text><text x="11.022" y="1.67" class="h">FOO</text><text x="15.03" y="1.67" class="i">BAR</text><text x="19.038" y="1.67" class="j">BAZ</text></symbol><symbol id="7"><text x="3.006" y="1.67" class="f">▁▂▃▄</text><text x="11.022" y="1.67" class="h">FOO</text><text x="15.03" y="1.67" class="i">BAR</text><text x="19.038" y="1.67" class="j">BAZ</text></symbol><symbol id="8"><text x="3.006" y="1.67" class="f">▁▂▃▄▅</text><text x="11.022" y="1.67" class="h">FOO</text><text x="15.03" y="1.67" class="i">BAR</text><text x="19.038" y="1.67" class="j">BAZ</text></symbol><symbol id="9"><text x="3.006" y="1.67" class="f">▁▂▃▄▅▆</text><text x="11.022" y="1.67" class="h">FOO</text><text x="15.03" y="1.67" class="i">BAR</text><text x="19.038" y="1.67" class="j">BAZ</text></symbol><symbol id="10"><text x="3.006" y="1.67" class="f">▁▂▃▄▅▆▇</text><text x="11.022" y="1.67" class="h">FOO</text><text x="15.03" y="1.67" class="i">BAR</text><text x="19.038" y="1.67" class="j">BAZ</text></symbol><symbol id="11"><text x="3.006" y="1.67" class="f">▂▃▄▅▆▇█</text><text x="11.022" y="1.67" class="h">FOO</text><text x="15.03" y="1.67" class="i">BAR</text><text x="19.038" y="1.67" class="j">BAZ</text></symbol><symbol id="12"><text x="3.006" y="1.67" class="f">▃▄▅▆▇██</text><text x="11.022" y="1.67" class="h">FOO</text><text x="15.03" y="1.67" class="i">BAR</text><text x="19.038" y="1.67" class="j">BAZ</text></symbol><symbol id="13"><text x="3.006" y="1.67" class="f">▄▅▆▇███</text><text x="11.022" y="1.67" class="h">FOO</text><text x="15.03" y="1.67" class="i">BAR</text><text x="19.038" y="1.67" class="j">BAZ</text></symbol><symbol id="14"><text x="3.006" y="1.67" class="f">▅▆▇████</text><text x="11.022" y="1.67" class="h">FOO</text><text x="15.03" y="1.67" class="i">BAR</text><text x="19.038" y="1.67" class="j">BAZ</text></symbol><symbol id="15"><text x="3.006" y="1.67" class="f">▆▇████▉</text><text x="11.022" y="1.67" class="h">FOO</text><text x="15.03" y="1.67" class="i">BAR</text><text x="19.038" y="1.67" class="j">BAZ</text></symbol><symbol id="16"><text x="3.006" y="1.67" class="f">▇████▉▊</text><text x="11.022" y="1.67" class="h">FOO</text><text x="15.03" y="1.67" class="i">BAR</text><text x="19.038" y="1.67" class="j">BAZ</text></symbol><symbol id="17"><text x="3.006" y="1.67" class="f">████▉▊▋</text><text x="11.022" y="1.67" class="h">FOO</text><text x="15.03" y="1.67" class="i">BAR</text><text x="19.038" y="1.67" class="j">BAZ</text></symbol><symbol id="18"><text x="3.006" y="1.67" class="f">███▉▊▋▌</text><text x="11.022" y="1.67" class="h">FOO</text><text x="15.03" y="1.67" class="i">BAR</text><text x="19.038" y="1.67" class="j">BAZ</text></symbol><symbol id="19"><text x="3.006" y="1.67" class="f">██▉▊▋▌▍</text><text x="11.022" y="1.67" class="h">FOO</text><text x="15.03" y="1.67" class="i">BAR</text><text x="19.038" y="1.67" class="j">BAZ</text></symbol><symbol id="20"><text x="3.006" y="1.67" class="f">█▉▊▋▌▍▎</text><text x="11.022" y="1.67" class="h">FOO</text><text x="15.03" y="1.67" class="i">BAR</text><text x="19.038" y="1.67" class="j">BAZ</text></symbol><symbol id="2"><text y="1.67" class="g">$</text><text x="2.004" y="1.67" class="g">HEADR</text><text x="8.016" y="1.67" class="g">fooBar</text><text x="15.03" y="1.67" class="g">baz</text></symbol><symbol id="22"><text x="3.006" y="1.67" class="f">▊▋▌▍▎▏</text><text x="11.022" y="1.67" class="h">FOO</text><text x="15.03" y="1.67" class="i">BAR</text><text x="19.038" y="1.67" class="j">BAZ</text></symbol><symbol id="23"><text x="3.006" y="1.67" class="f">▋▌▍▎▏</text><text x="9.018" y="1.67" class="k">▏</text><text x="11.022" y="1.67" class="h">FOO</text><text x="15.03" y="1.67" class="i">BAR</text><text x="19.038" y="1.67" class="j">BAZ</text></symbol><symbol id="24"><text x="3.006" y="1.67" class="f">▌▍▎▏</text><text x="8.016" y="1.67" class="j">▏</text><text x="9.018" y="1.67" class="k">▎</text><text x="11.022" y="1.67" class="h">FOO</text><text x="15.03" y="1.67" class="i">BAR</text><text x="19.038" y="1.67" class="j">BAZ</text></symbol><symbol id="25"><text x="3.006" y="1.67" class="f">▍▎▏</text><text x="7.014" y="1.67" class="l">▏</text><text x="8.016" y="1.67" class="j">▎</text><text x="9.018" y="1.67" class="k">▍</text><text x="11.022" y="1.67" class="h">FOO</text><text x="15.03" y="1.67" class="i">BAR</text><text x="19.038" y="1.67" class="j">BAZ</text></symbol><symbol id="26"><text x="3.006" y="1.67" class="f">▎▏</text><text x="6.012" y="1.67" class="m">▏</text><text x="7.014" y="1.67" class="l">▎</text><text x="8.016" y="1.67" class="j">▍</text><text x="9.018" y="1.67" class="k">▌</text><text x="11.022" y="1.67" class="h">FOO</text><text x="15.03" y="1.67" class="i">BAR</text><text x="19.038" y="1.67" class="j">BAZ</text></symbol><symbol id="27"><text x="3.006" y="1.67" class="f">▏</text><text x="5.01" y="1.67" class="n">▏</text><text x="6.012" y="1.67" class="m">▎</text><text x="7.014" y="1.67" class="l">▍</text><text x="8.016" y="1.67" class="j">▌</text><text x="9.018" y="1.67" class="k">▋</text><text x="11.022" y="1.67" class="h">FOO</text><text x="15.03" y="1.67" class="i">BAR</text><text x="19.038" y="1.67" class="j">BAZ</text></symbol><symbol id="28"><text x="4.008" y="1.67" class="h">▏</text><text x="5.01" y="1.67" class="n">▎</text><text x="6.012" y="1.67" class="m">▍</text><text x="7.014" y="1.67" class="l">▌</text><text x="8.016" y="1.67" class="j">▋</text><text x="9.018" y="1.67" class="k">▊</text><text x="11.022" y="1.67" class="h">FOO</text><text x="15.03" y="1.67" class="i">BAR</text><text x="19.038" y="1.67" class="j">BAZ</text></symbol><symbol id="29"><text x="3.006" y="1.67" class="g">▏</text><text x="4.008" y="1.67" class="h">▎</text><text x="5.01" y="1.67" class="n">▍</text><text x="6.012" y="1.67" class="m">▌</text><text x="7.014" y="1.67" class="l">▋</text><text x="8.016" y="1.67" class="j">▊</text><text x="9.018" y="1.67" class="k">▉</text><text x="11.022" y="1.67" class="h">FOO</text><text x="15.03" y="1.67" class="i">BAR</text><text x="19.038" y="1.67" class="j">BAZ</text></symbol><symbol id="30"><text x="3.006" y="1.67" class="g">▎</text><text x="4.008" y="1.67" class="h">▍</text><text x="5.01" y="1.67" class="n">▌</text><text x="6.012" y="1.67" class="m">▋</text><text x="7.014" y="1.67" class="l">▊</text><text x="8.016" y="1.67" class="j">▉</text><text x="9.018" y="1.67" class="k">█</text><text x="11.022" y="1.67" class="h">FOO</text><text x="15.03" y="1.67" class="i">BAR</text><text x="19.038" y="1.67" class="j">BAZ</text></symbol><symbol id="31"><text x="3.006" y="1.67" class="g">▍</text><text x="4.008" y="1.67" class="h">▌</text><text x="5.01" y="1.67" class="n">▋</text><text x="6.012" y="1.67" class="m">▊</text><text x="7.014" y="1.67" class="l">▉</text><text x="8.016" y="1.67" class="j">█</text><text x="9.018" y="1.67" class="k">█</text><text x="11.022" y="1.67" class="h">FOO</text><text x="15.03" y="1.67" class="i">BAR</text><text x="19.038" y="1.67" class="j">BAZ</text></symbol><symbol id="32"><text x="3.006" y="1.67" class="g">▌</text><text x="4.008" y="1.67" class="h">▋</text><text x="5.01" y="1.67" class="n">▊</text><text x="6.012" y="1.67" class="m">▉</text><text x="7.014" y="1.67" class="l">█</text><text x="8.016" y="1.67" class="j">█</text><text x="9.018" y="1.67" class="k">█</text><text x="11.022" y="1.67" class="h">FOO</text><text x="15.03" y="1.67" class="i">BAR</text><text x="19.038" y="1.67" class="j">BAZ</text></symbol><symbol id="33"><text x="3.006" y="1.67" class="g">▋</text><text x="4.008" y="1.67" class="h">▊</text><text x="5.01" y="1.67" class="n">▉</text><text x="6.012" y="1.67" class="m">█</text><text x="7.014" y="1.67" class="l">█</text><text x="8.016" y="1.67" class="j">█</text><text x="9.018" y="1.67" class="k">█</text><text x="11.022" y="1.67" class="h">FOO</text><text x="15.03" y="1.67" class="i">BAR</text><text x="19.038" y="1.67" class="j">BAZ</text></symbol><symbol id="34"><text x="3.006" y="1.67" class="g">▊</text><text x="4.008" y="1.67" class="h">▉</text><text x="5.01" y="1.67" class="n">█</text><text x="6.012" y="1.67" class="m">█</text><text x="7.014" y="1.67" class="l">█</text><text x="8.016" y="1.67" class="j">█</text><text x="9.018" y="1.67" class="k">█</text><text x="11.022" y="1.67" class="h">FOO</text><text x="15.03" y="1.67" class="i">BAR</text><text x="19.038" y="1.67" class="j">BAZ</text></symbol><symbol id="35"><text x="3.006" y="1.67" class="g">▉</text><text x="4.008" y="1.67" class="h">█</text><text x="5.01" y="1.67" class="n">█</text><text x="6.012" y="1.67" class="m">█</text><text x="7.014" y="1.67" class="l">█</text><text x="8.016" y="1.67" class="j">█</text><text x="9.018" y="1.67" class="k">█</text><text x="11.022" y="1.67" class="h">FOO</text><text x="15.03" y="1.67" class="i">BAR</text><text x="19.038" y="1.67" class="j">BAZ</text></symbol><symbol id="36"><text x="3.006" y="1.67" class="g">█</text><text x="4.008" y="1.67" class="h">█</text><text x="5.01" y="1.67" class="n">█</text><text x="6.012" y="1.67" class="m">█</text><text x="7.014" y="1.67" class="l">█</text><text x="8.016" y="1.67" class="j">█</text><text x="9.018" y="1.67" class="k">█</text><text x="11.022" y="1.67" class="h">FOO</text><text x="15.03" y="1.67" class="i">BAR</text><text x="19.038" y="1.67" class="j">BAZ</text></symbol><symbol id="37"><text y="1.67" class="g">#</text><text x="2.004" y="1.67" class="g">tracr</text><text x="8.016" y="1.67" class="g">-foo</text><text x="13.026" y="1.67" class="g">--bar</text><text x="19.038" y="1.67" class="g">--</text><text x="22.044" y="1.67" class="g">---baz</text></symbol><symbol id="38"><text x="1.002" y="1.67" class="h">4</text><text x="3.006" y="1.67" class="h">`</text><text x="4.008" y="1.67" class="f">-foo</text><text x="8.016" y="1.67" class="h">`</text><text x="10.02" y="1.67" class="h">`</text><text x="11.022" y="1.67" class="f">--bar</text><text x="16.032" y="1.67" class="h">`</text><text x="18.036" y="1.67" class="h">`</text><text x="19.038" y="1.67" class="f">--</text><text x="21.042" y="1.67" class="h">`</text><text x="23.046" y="1.67" class="h">`</text><text x="24.048" y="1.67" class="f">---baz</text><text x="30.06" y="1.67" class="h">`</text><text x="51.102" y="1.67" style="white-space:pre" fill="#29abe2">↗</text><text x="53.106" y="1.67" class="f">file:///home/john/main#17</text></symbol><symbol id="a"><path fill="transparent" d="M0 0h80v26H0z"/></symbol><symbol id="b"><path fill="#c7c7c7" d="M0 0h1.102v2.171H0z"/></symbol></defs><path class="a" d="M0 0h80v54.275H0z"/><g style="animation-duration:8.668142s;animation-iteration-count:infinite;animation-name:r;animation-timing-function:steps(1,end)"><svg width="10400"><svg><use xlink:href="#a"/><use xlink:href="#b" x="-.004"/></svg><svg x="80"><use xlink:href="#a"/><use xlink:href="#b" x="-.004"/></svg><svg x="160"><use xlink:href="#a"/><use xlink:href="#b" x="-.004" y="2.146"/><use xlink:href="#1"/></svg><svg x="240"><use xlink:href="#a"/><use xlink:href="#b" x="5.996" y="2.146"/><use xlink:href="#1"/><text y="3.841" class="f">stty:</text></svg><svg x="320"><use xlink:href="#a"/><use xlink:href="#b" x="21.996" y="2.146"/><use xlink:href="#1"/><text y="3.841" class="f">stty:</text><text x="6.012" y="3.841" class="f">&apos;standard</text><text x="16.032" y="3.841" class="f">input&apos;</text></svg><svg x="400"><use xlink:href="#a"/><use xlink:href="#b" x="53.996" y="2.146"/><use xlink:href="#1"/><use xlink:href="#1" y="2.171"/></svg><svg x="480"><use xlink:href="#a"/><use xlink:href="#b" x="-.004" y="4.317"/><use xlink:href="#1"/><use xlink:href="#1" y="2.171"/></svg><svg x="560"><use xlink:href="#a"/><use xlink:href="#b" x="-.004" y="4.317"/><use xlink:href="#1"/><use xlink:href="#1" y="2.171"/></svg><svg x="640"><use xlink:href="#a"/><use xlink:href="#b" x="-.004" y="4.317"/><use xlink:href="#1"/><use xlink:href="#1" y="2.171"/></svg><svg x="720"><use xlink:href="#a"/><use xlink:href="#1"/><use xlink:href="#1" y="2.171"/></svg><svg x="800"><use xlink:href="#a"/><use xlink:href="#b" x=".996" y="4.317"/><use xlink:href="#1"/><use xlink:href="#1" y="2.171"/><text y="6.012" class="g">$</text></svg><svg x="880"><use xlink:href="#a"/><use xlink:href="#b" x="10.996" y="4.317"/><use xlink:href="#1"/><use xlink:href="#1" y="2.171"/><text y="6.012" class="g">$</text><text x="2.004" y="6.012" class="f">HEADR</text><text x="8.016" y="6.012" class="f">foo</text></svg><svg x="960"><use xlink:href="#a"/><use xlink:href="#b" x="17.996" y="4.317"/><use xlink:href="#1"/><use xlink:href="#1" y="2.171"/><text y="6.012" class="g">$</text><text x="2.004" y="6.012" class="f">HEADR</text><text x="8.016" y="6.012" class="f">fooBar</text><text x="15.03" y="6.012" class="f">baz</text></svg><svg x="1040"><use xlink:href="#a"/><use xlink:href="#1"/><use xlink:href="#1" y="2.171"/><use xlink:href="#2" y="4.342"/></svg><svg x="1120"><use xlink:href="#a"/><use xlink:href="#1"/><use xlink:href="#1" y="2.171"/><use xlink:href="#2" y="4.342"/></svg><svg x="1200"><use xlink:href="#a"/><use xlink:href="#1"/><use xlink:href="#1" y="2.171"/><use xlink:href="#2" y="4.342"/></svg><svg x="1280"><use xlink:href="#a"/><use xlink:href="#1"/><use xlink:href="#1" y="2.171"/><use xlink:href="#2" y="4.342"/><use xlink:href="#3" y="8.684"/></svg><svg x="1360"><use xlink:href="#a"/><use xlink:href="#1"/><use xlink:href="#1" y="2.171"/><use xlink:href="#2" y="4.342"/><use xlink:href="#3" y="8.684"/></svg><svg x="1440"><use xlink:href="#a"/><use xlink:href="#1"/><use xlink:href="#1" y="2.171"/><use xlink:href="#2" y="4.342"/><use xlink:href="#3" y="8.684"/></svg><svg x="1520"><use xlink:href="#a"/><use xlink:href="#1"/><use xlink:href="#1" y="2.171"/><use xlink:href="#2" y="4.342"/><use xlink:href="#4" y="8.684"/></svg><svg x="1600"><use xlink:href="#a"/><use xlink:href="#1"/><use xlink:href="#1" y="2.171"/><use xlink:href="#2" y="4.342"/><use xlink:href="#4" y="8.684"/></svg><svg x="1680"><use xlink:href="#a"/><use xlink:href="#1"/><use xlink:href="#1" y="2.171"/><use xlink:href="#2" y="4.342"/><use xlink:href="#4" y="8.684"/></svg><svg x="1760"><use xlink:href="#a"/><use xlink:href="#1"/><use xlink:href="#1" y="2.171"/><use xlink:href="#2" y="4.342"/><use xlink:href="#5" y="8.684"/></svg><svg x="1840"><use xlink:href="#a"/><use xlink:href="#1"/><use xlink:href="#1" y="2.171"/><use xlink:href="#2" y="4.342"/><use xlink:href="#5" y="8.684"/></svg><svg x="1920"><use xlink:href="#a"/><use xlink:href="#1"/><use xlink:href="#1" y="2.171"/><use xlink:href="#2" y="4.342"/><use xlink:href="#5" y="8.684"/></svg><svg x="2000"><use xlink:href="#a"/><use xlink:href="#1"/><use xlink:href="#1" y="2.171"/><use xlink:href="#2" y="4.342"/><use xlink:href="#6" y="8.684"/></svg><svg x="2080"><use xlink:href="#a"/><use xlink:href="#1"/><use xlink:href="#1" y="2.171"/><use xlink:href="#2" y="4.342"/><use xlink:href="#6" y="8.684"/></svg><svg x="2160"><use xlink:href="#a"/><use xlink:href="#1"/><use xlink:href="#1" y="2.171"/><use xlink:href="#2" y="4.342"/><use xlink:href="#6" y="8.684"/></svg><svg x="2240"><use xlink:href="#a"/><use xlink:href="#1"/><use xlink:href="#1" y="2.171"/><use xlink:href="#2" y="4.342"/><use xlink:href="#7" y="8.684"/></svg><svg x="2320"><use xlink:href="#a"/><use xlink:href="#1"/><use xlink:href="#1" y="2.171"/><use xlink:href="#2" y="4.342"/><use xlink:href="#7" y="8.684"/></svg><svg x="2400"><use xlink:href="#a"/><use xlink:href="#1"/><use xlink:href="#1" y="2.171"/><use xlink:href="#2" y="4.342"/><use xlink:href="#7" y="8.684"/></svg><svg x="2480"><use xlink:href="#a"/><use xlink:href="#1"/><use xlink:href="#1" y="2.171"/><use xlink:href="#2" y="4.342"/><use xlink:href="#8" y="8.684"/></svg><svg x="2560"><use xlink:href="#a"/><use xlink:href="#1"/><use xlink:href="#1" y="2.171"/><use xlink:href="#2" y="4.342"/><use xlink:href="#8" y="8.684"/></svg><svg x="2640"><use xlink:href="#a"/><use xlink:href="#1"/><use xlink:href="#1" y="2.171"/><use xlink:href="#2" y="4.342"/><use xlink:href="#8" y="8.684"/></svg><svg x="2720"><use xlink:href="#a"/><use xlink:href="#1"/><use xlink:href="#1" y="2.171"/><use xlink:href="#2" y="4.342"/><use xlink:href="#9" y="8.684"/></svg><svg x="2800"><use xlink:href="#a"/><use xlink:href="#1"/><use xlink:href="#1" y="2.171"/><use xlink:href="#2" y="4.342"/><use xlink:href="#9" y="8.684"/></svg><svg x="2880"><use xlink:href="#a"/><use xlink:href="#1"/><use xlink:href="#1" y="2.171"/><use xlink:href="#2" y="4.342"/><use xlink:href="#9" y="8.684"/></svg><svg x="2960"><use xlink:href="#a"/><use xlink:href="#1"/><use xlink:href="#1" y="2.171"/><use xlink:href="#2" y="4.342"/><use xlink:href="#10" y="8.684"/></svg><svg x="3040"><use xlink:href="#a"/><use xlink:href="#1"/><use xlink:href="#1" y="2.171"/><use xlink:href="#2" y="4.342"/><use xlink:href="#10" y="8.684"/></svg><svg x="3120"><use xlink:href="#a"/><use xlink:href="#1"/><use xlink:href="#1" y="2.171"/><use xlink:href="#2" y="4.342"/><use xlink:href="#10" y="8.684"/></svg><svg x="3200"><use xlink:href="#a"/><use xlink:href="#1"/><use xlink:href="#1" y="2.171"/><use xlink:href="#2" y="4.342"/><use xlink:href="#11" y="8.684"/></svg><svg x="3280"><use xlink:href="#a"/><use xlink:href="#1"/><use xlink:href="#1" y="2.171"/><use xlink:href="#2" y="4.342"/><use xlink:href="#11" y="8.684"/></svg><svg x="3360"><use xlink:href="#a"/><use xlink:href="#1"/><use xlink:href="#1" y="2.171"/><use xlink:href="#2" y="4.342"/><use xlink:href="#11" y="8.684"/></svg><svg x="3440"><use xlink:href="#a"/><use xlink:href="#1"/><use xlink:href="#1" y="2.171"/><use xlink:href="#2" y="4.342"/><use xlink:href="#12" y="8.684"/></svg><svg x="3520"><use xlink:href="#a"/><use xlink:href="#1"/><use xlink:href="#1" y="2.171"/><use xlink:href="#2" y="4.342"/><use xlink:href="#12" y="8.684"/></svg><svg x="3600"><use xlink:href="#a"/><use xlink:href="#1"/><use xlink:href="#1" y="2.171"/><use xlink:href="#2" y="4.342"/><use xlink:href="#12" y="8.684"/></svg><svg x="3680"><use xlink:href="#a"/><use xlink:href="#1"/><use xlink:href="#1" y="2.171"/><use xlink:href="#2" y="4.342"/><use xlink:href="#13" y="8.684"/></svg><svg x="3760"><use xlink:href="#a"/><use xlink:href="#1"/><use xlink:href="#1" y="2.171"/><use xlink:href="#2" y="4.342"/><use xlink:href="#13" y="8.684"/></svg><svg x="3840"><use xlink:href="#a"/><use xlink:href="#1"/><use xlink:href="#1" y="2.171"/><use xlink:href="#2" y="4.342"/><use xlink:href="#13" y="8.684"/></svg><svg x="3920"><use xlink:href="#a"/><use xlink:href="#1"/><use xlink:href="#1" y="2.171"/><use xlink:href="#2" y="4.342"/><use xlink:href="#14" y="8.684"/></svg><svg x="4000"><use xlink:href="#a"/><use xlink:href="#1"/><use xlink:href="#1" y="2.171"/><use xlink:href="#2" y="4.342"/><use xlink:href="#14" y="8.684"/></svg><svg x="4080"><use xlink:href="#a"/><use xlink:href="#1"/><use xlink:href="#1" y="2.171"/><use xlink:href="#2" y="4.342"/><use xlink:href="#14" y="8.684"/></svg><svg x="4160"><use xlink:href="#a"/><use xlink:href="#1"/><use xlink:href="#1" y="2.171"/><use xlink:href="#2" y="4.342"/><use xlink:href="#15" y="8.684"/></svg><svg x="4240"><use xlink:href="#a"/><use xlink:href="#1"/><use xlink:href="#1" y="2.171"/><use xlink:href="#2" y="4.342"/><use xlink:href="#15" y="8.684"/></svg><svg x="4320"><use xlink:href="#a"/><use xlink:href="#1"/><use xlink:href="#1" y="2.171"/><use xlink:href="#2" y="4.342"/><use xlink:href="#15" y="8.684"/></svg><svg x="4400"><use xlink:href="#a"/><use xlink:href="#1"/><use xlink:href="#1" y="2.171"/><use xlink:href="#2" y="4.342"/><use xlink:href="#16" y="8.684"/></svg><svg x="4480"><use xlink:href="#a"/><use xlink:href="#1"/><use xlink:href="#1" y="2.171"/><use xlink:href="#2" y="4.342"/><use xlink:href="#16" y="8.684"/></svg><svg x="4560"><use xlink:href="#a"/><use xlink:href="#1"/><use xlink:href="#1" y="2.171"/><use xlink:href="#2" y="4.342"/><use xlink:href="#16" y="8.684"/></svg><svg x="4640"><use xlink:href="#a"/><use xlink:href="#1"/><use xlink:href="#1" y="2.171"/><use xlink:href="#2" y="4.342"/><use xlink:href="#17" y="8.684"/></svg><svg x="4720"><use xlink:href="#a"/><use xlink:href="#1"/><use xlink:href="#1" y="2.171"/><use xlink:href="#2" y="4.342"/><use xlink:href="#17" y="8.684"/></svg><svg x="4800"><use xlink:href="#a"/><use xlink:href="#1"/><use xlink:href="#1" y="2.171"/><use xlink:href="#2" y="4.342"/><use xlink:href="#17" y="8.684"/></svg><svg x="4880"><use xlink:href="#a"/><use xlink:href="#1"/><use xlink:href="#1" y="2.171"/><use xlink:href="#2" y="4.342"/><use xlink:href="#18" y="8.684"/></svg><svg x="4960"><use xlink:href="#a"/><use xlink:href="#1"/><use xlink:href="#1" y="2.171"/><use xlink:href="#2" y="4.342"/><use xlink:href="#18" y="8.684"/></svg><svg x="5040"><use xlink:href="#a"/><use xlink:href="#1"/><use xlink:href="#1" y="2.171"/><use xlink:href="#2" y="4.342"/><use xlink:href="#18" y="8.684"/></svg><svg x="5120"><use xlink:href="#a"/><use xlink:href="#1"/><use xlink:href="#1" y="2.171"/><use xlink:href="#2" y="4.342"/><use xlink:href="#19" y="8.684"/></svg><svg x="5200"><use xlink:href="#a"/><use xlink:href="#1"/><use xlink:href="#1" y="2.171"/><use xlink:href="#2" y="4.342"/><use xlink:href="#19" y="8.684"/></svg><svg x="5280"><use xlink:href="#a"/><use xlink:href="#1"/><use xlink:href="#1" y="2.171"/><use xlink:href="#2" y="4.342"/><use xlink:href="#19" y="8.684"/></svg><svg x="5360"><use xlink:href="#a"/><use xlink:href="#1"/><use xlink:href="#1" y="2.171"/><use xlink:href="#2" y="4.342"/><use xlink:href="#20" y="8.684"/></svg><svg x="5440"><use xlink:href="#a"/><use xlink:href="#1"/><use xlink:href="#1" y="2.171"/><use xlink:href="#2" y="4.342"/><use xlink:href="#20" y="8.684"/></svg><svg x="5520"><use xlink:href="#a"/><use xlink:href="#1"/><use xlink:href="#1" y="2.171"/><use xlink:href="#2" y="4.342"/><use xlink:href="#20" y="8.684"/></svg><svg x="5600"><use xlink:href="#a"/><use xlink:href="#1"/><use xlink:href="#1" y="2.171"/><use xlink:href="#2" y="4.342"/><use xlink:href="#21" y="8.684"/></svg><svg x="5680"><use xlink:href="#a"/><use xlink:href="#1"/><use xlink:href="#1" y="2.171"/><use xlink:href="#2" y="4.342"/><use xlink:href="#21" y="8.684"/></svg><svg x="5760"><use xlink:href="#a"/><use xlink:href="#1"/><use xlink:href="#1" y="2.171"/><use xlink:href="#2" y="4.342"/><use xlink:href="#21" y="8.684"/></svg><svg x="5840"><use xlink:href="#a"/><use xlink:href="#1"/><use xlink:href="#1" y="2.171"/><use xlink:href="#2" y="4.342"/><use xlink:href="#22" y="8.684"/></svg><svg x="5920"><use xlink:href="#a"/><use xlink:href="#1"/><use xlink:href="#1" y="2.171"/><use xlink:href="#2" y="4.342"/><use xlink:href="#22" y="8.684"/></svg><svg x="6000"><use xlink:href="#a"/><use xlink:href="#1"/><use xlink:href="#1" y="2.171"/><use xlink:href="#2" y="4.342"/><use xlink:href="#22" y="8.684"/></svg><svg x="6080"><use xlink:href="#a"/><use xlink:href="#1"/><use xlink:href="#1" y="2.171"/><use xlink:href="#2" y="4.342"/><use xlink:href="#23" y="8.684"/></svg><svg x="6160"><use xlink:href="#a"/><use xlink:href="#1"/><use xlink:href="#1" y="2.171"/><use xlink:href="#2" y="4.342"/><use xlink:href="#23" y="8.684"/></svg><svg x="6240"><use xlink:href="#a"/><use xlink:href="#1"/><use xlink:href="#1" y="2.171"/><use xlink:href="#2" y="4.342"/><use xlink:href="#23" y="8.684"/></svg><svg x="6320"><use xlink:href="#a"/><use xlink:href="#1"/><use xlink:href="#1" y="2.171"/><use xlink:href="#2" y="4.342"/><use xlink:href="#24" y="8.684"/></svg><svg x="6400"><use xlink:href="#a"/><use xlink:href="#1"/><use xlink:href="#1" y="2.171"/><use xlink:href="#2" y="4.342"/><use xlink:href="#24" y="8.684"/></svg><svg x="6480"><use xlink:href="#a"/><use xlink:href="#1"/><use xlink:href="#1" y="2.171"/><use xlink:href="#2" y="4.342"/><use xlink:href="#24" y="8.684"/></svg><svg x="6560"><use xlink:href="#a"/><use xlink:href="#1"/><use xlink:href="#1" y="2.171"/><use xlink:href="#2" y="4.342"/><use xlink:href="#25" y="8.684"/></svg><svg x="6640"><use xlink:href="#a"/><use xlink:href="#1"/><use xlink:href="#1" y="2.171"/><use xlink:href="#2" y="4.342"/><use xlink:href="#25" y="8.684"/></svg><svg x="6720"><use xlink:href="#a"/><use xlink:href="#1"/><use xlink:href="#1" y="2.171"/><use xlink:href="#2" y="4.342"/><use xlink:href="#25" y="8.684"/></svg><svg x="6800"><use xlink:href="#a"/><use xlink:href="#1"/><use xlink:href="#1" y="2.171"/><use xlink:href="#2" y="4.342"/><use xlink:href="#25" y="8.684"/></svg><svg x="6880"><use xlink:href="#a"/><use xlink:href="#1"/><use xlink:href="#1" y="2.171"/><use xlink:href="#2" y="4.342"/><use xlink:href="#26" y="8.684"/></svg><svg x="6960"><use xlink:href="#a"/><use xlink:href="#1"/><use xlink:href="#1" y="2.171"/><use xlink:href="#2" y="4.342"/><use xlink:href="#26" y="8.684"/></svg><svg x="7040"><use xlink:href="#a"/><use xlink:href="#1"/><use xlink:href="#1" y="2.171"/><use xlink:href="#2" y="4.342"/><use xlink:href="#26" y="8.684"/></svg><svg x="7120"><use xlink:href="#a"/><use xlink:href="#1"/><use xlink:href="#1" y="2.171"/><use xlink:href="#2" y="4.342"/><use xlink:href="#26" y="8.684"/></svg><svg x="7200"><use xlink:href="#a"/><use xlink:href="#1"/><use xlink:href="#1" y="2.171"/><use xlink:href="#2" y="4.342"/><use xlink:href="#27" y="8.684"/></svg><svg x="7280"><use xlink:href="#a"/><use xlink:href="#1"/><use xlink:href="#1" y="2.171"/><use xlink:href="#2" y="4.342"/><use xlink:href="#27" y="8.684"/></svg><svg x="7360"><use xlink:href="#a"/><use xlink:href="#1"/><use xlink:href="#1" y="2.171"/><use xlink:href="#2" y="4.342"/><use xlink:href="#27" y="8.684"/></svg><svg x="7440"><use xlink:href="#a"/><use xlink:href="#1"/><use xlink:href="#1" y="2.171"/><use xlink:href="#2" y="4.342"/><use xlink:href="#28" y="8.684"/></svg><svg x="7520"><use xlink:href="#a"/><use xlink:href="#1"/><use xlink:href="#1" y="2.171"/><use xlink:href="#2" y="4.342"/><use xlink:href="#28" y="8.684"/></svg><svg x="7600"><use xlink:href="#a"/><use xlink:href="#1"/><use xlink:href="#1" y="2.171"/><use xlink:href="#2" y="4.342"/><use xlink:href="#28" y="8.684"/></svg><svg x="7680"><use xlink:href="#a"/><use xlink:href="#1"/><use xlink:href="#1" y="2.171"/><use xlink:href="#2" y="4.342"/><use xlink:href="#29" y="8.684"/></svg><svg x="7760"><use xlink:href="#a"/><use xlink:href="#1"/><use xlink:href="#1" y="2.171"/><use xlink:href="#2" y="4.342"/><use xlink:href="#29" y="8.684"/></svg><svg x="7840"><use xlink:href="#a"/><use xlink:href="#1"/><use xlink:href="#1" y="2.171"/><use xlink:href="#2" y="4.342"/><use xlink:href="#29" y="8.684"/></svg><svg x="7920"><use xlink:href="#a"/><use xlink:href="#1"/><use xlink:href="#1" y="2.171"/><use xlink:href="#2" y="4.342"/><use xlink:href="#30" y="8.684"/></svg><svg x="8000"><use xlink:href="#a"/><use xlink:href="#1"/><use xlink:href="#1" y="2.171"/><use xlink:href="#2" y="4.342"/><use xlink:href="#30" y="8.684"/></svg><svg x="8080"><use xlink:href="#a"/><use xlink:href="#1"/><use xlink:href="#1" y="2.171"/><use xlink:href="#2" y="4.342"/><use xlink:href="#30" y="8.684"/></svg><svg x="8160"><use xlink:href="#a"/><use xlink:href="#1"/><use xlink:href="#1" y="2.171"/><use xlink:href="#2" y="4.342"/><use xlink:href="#31" y="8.684"/></svg><svg x="8240"><use xlink:href="#a"/><use xlink:href="#1"/><use xlink:href="#1" y="2.171"/><use xlink:href="#2" y="4.342"/><use xlink:href="#31" y="8.684"/></svg><svg x="8320"><use xlink:href="#a"/><use xlink:href="#1"/><use xlink:href="#1" y="2.171"/><use xlink:href="#2" y="4.342"/><use xlink:href="#31" y="8.684"/></svg><svg x="8400"><use xlink:href="#a"/><use xlink:href="#1"/><use xlink:href="#1" y="2.171"/><use xlink:href="#2" y="4.342"/><use xlink:href="#32" y="8.684"/></svg><svg x="8480"><use xlink:href="#a"/><use xlink:href="#1"/><use xlink:href="#1" y="2.171"/><use xlink:href="#2" y="4.342"/><use xlink:href="#32" y="8.684"/></svg><svg x="8560"><use xlink:href="#a"/><use xlink:href="#1"/><use xlink:href="#1" y="2.171"/><use xlink:href="#2" y="4.342"/><use xlink:href="#32" y="8.684"/></svg><svg x="8640"><use xlink:href="#a"/><use xlink:href="#1"/><use xlink:href="#1" y="2.171"/><use xlink:href="#2" y="4.342"/><use xlink:href="#33" y="8.684"/></svg><svg x="8720"><use xlink:href="#a"/><use xlink:href="#1"/><use xlink:href="#1" y="2.171"/><use xlink:href="#2" y="4.342"/><use xlink:href="#33" y="8.684"/></svg><svg x="8800"><use xlink:href="#a"/><use xlink:href="#1"/><use xlink:href="#1" y="2.171"/><use xlink:href="#2" y="4.342"/><use xlink:href="#33" y="8.684"/></svg><svg x="8880"><use xlink:href="#a"/><use xlink:href="#1"/><use xlink:href="#1" y="2.171"/><use xlink:href="#2" y="4.342"/><use xlink:href="#34" y="8.684"/></svg><svg x="8960"><use xlink:href="#a"/><use xlink:href="#1"/><use xlink:href="#1" y="2.171"/><use xlink:href="#2" y="4.342"/><use xlink:href="#34" y="8.684"/></svg><svg x="9040"><use xlink:href="#a"/><use xlink:href="#1"/><use xlink:href="#1" y="2.171"/><use xlink:href="#2" y="4.342"/><use xlink:href="#34" y="8.684"/></svg><svg x="9120"><use xlink:href="#a"/><use xlink:href="#1"/><use xlink:href="#1" y="2.171"/><use xlink:href="#2" y="4.342"/><use xlink:href="#35" y="8.684"/></svg><svg x="9200"><use xlink:href="#a"/><use xlink:href="#1"/><use xlink:href="#1" y="2.171"/><use xlink:href="#2" y="4.342"/><use xlink:href="#35" y="8.684"/></svg><svg x="9280"><use xlink:href="#a"/><use xlink:href="#1"/><use xlink:href="#1" y="2.171"/><use xlink:href="#2" y="4.342"/><use xlink:href="#35" y="8.684"/></svg><svg x="9360"><use xlink:href="#a"/><use xlink:href="#1"/><use xlink:href="#1" y="2.171"/><use xlink:href="#2" y="4.342"/><use xlink:href="#36" y="8.684"/></svg><svg x="9440"><use xlink:href="#a"/><use xlink:href="#1"/><use xlink:href="#1" y="2.171"/><use xlink:href="#2" y="4.342"/><use xlink:href="#36" y="8.684"/></svg><svg x="9520"><use xlink:href="#a"/><use xlink:href="#1"/><use xlink:href="#1" y="2.171"/><use xlink:href="#2" y="4.342"/><use xlink:href="#36" y="8.684"/></svg><svg x="9600"><use xlink:href="#a"/><use xlink:href="#1"/><use xlink:href="#1" y="2.171"/><use xlink:href="#2" y="4.342"/><use xlink:href="#36" y="8.684"/></svg><svg x="9680"><use xlink:href="#a"/><use xlink:href="#b" x="-.004" y="15.172"/><use xlink:href="#1"/><use xlink:href="#1" y="2.171"/><use xlink:href="#2" y="4.342"/><use xlink:href="#36" y="8.684"/></svg><svg x="9760"><use xlink:href="#a"/><use xlink:href="#b" x="12.996" y="15.172"/><use xlink:href="#1"/><use xlink:href="#1" y="2.171"/><use xlink:href="#2" y="4.342"/><use xlink:href="#36" y="8.684"/><text x="1.002" y="16.867" class="f">tracr</text><text x="7.014" y="16.867" class="f">-foo</text><text x="12.024" y="16.867" class="f">-</text></svg><svg x="9840"><use xlink:href="#a"/><use xlink:href="#b" x="22.996" y="15.172"/><use xlink:href="#1"/><use xlink:href="#1" y="2.171"/><use xlink:href="#2" y="4.342"/><use xlink:href="#36" y="8.684"/><text x="1.002" y="16.867" class="f">tracr</text><text x="7.014" y="16.867" class="f">-foo</text><text x="12.024" y="16.867" class="f">--bar</text><text x="18.036" y="16.867" class="f">--</text><text x="21.042" y="16.867" class="f">--</text></svg><svg x="9920"><use xlink:href="#a"/><use xlink:href="#b" x="26.996" y="15.172"/><use xlink:href="#1"/><use xlink:href="#1" y="2.171"/><use xlink:href="#2" y="4.342"/><use xlink:href="#36" y="8.684"/><text x="1.002" y="16.867" class="f">tracr</text><text x="7.014" y="16.867" class="f">-foo</text><text x="12.024" y="16.867" class="f">--bar</text><text x="18.036" y="16.867" class="f">--</text><text x="21.042" y="16.867" class="f">---baz</text></svg><svg x="10000"><use xlink:href="#a"/><use xlink:href="#b" x="-.004" y="15.172"/><use xlink:href="#1"/><use xlink:href="#1" y="2.171"/><use xlink:href="#2" y="4.342"/><use xlink:href="#36" y="8.684"/><use xlink:href="#37" y="15.197"/></svg><svg x="10080"><use xlink:href="#a"/><use xlink:href="#b" x="-.004" y="17.343"/><use xlink:href="#1"/><use xlink:href="#1" y="2.171"/><use xlink:href="#2" y="4.342"/><use xlink:href="#36" y="8.684"/><use xlink:href="#37" y="15.197"/></svg><svg x="10160"><use xlink:href="#a"/><use xlink:href="#b" x="-.004" y="19.514"/><use xlink:href="#1"/><use xlink:href="#1" y="2.171"/><use xlink:href="#2" y="4.342"/><use xlink:href="#36" y="8.684"/><use xlink:href="#37" y="15.197"/><use xlink:href="#38" y="17.368"/></svg><svg x="10240"><use xlink:href="#a"/><use xlink:href="#b" x="-.004" y="21.685"/><use xlink:href="#1"/><use xlink:href="#1" y="2.171"/><use xlink:href="#2" y="4.342"/><use xlink:href="#36" y="8.684"/><use xlink:href="#37" y="15.197"/><use xlink:href="#38" y="17.368"/></svg><svg x="10320"><use xlink:href="#a"/><use xlink:href="#b" x="-.004" y="21.685"/><use xlink:href="#1"/><use xlink:href="#1" y="2.171"/><use xlink:href="#2" y="4.342"/><use xlink:href="#36" y="8.684"/><use xlink:href="#37" y="15.197"/><use xlink:href="#38" y="17.368"/></svg></svg></g></g></svg></svg>